<?xml version="1.0" encoding="UTF-8"?>
<svg width="103px" height="95px" viewBox="0 0 103 95" version="1.1" xmlns="http://www.w3.org/2000/svg" xmlns:xlink="http://www.w3.org/1999/xlink">
    <!-- Generator: sketchtool 60.1 (101010) - https://sketch.com -->
    <title>66B961BC-6FB3-4BCC-B2B1-A3BEB2A337AF</title>
    <desc>Created with sketchtool.</desc>
    <g id="XS" stroke="none" stroke-width="1" fill="none" fill-rule="evenodd">
        <g id="Initial" transform="translate(-25.000000, -2033.000000)" fill="#010F24" fill-rule="nonzero">
            <path d="M116,2033 C88.5514014,2033 58.7756342,2035.67647 26.671202,2041.02721 C25.5727445,2041.21029 24.8353827,2042.25531 25.0311448,2043.35158 L26.3771299,2050.95263 C32.1221348,2083.68715 35,2104.09759 35,2112 C35,2112.82754 35.5096578,2113.56962 36.2820418,2113.86669 C41.3903534,2115.83143 48.2291653,2115.94678 56.7377675,2114.66571 C60.2977234,2114.12972 64.0032413,2113.37528 68.2243448,2112.36965 L69.1368935,2112.1503 C69.7183974,2112.00933 70.2992096,2111.86641 70.9064018,2111.71501 L77.7611496,2109.97077 L78.609,2109.76 L78.5288192,2110.01057 C77.5252649,2113.22631 77.3020047,2116.67417 78.0634454,2119.62476 C79.409074,2124.83907 83.5703022,2128 90,2128 L90.3062383,2127.99756 C98.9203666,2127.85951 102.314399,2121.86261 100.501784,2111.25961 L100.384,2110.605 L126.351581,2105.96886 C127.373362,2105.78639 128.085757,2104.85261 127.991786,2103.81893 L127.892387,2102.77515 C126.400519,2087.80497 122.702195,2080 116,2080 C113.751273,2080 111.867154,2080.51487 109.413634,2081.59005 L107.500596,2082.44707 C105.680111,2083.24995 105.310433,2083.32603 104.795907,2083.2143 C103.990411,2083.03939 103.015811,2081.72288 101.897367,2078.36754 C100.252026,2073.43152 101.775577,2071.89267 106.508377,2071.68553 C107.589502,2071.63821 108.682024,2071.67698 110.109109,2071.78998 L111.876225,2071.94139 L112.317008,2071.97403 C112.584029,2071.99139 112.802149,2072 113,2072 C118.102336,2072 121,2067.81449 121,2059 C121,2055.19709 120.609278,2052.22674 119.573067,2046.81377 L118.878474,2043.17158 C118.835404,2042.93327 118.794445,2042.701 118.748201,2042.4351 C118.245121,2039.54239 118,2037.26276 118,2035 C118,2033.89543 117.104569,2033 116,2033 Z M112.787081,2037.01226 L114.056,2037.005 L114.057265,2037.02617 C114.151797,2038.71209 114.363475,2040.45818 114.693107,2042.44793 L114.941727,2043.88031 L115.838033,2048.59 C116.651924,2052.95516 116.975811,2055.55571 116.998686,2058.64165 L117,2059 C117,2065.85218 115.513049,2068 113,2068 L112.837874,2067.99641 C112.744501,2067.9928 112.632042,2067.98641 112.497699,2067.97708 L110.887591,2067.84057 C109.083272,2067.68665 107.732424,2067.62813 106.333478,2067.68935 C99.2368071,2067.99995 95.4874673,2071.78696 98.1026334,2079.63246 C99.6243241,2084.19753 101.377029,2086.56511 103.947093,2087.1232 L104.224559,2087.18133 C105.785738,2087.49381 106.411265,2087.32512 109.692704,2085.85032 L110.597302,2085.44178 C112.809465,2084.43962 114.305272,2084 116,2084 L116.144285,2084.00313 C119.693081,2084.15734 122.480942,2090.0213 123.806233,2102.1579 L123.827,2102.356 L97.6484187,2107.03114 C96.5189972,2107.23283 95.7903917,2108.34129 96.0531657,2109.45808 L96.2297931,2110.23422 C98.3563189,2119.91755 96.2742876,2124 90,2124 C85.3790649,2124 82.8224075,2122.05792 81.9365546,2118.62524 C81.1211616,2115.4656 81.8686455,2111.261 83.7364863,2107.99228 C84.5622085,2106.54726 83.3647266,2104.78473 81.7171573,2105.0201 L81.3710797,2105.07294 C80.2409925,2105.25596 78.7688107,2105.59161 76.4576066,2106.17391 L71.3480475,2107.47934 C70.3649802,2107.72851 69.4873938,2107.94751 68.6248647,2108.15818 L68.1944363,2108.26292 C63.6960208,2109.35351 59.8230289,2110.1561 56.1422325,2110.71029 L55.5233967,2110.80129 C48.7540731,2111.77269 43.2362364,2111.76465 39.1432179,2110.60576 L38.974,2110.555 L38.963933,2110.25604 C38.6136684,2101.04275 35.7120043,2080.96823 30.2500383,2049.87982 L29.324,2044.643 L31.070431,2044.35965 C60.295393,2039.65285 87.5346667,2037.2043 112.787081,2037.01226 Z" id="01"></path>
        </g>
    </g>
</svg>