<?xml version="1.0" encoding="UTF-8"?>
<svg width="95px" height="83px" viewBox="0 0 95 83" version="1.1" xmlns="http://www.w3.org/2000/svg" xmlns:xlink="http://www.w3.org/1999/xlink">
    <!-- Generator: sketchtool 60.1 (101010) - https://sketch.com -->
    <title>22321685-0BDF-4956-91B7-A2B20BAAF3F3</title>
    <desc>Created with sketchtool.</desc>
    <g id="XS" stroke="none" stroke-width="1" fill="none" fill-rule="evenodd">
        <g id="Initial" transform="translate(-97.000000, -2026.000000)" fill="#010F24" fill-rule="nonzero">
            <path d="M187.625776,2026.03532 L185.906652,2026.35525 C171.768646,2028.92775 148.390788,2031.81484 115.804857,2035.00954 C114.66441,2035.12135 113.850905,2036.16663 114.022569,2037.29961 L114.342097,2039.44366 C115.781703,2049.27315 116.5,2056.63668 116.5,2061.5 C116.5,2063.96984 116.311624,2065.74057 115.977633,2066.74254 L115.939407,2066.85245 L115.903,2066.947 L115.474429,2066.877 C112.021987,2066.34543 107.669838,2066.50187 104.367544,2067.60263 C99.025606,2069.38328 96.4252056,2073.49359 98.0704724,2079.52623 C99.2306327,2083.78016 100.913002,2086.02618 103.569625,2086.41312 L104.058307,2086.47764 C105.507491,2086.64021 106.168863,2086.36776 110.206391,2084.55884 C112.621868,2083.47664 114.235771,2083 116,2083 C119.78465,2083 122.761795,2089.84743 124.007519,2104.17326 C124.084501,2105.05856 124.736387,2105.78689 125.607768,2105.96116 L127.561318,2106.34618 C134.994437,2107.7885 140.515091,2108.5895 144.163126,2108.74811 C146.325343,2108.84212 147.899643,2108.72102 149.003911,2108.31419 C150.796316,2107.65383 151.629708,2106.01419 150.872849,2104.28476 L150.788854,2104.10557 C149.854008,2102.23588 149.372036,2098.44895 149.948782,2095.94972 C150.559994,2093.30114 151.936795,2092.52878 155.257219,2093.85695 L156.577193,2094.38894 C159.00649,2095.37721 160.22334,2095.93503 161.153925,2096.49179 L161.433264,2096.66398 C162.900407,2097.5998 163.247732,2098.40174 163.581416,2101.62114 L164.009926,2106.19901 C164.129201,2107.39176 165.263703,2108.21241 166.433861,2107.95237 C172.220912,2106.66636 180.04118,2106.34052 189.866962,2106.99557 C191.113297,2107.07866 192.129995,2106.01162 191.986818,2104.77075 L188.986818,2078.77075 C188.80983,2077.23686 187.035257,2076.47356 185.8,2077.4 L185.623559,2077.52804 C183.984213,2078.67724 182.547047,2078.54045 180.794724,2076.94911 L180.587,2076.755 L180.714986,2076.97101 C178.222236,2072.81643 177.503945,2069.73043 178.065285,2067.48507 C178.457018,2065.91814 179.450667,2064.76992 181.1094,2063.6641 C181.293748,2063.5412 181.41295,2063.55954 181.948417,2064.01851 C182.871287,2064.80954 183.986602,2066.44534 185.211146,2068.89443 C186.111775,2070.69569 188.809459,2070.18667 188.991786,2068.18107 C190.333547,2053.4217 190.669295,2039.9918 189.996921,2027.88906 C189.929818,2026.68121 188.814127,2025.80897 187.625776,2026.03532 Z M186.116,2030.382 L186.122045,2030.50825 C186.527382,2039.76641 186.349631,2049.8118 185.587844,2060.64339 L185.496,2061.911 L185.376059,2061.77587 C183.288457,2059.45672 181.140535,2058.83594 178.8906,2060.3359 L178.445979,2060.64258 C173.147618,2064.42552 171.930212,2070.10432 177.285014,2079.02899 C177.369146,2079.16921 177.470158,2079.29858 177.585786,2079.41421 L177.804249,2079.628 C180.140893,2081.86497 182.679019,2082.71115 185.182272,2082.08951 L185.338,2082.047 L187.74,2102.862 L187.631019,2102.8561 C179.976133,2102.46077 173.526392,2102.68297 168.26876,2103.53247 L167.784,2103.613 L167.624091,2101.85369 L167.554154,2101.16467 C167.071908,2096.70766 166.242258,2094.93676 163.422807,2093.19022 L163.207592,2093.05923 C161.871258,2092.25972 160.289165,2091.5616 156.742781,2090.14305 C151.091124,2087.88238 147.20186,2090.06417 146.051218,2095.05028 L145.974586,2095.40831 C145.426893,2098.17617 145.733466,2101.69496 146.574657,2104.30623 L146.718,2104.727 L146.704383,2104.72851 C146.18231,2104.77609 145.494441,2104.79132 144.657628,2104.7641 L144.047281,2104.73803 C140.719933,2104.56466 135.657344,2103.82876 128.893121,2102.52941 L127.853,2102.327 L127.73756,2101.20444 C126.156459,2086.579 122.503884,2079 116,2079 C113.669424,2079 111.678816,2079.55167 109.02036,2080.70981 L107.098966,2081.56309 C105.089205,2082.44522 104.703887,2082.53613 104.146148,2082.45489 C103.462128,2082.35526 102.71671,2081.3601 101.929528,2078.47377 C100.879098,2074.62219 102.194222,2072.54344 105.632456,2071.39737 C108.504954,2070.43987 112.670683,2070.37374 115.607768,2070.96116 C117.620367,2071.36368 119.073386,2070.1044 119.772367,2068.00746 C120.271709,2066.50943 120.5,2064.36349 120.5,2061.5 L120.498752,2061.13213 C120.465529,2056.17824 119.768719,2049.01968 118.410915,2039.62696 L118.288,2038.784 L124.34239,2038.17872 C151.83398,2035.3936 172.131226,2032.84738 185.256029,2030.53525 L186.116,2030.382 Z" id="02"></path>
        </g>
    </g>
</svg>