<?xml version="1.0" encoding="UTF-8"?>
<svg width="92px" height="87px" viewBox="0 0 92 87" version="1.1" xmlns="http://www.w3.org/2000/svg" xmlns:xlink="http://www.w3.org/1999/xlink">
    <!-- Generator: sketchtool 61 (101010) - https://sketch.com -->
    <title>59DD93DC-F132-4149-90A8-74F74CEAFC5D</title>
    <desc>Created with sketchtool.</desc>
    <g id="XS" stroke="none" stroke-width="1" fill="none" fill-rule="evenodd">
        <g id="Initial" transform="translate(-173.000000, -2001.000000)">
            <g id="03-Face" transform="translate(173.826915, 2000.514841)">
                <path d="M16.0263556,5.37779856 C18.0599555,5.36339856 20.1039553,5.14339858 22.1175552,5.62819855 C25.094515,6.16195852 28.0281149,5.71075854 30.9809147,5.32595857 C33.8897145,4.94755859 36.8313143,5.22435857 39.7585142,5.14515858 C42.223314,5.07795858 44.7074855,4.49475885 47.1730854,4.48515885 C51.8522851,4.46755886 56.5137132,5.01075858 61.1937129,5.01715858 C61.3537129,5.01715858 61.5137129,5.04115858 61.6729129,5.03475858 C62.6697128,4.99475859 63.0441128,5.38275856 63.3273128,6.4507585 C64.6953127,11.6171582 66.3817126,16.6875579 68.6993124,21.5203576 C69.7665124,23.7459575 70.6361123,26.0483573 71.5145123,28.3491572 C71.7387623,28.9364072 71.5594185,29.0863134 71.0793131,29.0243154 L70.9793123,29.0091572 C69.9700324,28.8369972 68.9525604,28.6991412 67.9498341,28.4997428 L67.2009125,28.3371572 C64.7009127,27.7427572 62.2945128,28.3443572 59.900113,28.8747572 C58.6236093,29.1574831 58.3003676,30.4231445 59.1111217,31.4401802 L59.209713,31.556357 C59.448113,31.821157 59.568913,32.062757 59.528113,32.404357 C59.105713,35.8779567 59.240113,39.3683565 59.224913,42.8531563 C59.221713,43.5779563 58.980113,43.7387563 58.3545131,43.5555563 L57.4337315,43.2825244 C55.3951801,42.6618883 53.432322,41.9031738 52.0417134,40.0979565 C51.8305134,39.8227565 49.8393136,39.8355565 49.6601136,40.1195565 C49.4273136,40.4891565 49.5545136,40.8515564 49.7321136,41.2091564 C50.2873135,42.3195564 51.2361135,43.0459563 52.2609134,43.6347563 C53.1753134,44.1598763 54.1098733,44.6498602 55.0495596,45.1304554 L56.9313131,46.0867561 C57.2401131,46.2443561 57.6041131,46.4307561 57.9265131,46.4043561 C59.082513,46.3075561 59.064913,46.9747561 59.064113,47.833156 L59.0608908,50.2156633 C59.0594463,54.1865334 59.1007797,58.1567554 59.532113,62.1147552 C59.609713,62.8299551 59.840913,63.7547551 59.388913,64.2491551 C58.956113,64.722755 58.0633131,64.2723551 57.3705131,64.3043551 C56.6985131,64.334455 56.0179382,64.3008551 55.3641601,64.443655 L55.0857132,64.516355 C54.4281133,64.717955 54.1897133,64.430755 53.9649133,63.8763551 C53.0441134,61.5979552 52.8225134,59.1779554 52.4833134,56.7827555 C52.3177134,55.6139556 52.2425134,54.4323556 52.1233134,53.2571557 C52.0977134,53.0107557 52.1801134,52.7275557 51.9369134,52.5459558 C51.5569135,52.2611558 51.3937135,51.6003558 50.7249135,51.8115558 C50.1536564,51.9920701 50.0583584,52.494719 50.0348485,52.9595277 L50.0305135,53.0659557 C49.9281136,56.3595555 49.8577136,59.6571553 50.0281135,62.9483551 C50.1004212,64.3391243 51.0085277,64.9103668 52.2638405,64.5013523 L52.4161134,64.447555 C52.7577134,64.317955 52.8641134,64.420355 53.0017134,64.649955 C53.2457134,65.055555 52.8697134,65.063555 52.6633134,65.138755 C51.9039991,65.4130407 51.1755094,65.7521101 50.4553042,66.1089427 L48.8393136,66.9219549 C43.7187484,69.457472 43.1251487,73.5861966 45.8663664,78.4751437 L46.3296437,79.2753925 C46.7287178,79.9830671 46.5813275,79.9837748 45.3737138,80.1499541 C42.619314,80.5299541 39.9161142,81.235554 37.1281143,81.407554 C33.5653717,81.6281826 31.7252348,82.8902244 28.1730854,82.4851589 L23.1730854,82.4851589 C20.8570855,82.1691589 20.9865153,80.7683541 18.6505154,80.7651541 C17.8299821,80.7643985 17.5160908,80.5652677 17.5221609,79.7788999 L17.5265155,79.6339541 C17.6817155,76.5315543 17.5249155,73.4299545 17.4041155,70.3275547 C17.2497155,66.3483549 16.4361155,62.4603552 15.8985156,58.5347554 C15.6945156,57.0459555 15.4465156,55.5635556 15.2233156,54.0771557 C15.0433156,52.8747557 14.5465157,52.4091558 13.3401157,52.6051557 C11.9249158,52.8339557 10.5153159,53.1003557 9.09771599,53.3243557 C7.84891606,53.5227557 6.97051611,53.1595557 6.34811615,52.1043558 L6.08266431,51.6628447 C5.90624951,51.3664892 5.74144952,51.0640892 5.65131619,50.7435559 L5.3370286,49.6108012 C4.61454034,46.9657311 3.99310897,44.3020562 3.99967285,41.5195564 C4.00251629,40.4019565 4.54491626,39.5635565 5.15611622,38.7467566 C5.5225162,38.2563566 6.06171617,38.3491566 6.55131614,38.6035566 C7.08541611,38.8821566 7.48476608,39.299794 7.83725981,39.7776862 L7.98571605,39.9859565 C8.96971599,41.4147564 10.1913159,42.5683563 11.9033158,43.0675563 C13.7089157,43.5931563 14.7561156,43.0587563 15.2665156,41.2531564 C16.0206489,38.5883033 16.2737191,35.8572456 16.2071961,33.1003102 L16.1881156,32.5091569 C16.0257156,28.4803572 16.2425156,24.4435574 15.9609156,20.4187577 C15.6497156,15.9811579 15.5249156,11.5371582 15.4361156,7.09155846 C15.4305156,6.83795848 15.4601156,6.58275849 15.4729156,6.32835851 C15.3511556,5.83219854 15.3799556,5.38259856 16.0263556,5.37779856 Z" id="Path" fill="#F0BFA5"></path>
                <path d="M42.204274,19.7750777 C41.1322741,19.4630777 39.9722741,19.3670777 38.9570742,18.8446778 C38.0538743,18.3798778 37.2250743,17.7686778 36.2978744,17.3294779 C35.8546744,17.1198779 35.5594744,16.7798779 35.8858744,16.2566779 C36.1498744,15.8318779 35.8602744,15.538278 35.6834744,15.210278 C35.4586744,14.797478 35.4202744,14.352678 35.8874744,14.141478 C36.2850744,13.9630781 36.4346744,14.307878 36.6146743,14.663078 C37.3858743,16.1822779 38.7714742,16.9726779 40.3594741,17.1702779 C42.856274,17.4806778 45.2562738,17.0966779 47.2658737,15.377478 C47.4090737,15.255078 47.6098737,15.137478 47.6594737,14.978278 C48.0266737,13.7998781 48.8226736,14.130278 49.5746736,14.438278 C50.4298735,14.789478 50.5114735,15.510278 50.2954735,16.2846779 C50.0810735,17.0598779 49.6002736,17.7102778 48.8586736,17.9934778 C46.7210737,18.8094778 44.5210739,19.4190777 42.204274,19.7750777" id="Fill-102" fill="#221E1C"></path>
                <path d="M8.59451602,47.2891561 C8.18411604,47.885156 8.26651604,48.525956 8.06411605,49.085956 C7.89051606,49.5675559 7.71291607,50.2371559 7.10091611,50.0411559 C6.46891614,49.8395559 6.49051614,49.131556 6.68971613,48.573956 C6.88091612,48.037956 7.1553161,47.5227561 7.45051609,47.0331561 C7.75771607,46.5227561 7.75531607,46.1475561 7.29531609,45.6955562 C6.73291613,45.1435562 6.35291615,44.4115562 5.62331619,44.0155563 C5.4873162,43.9419563 5.38331621,43.7739563 5.4553162,43.6051563 C5.5745162,43.3267563 5.76091619,43.5523563 5.92651618,43.5539563 C6.77531613,43.5635563 7.46251608,43.8379563 8.01931605,44.5219562 C8.41051603,45.0027562 8.65371601,44.5395562 8.902516,44.2587562 C9.04491599,44.0987563 9.20411598,43.8827563 9.46331597,44.0083563 C9.67451595,44.1115563 9.69771595,44.3379562 9.56331596,44.4947562 C8.61771602,45.6011562 9.60971596,46.2915561 10.1521159,47.0115561 C10.5433159,47.5307561 10.8449159,48.077156 11.0977159,48.657956 C11.2417159,48.988356 11.2833159,49.3715559 10.9121159,49.5987559 C10.5505159,49.8203559 10.3241159,49.5147559 10.0985159,49.2971559 C9.50251596,48.723556 8.99771599,48.074756 8.59451602,47.2891561" id="Fill-108" fill="#E96A7F"></path>
                <path d="M32.7573946,58.6875554 C32.7877946,59.4235553 32.8525946,60.1619553 32.6589946,60.8827553 C32.4565946,61.6347552 31.9773946,62.1379552 31.1693947,62.1411706 C30.3637947,62.1443552 29.8621947,61.6491552 29.6629948,60.9011553 C29.5405948,60.4435553 29.4941948,59.9547553 29.4845948,59.4787553 C29.3973948,55.1995556 29.2229948,50.9195558 29.5797948,46.6435561 C29.5877948,46.5483561 29.5917948,46.4523561 29.6069948,46.3571561 C29.6989948,45.7699562 29.8197948,45.1323562 30.5677947,45.1475562 C31.3101947,45.1619562 31.4381947,45.8139562 31.5029947,46.3931561 C31.8437946,49.4395559 32.1709946,52.4875558 32.4893946,55.5371556 C32.5989946,56.5851555 32.6693946,57.6371554 32.7573946,58.6875554" id="Fill-94" fill="#221E1C"></path>
                <path d="M48.4557936,64.522675 C48.4973936,66.3426749 48.1021937,67.0522749 47.2157937,67.1370749 C46.3613938,67.2186749 45.8037938,66.5410749 45.4965938,65.189075 C44.9077939,62.5946752 45.0525938,59.9778753 45.2101938,57.3626755 C45.3277938,55.4194756 45.5173938,53.4794757 45.6869938,51.5394758 C45.7389938,50.9530758 45.8213938,50.2778759 46.5989938,50.3274759 C47.3229937,50.3738759 47.4189937,51.0226758 47.4605937,51.6210758 C47.7157937,55.2842756 47.9629937,58.9482754 48.2293937,62.6114752 C48.2845937,63.3746751 48.4077936,64.1322751 48.4557936,64.522675" id="Fill-96" fill="#221E1C"></path>
                <path d="M52.3179864,66.4792805 C51.4635865,66.5520563 50.9059865,65.9477316 50.5987865,64.7419359 C50.0099865,62.4280926 50.0154854,60.8175529 50.1730854,58.4851589 C50.2906854,56.7520952 50.0034854,54.2153686 50.1730854,52.4851589 C50.2250854,51.9621718 50.9235865,51.4432229 51.7011864,51.4874592 C52.4251864,51.5288415 52.5211864,52.1074807 52.5627864,52.6411702 C52.8179864,55.9082342 53.0651864,59.1760118 53.3315863,62.4430758 C53.3867863,63.1237439 53.5099863,63.7994175 53.5579863,64.1476 C53.5995863,65.7707864 53.2043864,66.4036507 52.3179864,66.4792805 Z" id="Fill-96" fill="#221E1C"></path>
                <path d="M37.3261143,47.925876 C37.4709143,50.6330759 37.6381143,53.3386757 37.7517143,56.0466755 C37.8221143,57.7066754 37.8581143,59.3706753 37.8229143,61.0306752 C37.7925143,62.4570752 37.2021143,63.2194751 36.2997144,63.2178776 C35.3885144,63.2162751 34.8093145,62.4450752 34.7869145,61.0282752 C34.7229145,56.9986755 34.8597145,52.9754757 35.3421144,48.970676 C35.3989144,48.497876 35.5205144,48.028276 35.6565144,47.570676 C35.8053144,47.0674761 36.0165144,46.5402761 36.6757143,46.6362761 C37.4101143,46.7434761 37.2829143,47.4218761 37.3261143,47.925876" id="Fill-98" fill="#221E1C"></path>
                <path d="M24.6449151,52.0605958 C24.6057151,50.2077959 24.5945151,48.354996 24.7849151,46.5077961 C24.8137151,46.2221961 24.824115,45.9317961 24.885715,45.6533962 C25.002515,45.1245962 25.248115,44.6477962 25.858515,44.6261962 C26.5161149,44.6029962 26.8353149,45.0613962 26.9209149,45.6509962 C27.1905149,47.5149961 27.4641149,49.3789959 27.6745149,51.2501958 C27.8521149,52.8365957 28.0369149,54.4269956 28.0001149,56.0277955 C27.9641149,57.5461955 27.3545149,58.4213954 26.358515,58.4413954 C25.326515,58.4621954 24.6857151,57.5477955 24.6529151,55.9901955 C24.6385151,55.3197956 24.6457151,54.6485956 24.6449151,53.9773957 C24.6441151,53.3389957 24.6449151,52.6997957 24.6449151,52.0605958" id="Fill-100" fill="#221E1C"></path>
                <path d="M41.1097141,50.1949959 C41.4025141,50.0245959 41.3537141,49.5733959 41.687314,49.6813959 C42.019314,49.7885959 41.848914,50.1213959 41.835314,50.3541959 C41.623314,53.9605957 41.604914,57.5661955 41.894514,61.1685952 C41.945714,61.7989952 42.109714,62.4205952 42.212914,63.0469951 C42.284114,63.4773951 42.741714,63.9461951 42.128114,64.320595 C41.3545141,64.792595 40.3169141,64.697395 39.8465142,64.1197951 C39.5329142,63.7349951 39.4225142,63.2701951 39.3521142,62.7901951 C39.0793142,60.9133953 39.2065142,59.0277954 39.2345142,57.1453955 C39.2633142,55.2293956 39.3473142,53.3149957 39.4081142,51.3997958 C39.4177142,51.1125958 39.4105142,50.8221959 39.4529142,50.5389959 C39.5217142,50.0757959 39.4929142,49.5173959 40.0801141,49.3605959 C40.7161141,49.190196 40.8473141,49.7677959 41.1097141,50.1949959" id="Fill-104" fill="#221E1C"></path>
                <path d="M22.5581952,48.726596 C22.5581952,49.8697959 22.5589952,51.0129958 22.5581952,52.1561958 C22.5581952,52.3153958 22.5669952,52.4769958 22.5429952,52.6329957 C22.4021952,53.5817957 21.7589952,54.3105956 21.0853953,54.2993956 C20.3485953,54.2865956 19.8525953,53.6513957 19.8861953,52.5265958 C19.9653953,49.8793959 20.1469953,47.2345961 20.5909953,44.6209962 C20.6901953,44.0377963 20.7437953,43.1697963 21.5853952,43.2009963 C22.4917952,43.2337963 22.3085952,44.1889962 22.3573952,44.7121962 C22.4781952,46.0409961 22.3973952,47.3873961 22.3973952,48.726596 L22.5581952,48.726596 Z" id="Fill-106" fill="#221E1C"></path>
                <path d="M65.8042726,5.39267856 C67.7698725,5.18787857 69.6874724,5.64387855 71.6210723,5.84227854 C75.0842721,6.19747851 78.5274718,6.75827848 82.0274716,6.68547849 C83.5626715,6.65347849 85.0834715,7.00067847 86.6226714,6.91747847 C87.0210713,6.89667847 87.2082713,7.06627846 87.1994713,7.48147844 C87.1570713,9.46307832 87.5258713,11.4334782 87.3602713,13.4214781 C87.3146713,13.9750781 87.2506713,14.463078 86.8218714,14.898278 C86.3066714,15.423078 86.3642714,16.0734779 86.7498714,16.6646779 C86.9898713,17.0342779 87.0850713,17.4094778 87.0458713,17.8414778 C86.6394714,22.3942775 86.7506714,26.9814773 86.1154714,31.522277 C85.9386714,32.7838769 85.9530714,34.0750769 85.9290714,35.3534768 C85.9194714,35.8726767 85.7722714,36.2582767 85.3914714,36.6166767 C83.6178715,38.2846766 81.9722716,40.0734765 80.5122717,42.0238764 C79.2194718,43.7518763 77.5378719,45.1054762 76.084272,46.6766761 C75.280272,47.545476 74.4682721,48.409476 73.7890721,49.3822759 C73.3066722,50.0758759 73.0586722,50.8230759 73.5210721,51.6246758 C73.9730721,52.4078758 74.7434721,52.5766757 75.526672,52.4046758 C78.2994719,51.7942758 81.1410717,52.1070758 83.9282715,51.7110758 C85.3162714,51.5142758 85.3034714,51.5582758 85.1442715,52.9438757 C84.5498715,58.1198754 83.9858715,63.2982751 83.5490715,68.4910748 C83.3450716,70.9126747 83.0658716,73.3262745 83.1114716,75.7638744 C83.1258716,76.5358743 83.1746716,77.2854743 83.7282715,78.2158742 C81.8146717,77.6334743 80.1970717,78.3214742 78.5298718,78.4014742 C76.458672,78.5022742 74.5994721,79.6022741 72.5546722,79.7166741 C70.3890723,79.8374741 68.3098725,80.5294741 66.0154726,80.5966741 C66.9058725,79.3742742 67.6658725,78.1982742 68.3498725,76.9758743 C70.1986723,73.6678745 69.9770724,71.4134746 67.5194725,68.5574748 C66.1890726,67.0126749 64.7482727,65.619075 62.7066728,65.056675 C62.3178728,64.948675 62.2586728,64.703075 62.2546728,64.338275 C62.1850728,57.5926755 61.8578728,50.8486759 62.0498728,44.1014763 C62.1322728,41.1918764 61.6330729,38.2966766 61.8906728,35.3838768 C61.9714728,34.4678768 62.1554728,33.5630769 62.0778728,32.6262769 C62.0322728,32.078277 62.3450728,31.742277 62.9874728,31.632677 C64.1082727,31.441477 65.1986726,31.431877 66.3194726,31.627077 C68.6394724,32.030277 70.9306723,32.6942769 73.3426722,32.250277 C75.754672,31.806277 76.331472,30.6710771 75.492272,28.3734772 C73.0986722,21.8142776 69.7314724,15.6846779 67.1506725,9.21027833 C67.0914725,9.06467834 67.0562725,8.90947835 67.0106725,8.75827836 C66.9962725,7.49747844 66.1794726,6.52387849 65.8042726,5.39267856" id="Fill-20" fill="#70F1AE"></path>
                <path d="M17.359861,0.646017057 C19.1863895,0.652707788 21.2427321,0.91435249 24.8300835,1.52777462 L27.3919815,1.97206336 C32.2497742,2.80109452 34.6073187,3.03840195 35.0357694,2.83660531 L35.063685,2.82105827 C39.0074866,0.191857205 79.9529127,0.636916184 88.8055409,3.58779226 C92.2438568,5.15229826 90.9625551,6.21670293 90.1730854,12.4851589 C89.5005069,17.8254885 89.5701944,27.6478887 89.0565692,37.1578316 C89.0449502,37.3729625 88.8780197,37.552843 88.7442318,37.7226966 L88.6386724,37.8460611 L78.759,48.485 L86.1730854,48.4851589 C87.2833053,48.4851589 88.1705045,49.3861485 88.1731823,50.4776918 L88.1680028,50.627653 L86.1680028,78.627653 C86.1096801,79.4441705 85.5610785,80.1367358 84.7928255,80.3867611 L84.6363265,80.4307713 L63.6363265,85.4307713 C61.8519555,85.8556215 60.4846269,83.8548459 61.528701,82.3467389 C66.7224519,74.8446542 66.4056377,70.7366932 60.9618351,68.5453962 L60.811,68.486 L60.0745171,68.4962201 C49.8325986,68.7079787 46.8982388,71.9706945 49.7995113,79.1874023 L50.0113755,79.6973203 C50.3974886,80.5982509 50.0737793,81.6462454 49.2468364,82.1724818 C41.3809919,87.1780192 30.1867692,87.8776582 15.7098443,84.4307713 C14.8643403,84.2294608 14.2456364,83.5051311 14.1789764,82.6385519 L13.7232561,76.8659714 C13.2998348,71.6523584 12.9147095,67.3544788 12.5681212,63.974134 L12.3496784,61.9207592 C12.0829052,59.5179608 11.8340205,57.6827443 11.6460482,56.5690077 L11.556,56.07 L10.948909,56.0916151 L9.9343198,56.134261 C8.93332879,56.1691298 8.25003282,56.1587614 7.46406727,56.0800671 C0.985950533,55.4314497 -1.56109231,50.1756584 1.2328004,39.0000876 C1.28840045,38.7776874 1.38182264,38.5665017 1.50898481,38.3757585 C4.14834388,34.4167199 7.58370649,33.7194288 11.160022,35.9999799 L11.439,36.185 L11.6812313,32.1286354 C12.5462226,17.1073369 12.7296228,7.98830412 12.2511263,5.0932674 L12.211924,4.87739112 C11.9006528,3.32103497 12.5778322,1.96575182 13.9503194,1.26388957 C14.7627902,0.848408416 15.7638169,0.671110539 17.0129825,0.648431506 L17.359861,0.646017057 Z M17.3452087,4.64523253 C16.930631,4.64523253 16.5849573,4.66486681 16.3190541,4.69785036 L16.236,4.709 L16.280454,5.06288123 C16.7654406,9.30109402 16.4585854,19.9089162 15.3820642,37.2486173 L15.168936,40.6139234 C15.053451,42.4039407 12.8219219,43.1486496 11.6545722,41.7867416 L11.2745459,41.3524715 C8.47552615,38.2238971 6.81147211,37.9783066 5.16629946,40.1319781 L5.028,40.319 L5.00411462,40.4156963 C3.87335863,45.1185234 3.84795349,48.2616191 4.63043817,50.0634732 L4.7061539,50.2284743 C5.27438254,51.401007 6.2423265,51.9377413 7.86257228,52.0999674 C8.44133011,52.1579152 8.98808425,52.1653332 9.84249069,52.134913 L11.3302816,52.0740558 C11.8157416,52.059063 12.0758759,52.0651777 12.4173014,52.0936298 C13.5552551,52.1884593 14.4406493,52.5481507 14.9619398,53.5907317 L15.0197712,53.7170861 C15.7254194,55.3887086 16.5068737,61.9719949 17.5431897,74.4891655 L18.053,80.865 L18.5755899,80.9798853 C30.0686204,83.4597361 38.9963034,83.0222498 45.3888172,79.7727243 L45.69,79.615 L45.6084028,79.3756136 C42.6240322,70.4597586 47.2628439,65.2901165 58.375612,64.5717435 L59.077,64.532 L58.246,47.069 L58.0189353,47.0025474 C55.1315091,46.1206535 52.4907273,44.5287334 50.1134803,42.2468303 L49.7588718,41.8993724 C48.9778233,41.1183238 48.9778233,39.8519939 49.7588718,39.0709453 C50.5399204,38.2898967 51.8062504,38.2898967 52.587299,39.0709453 C54.3615195,40.8451658 56.2749251,42.1125014 58.3409311,42.8888713 L59.023,32.658 L58.3842259,31.3795759 C57.8047475,30.2206025 58.464414,28.8401068 59.6992871,28.541902 L59.8442874,28.512371 C63.3900441,27.9214116 67.1683255,27.8281022 71.1768587,28.2281963 L71.307,28.242 L71.1797097,27.8022092 L71.1058328,27.5595078 C70.4945152,25.5793701 69.4347206,22.7759567 68.0290535,19.3678731 L67.0940259,17.1341145 C65.2081653,12.6891697 62.8580384,7.46198667 61.7501498,5.1337015 C61.5319408,5.13143183 61.3120054,5.12831007 61.0910534,5.12511155 L59.9013476,5.11004072 C54.4413954,5.05069341 49.1661431,5.13326326 44.9949028,5.34213967 L44.4066209,5.3728367 C40.4233465,5.589319 37.5506696,5.97047027 37.2824858,6.14925944 C35.6370792,7.2461972 33.9279265,7.15657137 27.204533,6.00036875 L23.8080243,5.41147408 C20.6627834,4.87976213 18.8246531,4.65140955 17.3452087,4.64523253 Z M66.191167,5.19175269 L66.2938402,5.4167761 C67.7608942,8.61459746 69.9269832,13.5050338 71.5202687,17.3434035 L71.9530089,18.3929728 C73.2196192,21.4868458 74.1993122,24.0826148 74.8265696,26.0563796 L74.927838,26.3795599 C75.3433768,27.7255445 75.586126,28.7658191 75.6409425,29.555675 C75.6875884,30.2278003 75.6224455,30.793749 75.3083832,31.3508594 C74.789285,32.2716802 73.817596,32.6486984 72.872363,32.4690614 L72.801,32.453 L72.1482872,32.3645236 C69.1931482,31.9860319 66.3901713,31.8912224 63.738229,32.0779882 L63.049,32.133 L63.0549498,32.2057176 L63.0510072,32.3829248 L62.1750357,45.5060171 L63.109,65.113 L63.2454063,65.1741866 C69.3752776,67.9943481 70.7400386,73.1836586 67.534932,79.9900824 L67.315,80.442 L82.283,76.879 L84.025,52.485 L74.1730854,52.4851589 C72.4781187,52.4851589 71.5733176,50.5245788 72.6080562,49.2391779 L72.7074984,49.1242567 L85.426,35.426 L85.8479758,34.2252627 C87.1730854,18.4851589 86.1730854,13.4851589 87.670538,7.42873594 L86.1730854,6.48515885 C82.9870612,5.42315078 75.8512002,5.31252397 66.191167,5.19175269 Z" id="Combined-Shape" fill="#201D1E" fill-rule="nonzero"></path>
            </g>
        </g>
    </g>
</svg>