<?xml version="1.0" encoding="UTF-8"?>
<svg width="87px" height="91px" viewBox="0 0 87 91" version="1.1" xmlns="http://www.w3.org/2000/svg" xmlns:xlink="http://www.w3.org/1999/xlink">
    <!-- Generator: sketchtool 60.1 (101010) - https://sketch.com -->
    <title>BA9E2DD2-2CCD-42C1-96A2-1B8C20540B92</title>
    <desc>Created with sketchtool.</desc>
    <g id="XS" stroke="none" stroke-width="1" fill="none" fill-rule="evenodd">
        <g id="Initial" transform="translate(-246.000000, -2025.000000)">
            <g id="04-Face" transform="translate(245.996042, 2024.999886)">
                <g id="Group-8" transform="translate(17.630117, 3.574005)" fill="#B6009C">
                    <path d="M0.441346036,15.0632281 C0.397346039,14.3168282 0.674946022,14.1760282 1.37494598,14.1743052 C7.63334561,14.1600282 13.6973452,15.4120281 19.7349449,16.883228 C23.7493446,17.861628 27.5037444,19.4224279 31.0045442,21.6240277 C32.8285441,22.7704277 34.253344,24.2952276 35.5285439,25.9976275 C35.9661439,26.5808274 36.0437439,27.2056274 35.9845439,27.9000274 C35.8677439,29.2912273 35.383744,30.5680272 34.870144,31.8504271 C33.4405441,35.4192269 33.918144,38.7368267 36.2757439,41.7800265 C38.2109438,44.2784264 40.4781436,46.4368262 43.0677435,48.2360261 C47.3069432,51.184026 49.7437431,55.2944257 50.939743,60.2216254 C51.685343,63.2920252 50.952543,64.2528252 47.8165432,64.3328252 C45.8037433,64.3840252 43.7933435,64.4856252 41.7829436,64.5784252 C38.5685438,64.7256252 35.6381439,67.375225 36.5477439,71.4736248 C36.7733439,72.4912247 37.0213439,73.4688246 37.5349438,74.4360246 C38.1949438,75.6824245 37.7725438,77.1256244 37.4677438,78.4680243 C37.0141439,80.4616242 35.6397439,81.6160242 33.845344,82.3784241 C33.4677441,82.5392241 33.1021441,83.5112241 32.7205441,83.4136241 C31.3581442,83.0640241 29.9949443,82.7192241 28.6309444,82.3752242 C27.3229444,82.0456242 26.4925445,81.3504242 26.1517445,79.9264243 C25.8117445,78.5080244 23.7490403,77.8525091 23.3738403,76.4261092 C23.0378403,75.1469093 23.0517446,72.2000247 23.6901447,70.9288248 C24.6570997,69.0033969 23.6397447,66.880825 25.1261446,65.2536251 C26.5349445,63.7112252 27.6781444,61.9856253 28.8293443,60.2488254 C30.1333443,58.2808255 30.4373442,56.1240257 30.1429443,53.9056258 C29.2413443,47.0960262 24.1373446,40.8456266 16.9781451,39.3072267 C15.8533451,39.0656267 14.7389452,38.7768267 13.6189453,38.5088267 C12.3861453,38.2144267 11.6949454,37.4512268 11.5589454,36.1760269 C11.3629454,34.331227 11.0317454,32.5112271 10.6645454,30.6904272 C10.0037455,27.4184274 8.09174558,25.0168275 5.53574573,23.0672276 C4.29094581,22.1184277 2.7725459,21.9048277 1.23814599,22.0664277 C0.563746029,22.1368277 0.414146038,21.9336277 0.445346036,21.3000277 C0.498146033,20.2464278 0.459746035,19.1888279 0.459746035,18.1336279 C0.456546035,17.109628 0.502946032,16.0832281 0.441346036,15.0632281 Z" id="Fill-22"></path>
                    <path d="M45.4355034,67.700345 C47.3155032,67.747545 48.6891032,67.781145 50.0547031,67.533145 C52.8955029,67.017945 54.5915028,64.9867451 54.5955028,62.1003453 C54.5979028,60.4107454 54.1859028,58.7987455 53.6699029,57.2171456 C52.2283029,52.7979459 49.9307031,48.9579461 46.0947033,46.1683463 C43.6083035,44.3595464 41.2195036,42.4459465 39.2427037,40.0491466 C37.3547038,37.7611468 36.8091039,35.3227469 38.0323038,32.5635471 C38.6851038,31.0899472 39.0891037,29.5523473 39.2883037,27.9515473 C39.4811037,26.4043474 39.0499037,25.0971475 38.1507038,23.8203476 C35.298704,19.7723478 31.2179042,17.413148 26.8059045,15.5891481 C22.2667047,13.7131482 17.477905,12.6963483 12.6379053,11.8707483 C8.87630553,11.2291483 5.12590576,10.6507484 1.30030598,10.7747484 C0.729906019,10.7931484 0.413106038,10.6379484 0.383506039,9.98914842 C0.281906045,7.78434855 0.147506053,5.58194868 0.00270606206,3.38034881 C-0.029293936,2.88914884 0.225906049,2.88114884 0.588306027,2.88594884 C6.1507057,2.97314884 11.7131054,3.05874883 17.269105,2.68674886 C18.080305,2.63314886 18.7939049,2.93954884 19.4347049,3.35314882 C20.3755048,3.96194878 21.3867048,4.29154876 22.4835047,4.42114875 C25.0491046,4.72514873 26.8667045,6.11074865 28.0211044,8.36594852 C29.9131043,12.0603483 33.2683041,13.3139482 37.0531039,13.8075482 C38.1867038,13.9555482 39.3555037,13.8851482 40.5059036,13.8443482 C44.7307034,13.6955482 47.5867032,15.9731481 49.9691031,19.1171479 C52.5483029,22.5227477 52.5331029,26.2107475 51.154703,30.0451472 C50.3979031,32.1515471 49.9755031,34.266747 50.4979031,36.5291468 C51.196303,39.5571467 53.1739029,41.4387465 55.7515027,42.9035465 C58.3355026,44.3723464 60.8867024,45.8923463 62.9067023,48.1539461 C64.1459022,49.5411461 64.7259022,51.138746 64.7683022,52.9611459 C64.8811022,57.7275456 65.3427022,62.4747453 65.5995022,67.233145 C65.6403021,67.985145 65.4707022,68.2451449 64.7323022,68.3283449 C63.0467023,68.5171449 61.3579024,68.6459449 59.6651025,68.7467449 C55.0699028,69.0211449 50.4747031,69.3003449 45.8843033,69.6411449 C44.0299034,69.7795449 42.2307035,70.2683448 40.4651037,70.8603448 C40.1403037,70.9691448 39.7651037,71.2283448 39.4691037,70.9659448 C39.1395037,70.6731448 39.3515037,70.2363448 39.4315037,69.8747449 C39.6859037,68.7315449 40.4467037,68.077145 41.6307036,67.933145 C43.0619035,67.757145 44.4963034,67.654745 45.4355034,67.700345" id="Fill-26"></path>
                    <path d="M64.8932622,45.3609063 C63.7332623,43.9241064 62.2420624,42.9105065 60.7724624,41.8593065 C59.5668625,40.9961066 58.3164626,40.2345066 56.9548627,39.6697067 C53.1588629,38.0953067 52.6428629,34.7193069 53.6260629,31.8521071 C54.4556628,29.4281073 55.2708628,27.0137074 55.1916628,24.3905076 C55.0612628,20.0473078 52.8484629,16.801708 49.8300631,13.9545082 C47.0212633,11.3057083 43.7092635,10.1081084 39.8460637,10.3985084 C37.7172638,10.5585084 35.6300639,10.3993084 33.6972641,9.34170846 C32.7268641,8.81050849 31.8420642,8.20970853 31.3140642,7.19450859 C30.2884643,5.2193087 28.8476643,3.6273088 26.9308645,2.47770887 C26.8324645,2.41850887 26.7588645,2.31770888 26.5244645,2.09450889 C27.4700644,2.03930889 28.2460644,1.9665089 29.0236643,1.9521089 C37.1468638,1.80250891 45.2388634,1.03530895 53.3532629,0.709708973 C56.0020627,0.60410898 58.6428626,0.308908997 61.2876624,0.114509009 C62.2220624,0.0457090131 63.1612623,0.150509007 64.0996622,0.00890901527 C64.5324622,-0.0566909808 64.7420622,0.246509001 64.8340622,0.703308974 C65.0692622,1.8673089 65.1756622,3.03530883 65.2236622,4.22250876 C65.4940622,10.8729084 65.1724622,17.520908 65.1748622,24.1697076 C65.1764622,30.4689072 65.1844622,36.7673068 65.1892622,43.0665064 C65.1900622,43.7873064 65.1892622,44.5089064 65.1892622,45.2297063 C65.0908622,45.2737063 64.9924622,45.3169063 64.8932622,45.3609063" id="Fill-30"></path>
                </g>
                <path d="M86.0037135,1.96886784 C86.4388864,29.8199386 86.7319951,49.7137899 86.8831712,61.663712 C86.9655035,62.7255593 87.0039575,63.8355713 87.0039575,65.000114 C87.0039575,65.1857742 86.9786597,65.3655257 86.9313231,65.5361096 C86.9593762,68.0054402 86.9796889,69.9995326 86.9915478,71.5177902 L86.9939594,71.8358477 L87.0039575,74.000114 C87.0039575,75.1701943 86.0039051,76.0903754 84.8378666,75.9932055 C77.7722677,75.4044056 69.6156869,75.6115978 60.3731036,76.6191647 L59.341681,76.7344105 L59.1019575,76.762114 L59.1103431,77.2194857 C59.1739822,84.4798773 56.4326599,88.9278902 50.8501545,89.89568 L50.5537148,89.9433992 L50.252027,89.9846698 C44.3059616,90.727928 39.8060376,87.0945705 36.839544,79.6441461 L36.6874726,79.2553781 L36.6729575,79.218114 L35.6540379,79.3663888 C24.0291198,81.0327389 16.2443219,81.5987787 12.1185322,81.039658 L11.8930849,81.007438 L11.6751596,80.9729019 C10.6357308,80.7996638 9.90902949,79.8496433 10.0138832,78.8011066 C10.5585545,73.3543928 11.1044323,65.8764494 11.6507602,56.3727232 L11.6989667,55.5289021 L11.8939575,52.000114 L2.00395755,52.000114 C0.36035351,52.000114 -0.540248254,50.1565566 0.350172302,48.8727744 L0.438928347,48.7541331 L0.538370563,48.6392118 L13.0599575,35.153114 L13.0990433,34.6330026 C14.301955,18.1348835 14.6221907,8.26393772 14.1036304,5.66447861 L14.0837913,5.57040866 L14.032845,5.33977872 C13.8220513,4.13064084 14.7528592,3.00011403 16.0039575,3.00011403 C34.1251355,3.00011403 55.1964894,2.11846329 79.2152108,0.354557888 L80.7523234,0.240770003 L83.8505645,0.00600505457 C84.9998067,-0.0823981908 85.9857057,0.816371217 86.0037135,1.96886784 Z M18.1312413,18.0248803 L18.1132137,18.397257 C18.0351545,20.1141027 17.9364301,21.9842816 17.8171808,24.0098569 C24.7841946,24.2168765 27.5720376,27.1283666 29.3660874,33.4422488 L29.8724957,35.3318959 C30.9373306,39.2228009 31.7990195,40.4663011 34.2078167,40.9993199 L34.3961898,41.0389527 C45.4360733,43.2469294 53.6729274,55.6022105 48.6680581,63.1095144 C46.0701085,67.0064389 43.794769,71.2320693 41.8422476,75.7879526 C41.5332862,76.5088626 40.8508865,76.9550023 40.1176797,76.9973194 C42.4941499,83.7384381 45.6729109,86.5259304 49.7558881,86.0155583 C53.2852802,85.5743843 55.0850895,83.0481223 55.1203728,77.7924968 C51.0954585,71.8282845 54.3585862,68.0895756 62.7012504,68.001698 L63.0039575,68.000114 C67.3806985,68.000114 68.9962008,66.8858983 68.8665454,64.8614398 C68.6936148,62.1612729 65.976283,57.8718328 60.9369317,52.7638579 L60.589744,52.4143276 C59.1815533,51.0061369 54.5108932,46.8654808 53.6885478,45.8864982 C51.1458289,42.8594519 51.1046888,40.0025024 53.0551752,31.550395 C54.4248479,25.6151465 43.1141324,20.6948606 18.1312413,18.0248803 Z M17.5689446,28.0059869 L17.5666975,28.034441 C17.4990463,29.0706017 17.4269541,30.1408158 17.350435,31.2452924 L17.2922158,32.0800772 L16.9984931,36.1478574 C16.9691517,36.543966 16.8226686,36.9210308 16.5795801,37.2319515 L16.4695445,37.3610162 L6.58895755,48.000114 L14.0039575,48.000114 C15.0478112,48.000114 15.897249,48.7974839 15.9946913,49.8045262 L16.003598,49.9570816 L16.0011932,50.1052317 C15.4687956,60.2207862 14.936129,68.4312932 14.4025037,74.7417208 L14.3539896,75.3101618 L14.1839575,77.211114 L14.2920917,77.2180388 C18.3257347,77.4081778 25.3137613,76.8075426 35.1357419,75.3996093 L35.7803225,75.3066428 L37.7072766,75.0222413 C37.8069686,75.0072875 37.9062788,74.9999919 38.004557,74.9999555 C38.0031017,74.7380884 38.0552097,74.4700102 38.1656675,74.2122754 C40.2131461,69.4348254 42.6044733,64.9937892 45.339857,60.8907136 C48.4648893,56.2031652 42.3327923,46.8960069 33.9099422,45.0242311 L33.6117253,44.9612754 C29.1288199,44.0646943 27.4963752,41.7605329 26.0208832,36.4094022 L25.6787191,35.1208337 C24.2869759,29.8547783 22.7870217,28.118006 17.5689446,28.0059869 Z M35.9247559,6.68456731 L34.7235263,6.71901587 C29.6621013,6.86379665 24.7864702,6.9526541 20.0965884,6.98557865 L18.3465896,6.99530348 L18.2509575,6.99511403 L18.2725536,7.38065191 C18.3474224,8.93342275 18.3530669,10.9706419 18.290324,13.5045973 L18.276,14.018 L19.04197,14.0998621 C46.2253185,17.0547896 59.1873571,22.7664921 56.9527399,32.449833 L56.6927011,33.5948211 C55.305049,39.8174983 55.3733272,41.6085273 56.6734692,43.2191626 L56.7513673,43.3137299 C57.3476886,44.0236362 61.8263618,47.9940911 63.4181711,49.5859005 L64.1722932,50.3504483 C69.5936193,55.9247264 72.6134302,60.7813013 72.8583672,64.6057858 C73.1604023,69.3218093 69.5353411,71.9084143 63.3383897,71.9977208 L63.0039575,72.000114 C60.1494208,72.000114 58.3581257,72.3859949 57.6842829,72.90143 C66.6652627,71.819822 74.7137636,71.447985 81.8354891,71.7894074 L82.685648,71.8338019 L82.9929575,71.852114 C82.976896,69.631171 82.9407382,66.2888507 82.8845127,61.8256905 C82.5088237,57.1744987 81.2017458,53.6989114 78.4422199,50.2495041 L78.2322438,49.9973799 C77.4796663,49.1300226 76.5157685,48.3985389 74.5253913,47.0960342 L73.4384361,46.385348 C70.6886971,44.56611 69.4346088,43.4902511 68.3523336,41.7410262 C66.7946968,39.2234991 66.6456025,36.2317501 68.0059357,32.6205254 L68.1470042,32.2573327 C69.6242443,28.5642323 68.7881164,25.1152045 66.217515,22.0304828 C65.2006186,20.8102071 63.9623251,19.7303 62.7264808,18.9270013 C62.2121148,18.5926634 61.7279927,18.3272309 61.330424,18.1540961 C61.2492662,18.1187532 61.1746146,18.0885629 61.1079073,18.0637084 L60.9239575,18.000114 L59.3211131,17.9952762 C55.9135918,17.9728194 54.1820051,17.8638167 52.3742176,17.4985301 L52.1721738,17.456715 C49.0173929,16.7885745 46.88848,15.3200548 46.1344769,12.7462603 L46.0636725,12.4851853 C45.6271634,10.7391488 42.4638853,8.72615366 36.4292618,6.9157666 C36.2466752,6.86099062 36.0777182,6.78246004 35.9247559,6.68456731 Z M82.0369575,4.15511403 L79.4705087,4.34658091 C67.4005121,5.23263933 56.0683864,5.89684607 45.473779,6.33912532 C47.8585878,7.7762799 49.3362031,9.40523988 49.8852463,11.2965749 L49.9442425,11.5150428 C50.4240665,13.4343384 53.0955072,14.000114 61.0039575,14.000114 C63.0017576,14.000114 66.7776481,16.4544429 69.2904001,19.4697452 C72.6598787,23.5131195 73.8822885,28.3413052 71.9915807,33.4049746 L71.8609109,33.7428954 C70.034144,38.3098127 70.9875905,39.9875353 75.9975828,43.2806001 L77.0710487,43.9825102 C79.3693626,45.5004945 80.4806844,46.3944605 81.5656952,47.7507239 C81.9756379,48.2631524 82.3588258,48.7769388 82.7164212,49.2942025 C82.7089065,48.7933514 82.7015576,48.2846326 82.6941768,47.7684259 L82.6830572,46.9885474 L82.0369575,4.15511403 Z" id="Combined-Shape" fill="#010F24" fill-rule="nonzero"></path>
            </g>
        </g>
    </g>
</svg>