<?xml version="1.0" encoding="UTF-8"?>
<svg width="87px" height="91px" viewBox="0 0 87 91" version="1.1" xmlns="http://www.w3.org/2000/svg" xmlns:xlink="http://www.w3.org/1999/xlink">
    <!-- Generator: sketchtool 60.1 (101010) - https://sketch.com -->
    <title>420167DD-84AB-42BA-AB76-8883A1A684FB</title>
    <desc>Created with sketchtool.</desc>
    <g id="XS" stroke="none" stroke-width="1" fill="none" fill-rule="evenodd">
        <g id="Initial" transform="translate(-246.000000, -2025.000000)" fill="#010F24" fill-rule="nonzero">
            <path d="M329.846607,2025.00589 L326.748366,2025.24066 C302.090521,2027.08043 280.506735,2028 262,2028 C260.748902,2028 259.818094,2029.13053 260.028888,2030.33966 L260.079834,2030.57029 C260.626101,2033.01809 260.313034,2042.92854 259.095086,2059.63289 L259.056,2060.153 L246.534413,2073.6391 L246.434971,2073.75402 C245.400232,2075.03942 246.305033,2077 248,2077 L257.89,2077 L257.695009,2080.52879 C257.132586,2090.4347 256.570617,2098.19408 256.009926,2103.80099 C255.905072,2104.84953 256.631773,2105.79955 257.671202,2105.97279 L257.889127,2106.00732 C261.953355,2106.61925 269.809886,2106.06348 281.65008,2104.36627 L282.669,2104.218 L282.683515,2104.25526 C285.64734,2111.96787 290.199486,2115.74063 296.248069,2114.98456 L296.549757,2114.94329 C302.331652,2114.08298 305.171141,2109.60714 305.106386,2102.21937 L305.098,2101.762 L305.337723,2101.7343 C315.006042,2100.62792 323.506621,2100.38248 330.833909,2100.99309 C331.999948,2101.09026 333,2100.17008 333,2099 L332.990002,2096.83573 C332.930011,2088.66461 332.600045,2065.38724 331.999756,2026.96875 C331.981748,2025.81626 330.995849,2024.91749 329.846607,2025.00589 Z M325.466551,2029.34647 L328.033,2029.155 L328.6791,2071.98843 C328.855065,2084.33588 328.958431,2092.62497 328.989,2096.852 L328.68169,2096.83369 C321.109668,2096.40555 312.468075,2096.80093 302.751931,2098.01544 C301.687697,2098.14847 300.917841,2099.09728 301.006908,2100.16609 C301.594731,2107.21996 299.825167,2110.50629 295.751931,2111.01544 C291.543921,2111.54145 288.296355,2108.56451 285.897367,2101.36754 C285.590041,2100.44557 284.664417,2099.87796 283.703319,2100.02213 L281.776365,2100.30653 C271.615027,2101.78094 264.409465,2102.4122 260.288134,2102.21792 L260.18,2102.211 L260.350032,2100.31005 C260.899888,2093.92704 261.448705,2085.5272 261.997236,2075.10512 L261.999641,2074.95697 C261.977749,2073.8791 261.096046,2073 260,2073 L252.585,2073 L262.465587,2062.3609 C262.774468,2062.02826 262.961003,2061.60044 262.994536,2061.14774 L263.288258,2057.07996 C264.145285,2044.87065 264.478184,2036.72737 264.268596,2032.38054 L264.247,2031.995 L264.342632,2031.99519 C282.023443,2031.92307 302.397262,2031.03998 325.466551,2029.34647 Z" id="04"></path>
        </g>
    </g>
</svg>