<?xml version="1.0" encoding="UTF-8"?>
<svg width="111px" height="84px" viewBox="0 0 111 84" version="1.1" xmlns="http://www.w3.org/2000/svg" xmlns:xlink="http://www.w3.org/1999/xlink">
    <!-- Generator: sketchtool 60.1 (101010) - https://sketch.com -->
    <title>84EAE568-7C7B-4590-AA03-3C1D451D9C82</title>
    <desc>Created with sketchtool.</desc>
    <g id="XS" stroke="none" stroke-width="1" fill="none" fill-rule="evenodd">
        <g id="Initial" transform="translate(-35.000000, -2102.000000)" fill="#010F24" fill-rule="nonzero">
            <path d="M125.648419,2102.03114 L97.6484187,2107.03114 C96.5877209,2107.22056 95.8677228,2108.2162 96.020101,2109.28284 L96.1320294,2110.09565 C97.7400897,2122.24179 95.2739287,2126.1456 88.5881717,2124.08844 C83.3677906,2122.48217 80.9497889,2119.91145 80.6143836,2116.6692 C80.3363513,2113.98156 81.5435851,2110.77208 83.5617376,2108.24939 C84.7872095,2106.71755 83.3042837,2104.52065 81.4253042,2105.08435 C68.3146668,2109.01754 53.5344918,2110.65978 37.0799361,2110.0016 C35.8457042,2109.95223 34.8622342,2111.02239 35.0154442,2112.24807 L44.0154442,2184.24807 C44.1486425,2185.31366 45.0995887,2186.08386 46.1695997,2185.9928 L48.685996,2185.78333 C78.7248423,2183.33959 103.078755,2183.40911 121.726725,2185.98124 C123.270755,2186.19421 124.433753,2184.64634 123.850769,2183.24106 L123.756477,2183.03594 C122.862966,2180.97272 123.985627,2171.2107 127.236638,2154.95245 L127.374,2154.265 L127.462621,2154.31749 C135.702523,2159.1928 141.82656,2158.56467 144.827623,2151.81228 L144.963636,2151.49555 C148.893414,2142.01311 139.309851,2134.28981 127.326941,2134.66527 L126.939,2134.68 L126.986425,2134.51421 C128.831404,2127.83084 129.14345,2117.63821 127.993092,2103.83391 C127.895232,2102.6596 126.808447,2101.824 125.648419,2102.03114 Z M124.179,2106.356 L124.226017,2107.0056 L124.320399,2108.40577 C125.177474,2121.79974 124.432494,2131.10246 122.172377,2136.18772 C121.525317,2137.64361 122.757275,2139.23471 124.328798,2138.97279 C135.412447,2137.12551 144.233482,2143.30024 141.172377,2150.18772 C139.147909,2154.74278 134.919875,2154.74278 127.13842,2149.35562 C125.960269,2148.53997 124.331801,2149.19157 124.041479,2150.59479 L123.479841,2153.339 C120.686146,2167.14772 119.35515,2176.27283 119.539541,2181.27917 L119.557,2181.666 L119.058642,2181.60616 C100.545682,2179.40167 76.988297,2179.46791 48.3687885,2181.79592 L47.746,2181.847 L39.275,2114.077 L40.2736986,2114.10188 C53.5997485,2114.38957 65.8638621,2113.16246 77.0635598,2110.41569 L77.77,2110.239 L77.7584343,2110.26667 C76.8393,2112.48892 76.4040849,2114.84266 76.6356164,2117.0808 C77.1480904,2122.03471 80.7468932,2125.86081 87.4118283,2127.91156 L87.7249694,2128.00536 C97.3803445,2130.818 101.613498,2124.60982 100.299375,2111.34331 L100.223,2110.634 L124.179,2106.356 Z" id="05"></path>
        </g>
    </g>
</svg>