<?xml version="1.0" encoding="UTF-8"?>
<svg width="71px" height="99px" viewBox="0 0 71 99" version="1.1" xmlns="http://www.w3.org/2000/svg" xmlns:xlink="http://www.w3.org/1999/xlink">
    <!-- Generator: sketchtool 60.1 (101010) - https://sketch.com -->
    <title>F1BE9301-61E8-4241-B7E3-9F53074EF938</title>
    <desc>Created with sketchtool.</desc>
    <g id="XS" stroke="none" stroke-width="1" fill="none" fill-rule="evenodd">
        <g id="Initial" transform="translate(-121.000000, -2089.000000)" fill="#010F24" fill-rule="nonzero">
            <path d="M147.687,2103.233 L147.562119,2103.27678 C146.11968,2103.73903 143.248033,2103.63154 139.100444,2102.90415 L138.039823,2102.71054 C137.613788,2102.63023 137.167474,2102.5434 136.675524,2102.44543 L131.336137,2101.37546 C130.017361,2101.12432 129.645992,2101.08871 128.747314,2101.00359 C127.556706,2100.89083 126.650821,2100.9205 125.886547,2101.17891 C124.521353,2101.6405 123.745752,2102.87091 124.01994,2104.30481 L124.086082,2104.60632 C124.305039,2105.76189 124.153623,2109.1818 123.588093,2116.7676 L122.861624,2126.32343 C122.65403,2129.19886 122.545263,2131.05787 122.478631,2132.85614 L122.454352,2133.59881 C122.414339,2135.03068 122.426044,2136.14321 122.497523,2136.96265 C122.553137,2137.60021 122.643813,2138.09735 122.817642,2138.52845 C123.264566,2139.63684 124.383753,2140.43549 125.731615,2139.86407 L125.894427,2139.78885 C126.203439,2139.63435 127.617204,2139.31838 129.175733,2139.14382 C131.266319,2138.90968 133.410754,2138.91706 135.304858,2139.22421 C140.002614,2139.98601 142.357839,2142.27128 142.005891,2146.84661 C141.486208,2153.60248 136.904804,2154.32586 125.971286,2148.25169 C124.683287,2147.53613 123.089973,2148.41168 123.003451,2149.88256 L121.003451,2183.88256 C120.939164,2184.97545 121.765509,2185.91692 122.857506,2185.99492 L127.318335,2186.3061 C162.386249,2188.69165 182.616057,2188.5815 188.812277,2185.82762 C189.485793,2185.52828 189.940089,2184.88277 189.994536,2184.14774 L190.155084,2181.94686 C192.670331,2146.91943 192.616459,2120.85404 189.976743,2103.69589 C189.878105,2103.05474 189.474635,2102.50125 188.894427,2102.21115 C186.340159,2100.93401 182.762101,2101.07558 177.582905,2102.16742 L177.107642,2102.26928 C176.47505,2102.40702 175.829495,2102.55584 175.120509,2102.72653 L170.219973,2103.95184 L169.217317,2104.19075 C168.499259,2104.35624 167.917922,2104.47568 167.421202,2104.55846 L167.074,2104.611 L167.066551,2104.73824 C167.275277,2101.65257 167.093414,2099.66566 165.953339,2097.35879 C164.432895,2094.28227 161.432302,2091.84726 156.683486,2090.12041 C147.774461,2086.88077 144.660627,2092.05985 147.581994,2102.85372 L147.687,2103.233 Z M155.316514,2093.87959 C159.153834,2095.27498 161.337412,2097.04697 162.367361,2099.13101 C163.075337,2100.56355 163.226,2101.89447 163.098134,2104.11083 L163.010489,2105.50327 C163.001749,2105.68949 163,2105.81747 163,2106 C163,2107.50814 164.069477,2108.41595 165.434422,2108.62852 C166.150446,2108.74003 166.992206,2108.68514 168.078798,2108.50404 L168.594387,2108.41205 C169.129538,2108.31076 169.727979,2108.18075 170.431102,2108.01506 L171.89658,2107.65651 L174.735071,2106.94029 C175.98407,2106.62804 176.99252,2106.38807 177.958684,2106.1777 L178.393901,2106.08454 C181.839146,2105.36007 184.407954,2105.13576 186.049279,2105.45082 L186.198,2105.482 L186.258161,2105.90559 C188.608838,2122.72678 188.582781,2147.99763 186.164783,2181.6683 L186.099,2182.564 L186.015767,2182.58937 C179.34504,2184.5244 159.891372,2184.4886 128.30101,2182.36306 L125.112,2182.143 L126.814,2153.203 L127.067858,2153.32623 C138.3423,2158.74369 145.24555,2156.88465 145.994109,2147.15339 C146.525931,2140.23971 142.506657,2136.33982 135.945142,2135.27579 L135.590816,2135.22188 C132.777572,2134.82127 129.404844,2134.97553 126.919729,2135.41236 L126.434,2135.503 L126.433153,2135.39563 C126.427708,2134.83576 126.437443,2134.1683 126.462236,2133.39797 L126.518393,2131.97956 C126.572818,2130.79287 126.650021,2129.49435 126.765532,2127.82361 L127.291493,2120.8043 L127.728151,2115.04055 C128.099647,2109.91841 128.239953,2107.06655 128.162179,2105.29745 L128.143,2104.966 L129.166374,2105.06974 C129.605597,2105.12533 130.094219,2105.20842 131.060104,2105.39662 L135.898952,2106.36933 C136.6553,2106.51994 137.30996,2106.64554 137.951176,2106.76215 L138.804497,2106.9132 C145.514886,2108.06682 149.450264,2107.88873 151.561738,2105.24939 C151.977188,2104.73008 152.107326,2104.03822 151.90896,2103.40345 C150.387102,2098.5335 150.092058,2095.28802 150.788854,2093.89443 C151.206788,2093.05856 152.40456,2092.86241 155.047389,2093.78371 L155.316514,2093.87959 Z" id="06"></path>
        </g>
    </g>
</svg>