<?xml version="1.0" encoding="UTF-8"?>
<svg width="89px" height="98px" viewBox="0 0 89 98" version="1.1" xmlns="http://www.w3.org/2000/svg" xmlns:xlink="http://www.w3.org/1999/xlink">
    <!-- Generator: sketchtool 60.1 (101010) - https://sketch.com -->
    <title>108268C2-6623-4552-A6FA-3C9803318C61</title>
    <desc>Created with sketchtool.</desc>
    <g id="XS" stroke="none" stroke-width="1" fill="none" fill-rule="evenodd">
        <g id="Initial" transform="translate(-187.000000, -2089.000000)">
            <g id="07-Face" transform="translate(186.999905, 2089.000000)">
                <path d="M14.4640843,42.9648736 C13.6392844,43.0480736 12.8048844,43.0800736 11.9912845,43.2288736 C10.8840846,43.4320736 9.81208462,43.7624736 9.06008467,44.6992735 C8.42488471,45.4904735 8.40488471,46.4784734 9.01048467,47.2616734 C9.14728466,47.4392734 9.31208465,47.6584733 9.55528464,47.5512734 C9.79288463,47.4472734 9.61128464,47.2232734 9.59688464,47.0456734 C9.54568464,46.3640734 9.86088462,45.8816735 10.4520846,45.5736735 C11.0888845,45.2416735 11.7792845,45.1320735 12.4888845,45.1120735 C13.9096844,45.0728735 15.2808843,45.2688735 16.6144842,45.8000735 C17.4720842,46.1416734 18.2064841,45.8232735 18.4528841,45.1264735 C18.6928841,44.4496735 18.3016841,43.7224736 17.4944842,43.3864736 C17.2616842,43.2896736 17.0080842,43.2376736 16.7576842,43.1888736 C16.0024843,43.0416736 15.2384843,42.9952736 14.4640843,42.9648736 L14.4640843,42.9648736 Z" id="Path" fill="#FADA37"></path>
                <path d="M56.5304818,44.5040735 C56.4784818,44.3664735 56.4048818,44.0856736 56.2704819,43.8392736 C54.7752819,41.0936737 50.3008822,40.4640738 48.0984823,42.6832736 C47.8032824,42.9816736 47.5520824,43.3168736 47.4112824,43.7120736 C47.2640824,44.1248736 47.2360824,44.5504735 47.6536824,44.8312735 C48.0328823,45.0848735 48.3680823,44.9224735 48.6960823,44.6616735 C50.7000822,43.0688736 52.6648821,43.2536736 54.255282,45.1552735 C54.434482,45.3696735 54.663282,45.5776735 54.9128819,45.6928735 C55.6928819,46.0544734 56.5184818,45.5056735 56.5304818,44.5040735 L56.5304818,44.5040735 Z" id="Path" fill="#FADA37"></path>
                <path d="M34.8000831,63.5376724 C36.792083,63.3184724 38.7192829,62.4760725 40.4488828,61.1448725 C41.3784827,60.4296726 41.6496827,59.5664726 41.1552828,58.8528727 C40.6256828,58.0888727 39.7384828,58.0432727 38.7136829,58.7888727 C37.754483,59.4864726 36.726483,60.0560726 35.6760831,60.5984726 C34.6240831,61.1416725 33.5544832,61.2128725 32.4304833,60.8840726 C31.5392833,60.6240726 30.6960834,60.2480726 29.8512834,59.8712726 C29.3904835,59.6664726 28.8920835,59.5536726 28.5720835,60.0664726 C28.2736835,60.5464726 28.5816835,60.9184726 28.9488835,61.2144725 C30.6024834,62.5496725 32.4448833,63.4280724 34.8000831,63.5376724 L34.8000831,63.5376724 Z" id="Path" fill="#FADA37"></path>
                <path d="M31.2416833,39.2312738 C31.2416833,38.1432739 31.2464833,37.056074 31.2392833,35.968074 C31.2360833,35.4976741 31.1536834,35.0256741 30.5808834,34.9592741 C29.9616834,34.8872741 29.7680834,35.3496741 29.6552834,35.847274 C29.5984834,36.096874 29.5416834,36.348074 29.5184834,36.601674 C29.2256835,39.8520738 28.6024835,43.0560736 28.1920835,46.2904734 C27.8864835,48.6976733 27.7432836,51.1208731 27.2376836,53.509673 C26.8296836,55.4368729 27.6824836,56.3200728 29.6424834,56.3816728 C30.5352834,56.4088728 31.4328833,56.4768728 32.3136833,56.6184728 C34.4088832,56.9576728 36.526483,56.8144728 38.6296829,56.9736728 C39.3672829,57.0296728 39.9536828,56.6976728 40.1736828,55.9456729 C40.3832828,55.2248729 40.0320828,54.7176729 39.4480829,54.3272729 C39.0984829,54.092073 38.7472829,53.948073 38.3032829,53.916873 C35.8640831,53.749673 33.4032832,54.048073 30.9776834,53.524073 C30.4680834,53.413673 30.3712834,53.310473 30.4296834,52.816073 C30.9624834,48.3040733 31.0288834,43.7624736 31.2416833,39.2312738 L31.2416833,39.2312738 Z" id="Path" fill="#FADA37"></path>
                <path d="M76.1696807,44.0128736 C75.8744807,44.7768735 75.2008807,45.2496735 74.7312808,45.8808735 C74.3024808,46.4584734 73.8760808,47.0312734 74.1984808,47.8016733 C74.5232808,48.5800733 75.2520807,48.6296733 75.9496807,48.7600733 C76.4368807,48.8512733 77.2192806,48.4384733 77.2480806,49.4200732 C77.2704806,50.1864732 76.6512806,50.7536732 75.7312807,50.7792732 C75.2248807,50.7928732 74.7168808,50.7192732 74.2104808,50.6800732 C73.8360808,50.6504732 73.4848808,50.6736732 73.4160808,51.1408731 C73.3536808,51.5680731 73.6424808,51.6792731 73.9944808,51.7344731 C74.2480808,51.7744731 74.4624808,51.8624731 74.5816808,52.1480731 C75.1040807,53.393673 75.9808807,53.772873 77.1904806,53.304073 C79.2288805,52.5144731 80.2024804,49.6688732 79.0736805,47.8160733 C78.6416805,47.1064734 77.9640806,46.7864734 77.0416806,46.6184734 C77.8576806,45.4648735 78.6888805,44.5336735 79.8624804,43.8592736 C80.3760804,43.5640736 80.4632804,42.7984736 80.3768804,42.1616737 C80.2936804,41.5536737 79.9072804,41.2280737 79.2912805,41.1440737 C78.3880805,41.0200737 77.5448806,41.3848737 76.5576806,41.4888737 C77.5488806,39.5928738 78.7176805,38.0560739 80.8672804,37.6096739 C83.0152803,37.163274 84.9792801,38.3896739 85.2536801,40.5880738 C85.5176801,42.7048736 85.6984801,44.9104735 85.0736801,46.9728734 C84.2872802,49.5664732 83.5576802,52.1920731 82.4600803,54.6856729 C82.0536803,55.6096729 81.5048804,56.3864728 80.6736804,57.0064728 C79.7504805,57.6944727 78.8576805,57.7296727 77.9104806,57.1792728 C76.7776806,56.5200728 76.1032948,57.7064 75.0000949,57 C74.1168949,56.4336 72.9872948,56.0056 72.0000949,56 C71.3848949,55.9968 70.613681,54.8008729 70.256881,55.4144729 C69.2536811,57.1408728 68.9080811,58.9776727 69.0264811,60.9384726 C69.0440811,61.2240725 69.0592811,61.5312725 68.9760811,61.7968725 C68.0640812,64.7240723 68.1808811,67.7216721 68.2936811,70.728072 C68.3480811,72.1640719 68.2688811,73.6032718 68.0632812,75.0336717 C67.7792812,77.0104716 67.9992812,79.0064715 68.1616811,80.9600714 C68.4168811,84.0248712 68.4144811,87.088871 68.5352811,90.1512708 C68.2520811,90.9248708 68.1712811,91.7280707 68.1936811,92.5456707 C64.9656813,92.6640707 61.7384815,92.8152707 58.5096817,92.8936706 C46.1632825,93.1904706 33.8152832,93.4192706 21.4712839,93.7688706 C16.8664842,93.9000706 12.2544845,93.6648706 7.65688475,94.0680706 C6.8936848,94.1352706 6.12248484,94.1496706 5.36488489,94.2568706 C4.65688493,94.3568706 4.25928496,94.1824706 4.25048496,93.3976706 C4.22888496,91.3592707 4.15048496,89.3208709 4.16088496,87.283271 C4.22888496,73.1416718 4.42568495,59.0000727 4.31768495,44.8576735 C4.31208495,44.0480736 4.46248494,43.6672736 5.37128489,43.6144736 C6.18648484,43.5672736 6.98248479,43.2360736 7.79368474,43.0536736 C12.0544845,42.0944737 16.1392842,40.6704738 19.996084,38.5912739 C22.4168839,37.285674 25.1584837,36.662474 27.5120836,35.2040741 C30.0912834,33.6048742 32.7232833,32.0872743 35.1616831,30.2624744 C36.1072831,29.5544744 36.528883,28.4280745 37.472083,27.7200745 C38.0136829,27.3144746 38.2632829,27.3200746 38.6560829,27.8528745 C40.6992828,30.6264744 43.0480826,33.1072742 45.8760825,35.0960741 C51.3912821,38.9768739 57.1040818,42.4928737 63.7320814,44.1720736 C66.3296813,44.8296735 68.9520811,44.9096735 71.5824809,44.1640736 C72.4104809,43.9296736 73.3728808,44.3200735 74.1688808,43.7360736 C74.2048808,43.7104736 74.3232808,43.7240736 74.3288808,43.7416736 C74.7568808,45.1824735 75.5344807,43.9144736 76.1368807,43.9768736 L76.1696807,44.0128736 Z" id="Path" fill="#FADA37"></path>
                <path d="M43.0000949,2.27373675e-13 C53.1490737,2.27373675e-13 58.9336574,9.15574026 53.1162101,16.0326706 L52.9180949,16.26 L53.9536734,16.0422088 L55.5660102,15.6875302 L55.5660102,15.6875302 L56.9463523,15.375044 L63.3563199,13.8988062 C64.2414853,13.6993747 64.9301266,13.5494176 65.5479308,13.4218504 L66.1467776,13.3007432 L67.42159,13.0603605 L68.0875454,12.9477141 C68.8269486,12.8297644 69.4366169,12.7591481 69.934103,12.7378071 C70.4309159,12.7164949 70.8461501,12.7396476 71.2380848,12.8395455 C72.1906742,13.0823452 73.0000949,13.7748402 73.0000949,15 L72.990052,15.2223422 C72.9726481,15.5069077 72.9338395,16.0105007 72.8832286,16.6308772 L72.3976239,22.2721499 L72.1999524,24.6693284 L72.0859582,26.1876769 L72.0859582,26.1876769 L71.9846632,27.6522214 L71.8960679,29.0696344 L71.8311322,30.2367132 C71.6618242,33.4793451 71.6181675,36.1733422 71.7231839,38.2202979 C71.7692711,39.1186197 71.8438046,39.8719954 71.9428109,40.4595049 L71.9840949,40.692 L72.0412382,40.645723 C72.1618974,40.5426559 72.2919485,40.4241148 72.4366632,40.2854304 L72.747206,39.97982 L72.9200696,39.8042773 L74.4306203,38.2416632 C77.5075696,35.1690812 80.1267746,33.9340415 83.6325504,35.1026334 C87.5268217,36.4007238 88.871196,40.9227104 88.3677882,46.7958023 C87.9607165,51.5449712 86.3408349,56.4876871 84.4143084,58.4142136 C82.1104247,60.7180973 78.3556179,61.0564802 73.1718928,59.7293634 L72.6480949,59.59 L72.4802309,60.8619858 C71.0586623,71.8762834 70.8217896,82.1648206 71.7659909,91.7281358 L71.8716746,92.7500017 L71.9863961,93.7663175 C72.1262769,94.9553043 71.1972816,96 70.0000949,96 L68.1296459,96.0034943 C64.112156,96.0182322 59.647991,96.079491 54.5249763,96.1853815 L49.4678048,96.2989918 L45.7236945,96.3928511 L19.4740075,97.1110595 C8.19668898,97.3892547 4.38368741,97.3705535 2.2701075,97.0731394 L2.03635631,97.038052 L1.60786259,96.9611614 C0.605615256,96.7607119 -0.084227749,95.8368267 0.00830845206,94.8189285 L0.105663454,93.667537 C0.410515296,89.7970687 0.630234042,84.3868522 0.776238892,77.7577798 L0.832477443,74.9459914 L0.872108292,72.5957891 L0.924196269,68.7457298 C0.953504343,66.1861292 0.972478995,63.6147549 0.984126633,60.8756974 L0.996478631,56.6218601 L1.01130202,18.2192137 L1.001116,18.0686529 C0.957010857,16.851447 2.0165862,15.861497 3.24816433,16.0154442 L4.06838174,16.1198929 L12.8879279,17.2986091 L13.7171768,17.3986896 C14.7733593,17.5210468 15.6417553,17.5998071 16.4440958,17.6438059 L17.0353678,17.6704253 L17.5690409,17.6841434 L18.1826462,17.6880372 C20.6381592,17.6777647 23.183613,17.3457889 28.5851182,16.2770835 L29.0419142,16.1863104 L31.8940949,15.605 L31.8352183,15.4840236 C27.7950857,6.99152475 32.6174502,0.293616632 42.351085,0.009396664 L42.6667719,0.00245867824 L43.0000949,2.27373675e-13 Z M37.188,28.69 L37.1180259,28.7593818 C31.2215876,34.4462616 20.6571818,39.707483 5.37755712,44.6576011 L5.002,44.778 L4.99518772,57.3112809 C4.98594794,61.7982723 4.96232463,65.7321564 4.91331068,69.6832156 L4.87161749,72.658641 L4.80350776,76.5037112 L4.73734438,79.474957 C4.61877185,84.2915242 4.45829129,88.4227095 4.24979919,91.7509767 L4.21816452,92.2441802 L4.15009486,93.23 L4.72545118,93.2580557 C6.85631832,93.3415511 10.4503871,93.3142947 16.89316,93.1684711 L19.3176063,93.1113369 L42.3287185,92.4818487 L51.964255,92.2397439 L56.577068,92.1439766 C58.9448472,92.0992827 61.169668,92.0648441 63.2748675,92.0408714 L64.8317029,92.0248575 L67.7730949,92.005 L67.6862156,91.0678753 C66.7976568,81.1421296 67.1276498,70.501772 68.6725727,59.147341 L68.842749,57.9280624 L69.0222222,56.7033191 C69.2064803,55.4749315 70.4541624,54.7098374 71.6325504,55.1026334 L72.3826478,55.3452203 C77.2907441,56.8823167 80.3482842,56.8233835 81.5858813,55.5857864 C82.6968549,54.4748129 84.0484018,50.3508621 84.3824016,46.4541977 C84.743913,42.2365638 83.9033681,39.4092762 82.3676393,38.8973666 C80.710793,38.3450845 79.3558709,38.9761256 77.2661462,41.0628777 L76.9834417,41.349526 L76.9834417,41.349526 C77.5110638,41.2658221 78.0385186,41.164896 78.5662339,41.0476259 C80.6678287,40.5806048 81.9223834,43.3082836 80.2000949,44.6 C79.1374623,45.3969745 78.4187267,46.0967345 78.0451605,46.6531528 L77.912,46.866 L78.0488888,46.9668327 C81.7970263,49.7775048 80.6992676,52.9788732 75.5837131,53.92794 L75.3288928,53.9727878 C74.2393522,54.154378 73.2088971,53.4183386 73.027307,52.328798 C72.8457169,51.2392573 73.5817562,50.2088023 74.6712969,50.0272122 L75.0290372,49.9634982 L75.287,49.911 L74.9711034,49.7149859 C74.6449404,49.5192881 74.3813462,49.2346387 74.2112405,48.8944272 C73.6973738,47.8666939 73.6437187,46.8449374 73.9911398,45.8232429 L74.047,45.668 L73.8928095,45.6755223 C64.8641074,46.0291291 55.9683468,42.373608 46.3706725,35.6526148 L45.8367409,35.2760785 L45.3234916,34.906439 L44.4115163,34.2336061 C42.9895998,33.1739707 41.1625262,31.7725622 39.5567902,30.5304602 L37.188,28.69 Z M43.0000949,4 C34.8861817,4 31.9255267,8.78259651 36.6641955,15.8905996 C37.449057,17.0678919 36.7966945,18.6656093 35.4121158,18.9570996 L31.9970293,19.6685292 C24.056323,21.300187 21.0224088,21.7240721 17.6921089,21.6862323 L17.205365,21.6773735 C16.0284241,21.6474825 14.8341369,21.5542611 13.2911827,21.3763052 L12.4130014,21.2707064 L11.5251795,21.1569266 L5.01009486,20.276 L5.00526293,40.5714849 C20.4513262,35.4941404 30.6369362,30.1481548 35.5052762,24.6712723 C36.1579404,23.9370251 37.2392562,23.7910336 38.0584019,24.3028389 L38.2270816,24.4222166 L41.9359853,27.3133529 C44.1502823,29.0268223 46.7828993,31.0420105 48.1526981,32.0147378 C55.1442652,36.9796193 61.6316474,40.1788523 67.9608339,41.2703374 C67.5238224,38.9453071 67.5478511,35.4482908 67.8105914,30.4817553 L67.9029911,28.8343946 L67.9464737,28.1183802 C67.9915517,27.3972234 68.0414158,26.6602036 68.0960675,25.9033976 L68.2117546,24.3622417 L68.3402111,22.7613484 L68.8510949,16.877 L68.5913411,16.9183436 L68.072324,17.0074475 L67.3537421,17.1409746 L66.8023517,17.2488304 C66.5219883,17.304878 66.231388,17.3648035 65.9159962,17.4317503 L64.8808909,17.6567968 L57.130504,19.435565 C53.7130665,20.20993 51.6586814,20.6197313 50.0662044,20.8171362 L49.8694853,20.8407165 L49.2906506,20.9005322 L48.8406055,20.9375602 C47.0373692,21.0643741 46.11886,20.8267572 45.5350432,19.434817 C44.9119426,17.9492163 45.4788182,17.0674228 47.0686365,15.905912 L47.4536004,15.6325035 L48.1523276,15.1573065 C51.3148747,12.9462636 52.1037229,10.4293921 50.9612405,8.14442719 C49.75959,5.74112632 46.6255627,4 43.0000949,4 Z" id="Shape" fill="#010F24" fill-rule="nonzero"></path>
                <path d="M19.2263241,20.213115 C23.4351238,20.136315 27.5767236,19.598715 31.7159233,18.9467151 C33.0839232,18.7315151 34.4543232,18.7099151 35.8295231,18.8851151 C36.1119231,18.9211151 37.0000949,16 35.8679231,13.0283154 C34.7357513,10.0566308 34.5407232,10.5595156 34.2871232,9.16351564 C34.0879232,8.0707157 34.4039232,7.12271576 35.2367231,6.3891158 C36.747923,5.05711588 38.5783229,4.28031593 40.3983228,3.49231598 C40.8191228,3.31071599 42.3919227,2.89871601 42.9055227,2.84191602 C44.9663225,2.61391603 47.0439224,2.68111603 48.9751223,3.37631598 C50.9999222,4.10671594 51.8655221,5.94511583 52.3535221,7.92511571 C52.8823221,10.0755156 52.5775221,12.0803155 51.2055222,13.8867154 C50.4903222,14.8275153 49.8551222,15.8275152 49.1495223,16.7755152 C48.7815223,17.2691152 48.5351223,17.7627151 48.7959223,18.3659151 C49.0671223,18.9931151 49.5927223,19.269115 50.2543222,19.273915 C51.8591221,19.284315 53.459922,19.169115 55.0023219,18.7075151 C56.5463218,18.2443151 58.1183217,18.0123151 59.7167216,17.8907151 C60.2239216,17.8523151 60.7631216,17.8219151 61.2231216,17.6315151 C63.5863214,16.6531152 66.1543213,16.5707152 68.5855211,15.8907152 C70.189521,15.4411153 70.227921,15.5339153 70.167121,17.1739152 C69.931121,23.5019148 69.3111211,29.8115144 69.2423211,36.146714 C69.2263211,37.6171139 69.2535211,39.0939139 69.3799211,40.5571138 C69.4455211,41.3227137 69.0895211,41.3355137 68.5623211,41.2987137 C65.5783213,41.0947137 62.7407215,40.2803138 59.9863216,39.1715139 C54.099122,36.802714 48.7239223,33.5491142 43.8551226,29.4971144 C41.8703227,27.8443145 40.1871228,25.8411146 38.0167229,24.3859147 C37.182323,23.8267148 36.839923,23.8259148 36.355123,24.6603147 C36.0543231,25.1779147 35.5807231,25.4955147 35.1079231,25.8219146 C32.8471233,27.3795146 30.5887234,28.9411145 28.3279235,30.4979144 C25.6887237,32.3147143 23.1799238,34.3235141 20.035124,35.3115141 C18.5527241,35.7771141 17.1559242,36.547514 15.7615243,37.258714 C12.5511245,38.8963139 8.98552467,39.5435138 5.68472487,40.9307137 C4.60712493,41.3835137 4.50952494,41.2227137 4.55512494,40.0707138 C4.76872492,34.6715141 5.05032491,29.2715144 4.92872492,23.8651148 C4.90552492,22.8147148 4.74632493,21.7627149 4.59592494,20.719515 C4.41592495,19.463515 4.41672495,19.434715 5.72472487,19.476315 C6.39672483,19.498715 7.06712479,19.540315 7.73832475,19.573915 C11.5727245,19.688315 15.3719243,20.284315 19.2263241,20.213115 Z" id="Fill-24" fill="#E96A7F"></path>
                <path d="M31.2414433,39.2308738 C31.0286434,43.7628736 30.9622434,48.3036733 30.4294434,52.815673 C30.3710434,53.310073 30.4678434,53.414073 30.9774434,53.523673 C33.4030432,54.047673 35.8638431,53.749273 38.3030429,53.917273 C38.7470429,53.947673 39.0982429,54.092473 39.4486429,54.3268729 C40.0318428,54.7180729 40.3838428,55.2244729 40.1734428,55.9452729 C39.9542428,56.6972728 39.3670429,57.0300728 38.6294429,56.9740728 C36.526243,56.8140728 34.4086432,56.9580728 32.3134433,56.6188728 C31.4326433,56.4764728 30.5350434,56.4092728 29.6422434,56.3812728 C27.6830436,56.3204728 26.8294436,55.4372729 27.2374436,53.510073 C27.7430436,51.1212731 27.8870435,48.6972733 28.1918435,46.2900734 C28.6022435,43.0564736 29.2254435,39.8516738 29.5190434,36.602074 C29.5414434,36.348474 29.5982434,36.096474 29.6558434,35.847674 C29.7678434,35.3492741 29.9614434,34.8876741 30.5814434,34.9588741 C31.1542434,35.0252741 31.2358433,35.4972741 31.2390433,35.968474 C31.2462433,37.055674 31.2414433,38.1436739 31.2414433,39.2308738" id="Fill-86" fill="#222115"></path>
                <path d="M34.8000031,63.5375124 C32.4448033,63.4279124 30.6024034,62.5503125 28.9496035,61.2151125 C28.5824035,60.9183126 28.2736035,60.5463126 28.5720035,60.0671126 C28.8920035,59.5535126 29.3904035,59.6663126 29.8512034,59.8711126 C30.6960034,60.2479126 31.5392033,60.6239126 32.4304033,60.8847126 C33.5544032,61.2127125 34.6240031,61.1415125 35.6760031,60.5983126 C36.726403,60.0559126 37.754403,59.4871126 38.7144029,58.7887127 C39.7384028,58.0431127 40.6256028,58.0887127 41.1552028,58.8535127 C41.6504027,59.5671126 41.3784027,60.4295126 40.4496028,61.1447125 C38.7192029,62.4759125 36.792003,63.3183124 34.8000031,63.5375124" id="Fill-88" fill="#222115"></path>
                <path d="M56.5304818,44.5039935 C56.5184818,45.5055935 55.6928819,46.0543934 54.9128819,45.6927935 C54.663282,45.5775935 54.434482,45.3703935 54.255282,45.1551935 C52.6648821,43.2535936 50.7000822,43.0695936 48.6960823,44.6615935 C48.3680823,44.9223935 48.0328823,45.0847935 47.6536824,44.8311935 C47.2360824,44.5503935 47.2640824,44.1247936 47.4112824,43.7119936 C47.5520824,43.3167936 47.8032824,42.9815936 48.0984823,42.6839936 C50.3008822,40.4639938 54.7752819,41.0935937 56.2704819,43.8391936 C56.4048818,44.0863936 56.4784818,44.3663935 56.5304818,44.5039935" id="Fill-90" fill="#222115"></path>
                <path d="M14.4640843,42.9648736 C15.2384843,42.9952736 16.0024843,43.0416736 16.7576842,43.1888736 C17.0080842,43.2376736 17.2616842,43.2896736 17.4944842,43.3864736 C18.3016841,43.7224736 18.6928841,44.4496735 18.4528841,45.1264735 C18.2064841,45.8232735 17.4720842,46.1416734 16.6144842,45.8000735 C15.2808843,45.2688735 13.9096844,45.0728735 12.4888845,45.1120735 C11.7792845,45.1320735 11.0888845,45.2416735 10.4520846,45.5736735 C9.86088462,45.8816735 9.54568464,46.3640734 9.59688464,47.0456734 C9.61128464,47.2232734 9.79288463,47.4472734 9.55528464,47.5512734 C9.31208465,47.6584733 9.14728466,47.4392734 9.01048467,47.2616734 C8.40488471,46.4784734 8.42488471,45.4904735 9.06008467,44.6992735 C9.81208462,43.7624736 10.8840846,43.4320736 11.9912845,43.2288736 C12.8048844,43.0800736 13.6392844,43.0480736 14.4640843,42.9648736" id="Fill-92" fill="#222115"></path>
            </g>
        </g>
    </g>
</svg>