<?xml version="1.0" encoding="UTF-8"?>
<svg width="89px" height="98px" viewBox="0 0 89 98" version="1.1" xmlns="http://www.w3.org/2000/svg" xmlns:xlink="http://www.w3.org/1999/xlink">
    <!-- Generator: sketchtool 60.1 (101010) - https://sketch.com -->
    <title>2E98BFC9-FE02-4F66-8794-6C01B9B80E02</title>
    <desc>Created with sketchtool.</desc>
    <g id="XS" stroke="none" stroke-width="1" fill="none" fill-rule="evenodd">
        <g id="Initial" transform="translate(-187.000000, -2089.000000)" fill="#010F24" fill-rule="nonzero">
            <path d="M230,2093 C233.625468,2093 236.759495,2094.74113 237.961146,2097.14443 C239.103628,2099.42939 238.31478,2101.94626 235.152233,2104.15731 L234.453506,2104.6325 C232.572976,2105.93534 231.863917,2106.83494 232.534948,2108.43482 C233.165471,2109.93811 234.186378,2110.09501 236.290556,2109.90053 L236.86939,2109.84072 C238.489754,2109.65325 240.570578,2109.2422 244.130409,2108.43557 L251.880796,2106.6568 C252.892876,2106.43244 253.625159,2106.28037 254.353647,2106.14097 L255.072229,2106.00745 L255.591246,2105.91834 L255.851,2105.877 L255.340116,2111.76135 L255.21166,2113.36224 C255.109934,2114.67046 255.021509,2115.91645 254.946379,2117.11838 L254.902896,2117.83439 C254.281669,2128.37941 254.515995,2132.94685 257.367544,2133.89737 C258.820043,2134.38153 260.131042,2133.91473 261.44328,2132.8503 C261.796758,2132.56357 262.147805,2132.23803 262.56657,2131.81732 L263.399102,2130.95703 C263.661126,2130.68387 263.926985,2130.40684 264.039293,2130.29204 C266.259381,2128.02271 267.651525,2127.32536 269.367544,2127.89737 C270.903273,2128.40928 271.743818,2131.23656 271.382307,2135.4542 C271.048307,2139.35086 269.69676,2143.47481 268.585786,2144.58579 C267.28631,2145.88526 263.980345,2145.88526 258.632456,2144.10263 C257.454067,2143.70984 256.206385,2144.47493 256.022127,2145.70332 L255.842654,2146.92806 C254.15268,2158.74083 253.765828,2169.78764 254.686121,2180.06788 L254.773,2181.005 L251.831608,2181.02486 C247.993769,2181.05997 243.755898,2181.13206 238.96416,2181.23974 L229.328624,2181.48185 L206.317511,2182.11134 C197.816712,2182.31868 193.586951,2182.35666 191.290633,2182.23847 L191.15,2182.23 L191.21807,2181.24418 C191.484705,2177.18458 191.675846,2171.86123 191.803413,2165.50371 L191.871523,2161.65864 C191.972918,2155.1663 192,2149.09578 192,2141 L192.01,2109.276 L198.525085,2110.15693 L199.412907,2110.27071 C201.399182,2110.51827 202.81434,2110.64205 204.20527,2110.67737 L204.503155,2110.6836 C208.351146,2110.7469 211.676477,2110.21721 222.412021,2107.9571 C223.7966,2107.66561 224.448962,2106.06789 223.664101,2104.8906 C218.925432,2097.7826 221.886087,2093 230,2093 Z M191.068287,2105.11989 C190.766001,2105.08087 190.489624,2105.04564 190.248069,2105.01544 C189.016491,2104.8615 187.956916,2105.85145 188.001021,2107.06865 L188.011207,2107.21921 L187.996384,2145.62186 C187.986239,2151.5133 187.9528,2156.42218 187.872013,2161.59579 L187.832383,2163.94599 C187.676109,2172.585 187.408667,2179.41394 187.008214,2183.81893 C186.915677,2184.83683 187.60552,2185.76071 188.607768,2185.96116 L189.036261,2186.03805 C191.533597,2186.43726 196.355944,2186.39985 214.848596,2185.89004 L232.7236,2185.39285 L236.46771,2185.29899 C244.66182,2185.10168 251.279564,2185 257,2185 C258.197187,2185 259.126182,2183.9553 258.986301,2182.76632 L258.87158,2181.75 C257.806286,2171.89879 258.007797,2161.26965 259.480136,2149.86199 L259.648,2148.59 L259.770232,2148.624 C265.162015,2150.07254 269.051256,2149.77717 271.414214,2147.41421 C273.34074,2145.48769 274.960622,2140.54497 275.367693,2135.7958 C275.871101,2129.92271 274.526727,2125.40072 270.632456,2124.10263 C267.12668,2122.93404 264.507475,2124.16908 261.430525,2127.24166 L259.919975,2128.80428 L259.747111,2128.97982 C259.469429,2129.25918 259.242242,2129.47394 259.041143,2129.64572 L258.984,2129.692 L258.980983,2129.67201 C258.862788,2129.05807 258.774937,2128.23091 258.723089,2127.2203 C258.605718,2124.93252 258.674059,2121.83651 258.895973,2118.06963 L258.984568,2116.65222 C259.047865,2115.69231 259.119628,2114.70098 259.199857,2113.66933 L259.397529,2111.27215 C259.574514,2109.25311 260,2104.43691 260,2104 C260,2102.77484 259.190579,2102.08235 258.23799,2101.83955 C257.846055,2101.73965 257.430821,2101.71649 256.934008,2101.73781 C256.294383,2101.76525 255.469314,2101.87414 254.421495,2102.06036 L253.146683,2102.30074 C252.172442,2102.49349 251.117808,2102.72336 249.400897,2103.11573 L243.946257,2104.37504 C242.811825,2104.63424 241.823139,2104.85509 240.953578,2105.04221 L239.918,2105.26 L239.93627,2105.24035 C246.049977,2098.34164 240.251494,2089 230,2089 L229.666677,2089.00246 C219.722087,2089.14978 214.751549,2095.90021 218.835123,2104.48402 L218.894,2104.605 L216.041819,2105.18631 C209.861476,2106.41959 207.301982,2106.7291 204.568946,2106.68414 L204.035273,2106.67043 C202.869892,2106.62967 201.624359,2106.51567 199.887833,2106.29861 L191.068287,2105.11989 Z" id="07"></path>
        </g>
    </g>
</svg>