<?xml version="1.0" encoding="UTF-8"?>
<svg width="75px" height="56px" viewBox="0 0 75 56" version="1.1" xmlns="http://www.w3.org/2000/svg" xmlns:xlink="http://www.w3.org/1999/xlink">
    <!-- Generator: sketchtool 60.1 (101010) - https://sketch.com -->
    <title>AB3B2274-73C4-45B8-B5CE-8BB1871B7922</title>
    <desc>Created with sketchtool.</desc>
    <g id="XS" stroke="none" stroke-width="1" fill="none" fill-rule="evenodd">
        <g id="Initial" transform="translate(-267.000000, -2129.000000)">
            <g id="08-Face" transform="translate(267.000000, 2129.000000)">
                <path d="M31.7096637,2.93111357 C34.3696635,3.23831355 37.0800634,3.19911355 39.6600632,4.0647135 C40.9520631,4.49831347 42.2992631,4.52231347 43.638463,4.62071347 C47.8840627,4.93271345 52.1448625,5.33431342 56.3424622,4.31991348 C58.4120621,3.81991351 60.544062,3.89991351 62.5976618,3.40071354 C63.2056618,3.25271355 63.2824618,4.19191349 63.8896618,3.95351351 C63.9032618,4.1151135 63.9168618,4.27671349 63.9304618,4.43831348 C59.847262,4.40871348 56.7352622,6.56631335 53.7432624,8.97751321 C52.6760624,9.83671316 52.4136625,11.0223131 52.6272624,12.381513 C51.6016625,12.164713 50.9184625,11.780713 50.7584626,10.7519131 C50.6712626,10.1871131 50.4888626,9.63271317 50.3024626,9.0895132 C50.0728626,8.42151324 49.6000626,7.99351327 48.8640627,8.06231326 C48.1392627,8.13031326 47.5936627,8.62551323 47.6256627,9.31031319 C47.6896627,10.6847131 47.0216628,10.9207131 45.8208628,11.0079131 C43.532063,11.1751131 41.3352631,11.738313 39.7352632,13.5799129 C39.4144632,13.3335129 39.4240632,13.025513 39.3200632,12.771113 C38.2632633,10.1847131 36.6912634,8.11751326 33.9144636,7.16551331 C32.8000636,6.78391334 31.7560637,6.19911337 30.6560637,5.7687134 C28.6240639,4.97431345 26.618464,4.84071345 24.7016641,6.13831338 C24.4168641,6.33111336 24.0552641,6.40711336 23.7376642,6.55271335 C22.0160643,7.3391133 20.8912643,8.58071323 20.7336643,10.5423131 C20.7215755,10.6866687 20.635531,10.8822242 20.8070317,10.9845803 L20.8721858,11.0126205 L20.9070299,11.1184611 C20.9818163,11.4526491 20.7369443,11.705513 20.6080643,11.979113 C20.1992644,12.846313 19.7056644,13.6783129 19.3544644,14.5679129 C18.7384645,16.1295128 18.7888645,17.6687127 19.6136644,19.1879126 C22.1976643,23.9495123 27.4208639,26.1943122 32.4736636,24.6695123 C34.6384635,24.0151123 36.1648634,22.6279124 37.2968634,20.6775125 C37.7104633,19.9631126 38.2944633,19.1943126 39.3128632,19.1319126 C39.6992632,19.1087126 39.9408632,18.8375126 40.1784632,18.5775126 C40.7184631,17.9903127 41.2536631,17.3991127 41.7896631,16.8079127 C43.444863,14.9839128 45.6680629,14.9039129 47.8888627,14.8319129 C48.2184627,14.8207129 48.3912627,15.0615128 48.5184627,15.3407128 C50.2864626,19.2063126 52.0232625,23.0863124 54.0688624,26.8183121 C54.5816623,27.7543121 54.5104623,27.7823121 53.4320624,27.7439121 C52.1536625,27.6991121 50.8856625,27.4751121 49.6008626,27.5511121 C47.9008627,27.6503121 46.9216628,28.421512 47.0168628,29.617512 C47.1128628,30.8295119 48.1776627,31.4175119 49.8760626,31.2463119 C51.3760625,31.0959119 52.8824624,31.1623119 54.3792623,31.3007119 C55.1792623,31.3743119 55.9760622,31.4087119 56.7744622,31.3743119 C58.5376621,31.2991119 59.175262,30.1263119 58.4000621,28.546312 C57.2752622,26.2543122 55.8592622,24.1255123 54.7080623,21.8511124 C54.4936623,21.4279125 54.1808623,21.0159125 54.2760623,20.4231125 C54.9696623,21.9719124 56.5192622,22.4671124 57.7224621,23.3735123 C58.0760621,23.6399123 58.4856621,23.9231123 58.9048621,23.9935123 C60.060862,24.1863123 61.0784,26.0376001 61,27 C60.3616,34.8295995 59.764862,41.5239113 60.000062,49.3567108 C60.016862,49.9463108 60.4368,51.0024 60,51 C58.1136001,50.9888 53.8863999,50.9808 52,51 C38.0496008,51.14 25.776864,50.6519107 11.8312649,50.9671107 C11.5424649,50.9735107 11.2552649,50.9791107 10.9672649,50.9815107 C10.372065,50.9879107 10.052865,51.1303107 10.140865,50.1015108 C10.348865,47.6327109 10.9184649,45.197511 10.8768649,42.7071112 C10.8576649,41.5775113 11.1288649,40.4879113 11.3376649,39.3879114 C11.7088649,37.4303115 11.5504649,35.4895116 10.9608649,33.6039117 C10.223265,31.2495119 8.43766507,32.7471119 6.54966519,34.3215118 C6.08406521,34.7103118 5.65126524,35.1423118 5.23446526,35.5831117 C4.74246529,36.1039117 4.53846531,35.9391117 4.38086531,35.3207118 C4.06566533,34.0839118 3,34 3,30 C3,27.3600124 3.46480003,24.5991998 4,22 C4.24559999,20.8056001 6.52326519,19.4695126 7.09606515,18.3935126 C7.72886511,17.2055127 9.04086504,17.1743127 9.709665,18.3551126 C10.165665,19.1607126 10.5056649,20.0303125 10.9272649,20.8559125 C11.1440649,21.2807125 11.3776649,21.7135124 11.6880649,22.0703124 C12.7888648,23.3359124 14.4744647,23.2463124 15.4720647,21.8967124 C16.1224646,21.0167125 16.3168646,19.9751126 16.4880646,18.9303126 C16.9032646,16.4063128 17.3032645,13.8807129 17.4336645,11.3215131 C17.4528645,10.9367131 17.4768645,10.5439131 17.6960645,10.2127131 C19.1312644,8.03991326 20.6304643,5.93351339 23.0392642,4.69511346 C24.0136641,4.19351349 24.9928641,3.76711352 26.109664,3.68231352 C27.5136639,3.57671353 28.9008639,3.33831354 30.2792638,3.04631356 C30.7448637,2.94791357 31.2424637,2.87751357 31.7096637,2.93111357 Z M33.9896635,32.5575118 C33.5984636,32.6247118 33.3776636,32.8919118 33.2672636,33.2463118 C33.0744636,33.8623117 33.2136636,34.4519117 33.4800636,35.0111117 C34.6328635,37.4367115 36.2368634,39.3527114 38.9536633,40.1495113 C40.1992632,40.5143113 41.4528631,40.6487113 42.992863,40.7543113 C44.5248629,40.7879113 46.3016628,40.6071113 48.0472627,40.1823113 C49.7088626,39.7783114 50.9936625,38.8359114 51.8808625,37.3663115 C52.4936624,36.3535116 52.4096625,35.1207116 51.6824625,34.2415117 C51.5680625,34.1023117 51.4328625,33.9999117 51.2832625,34.0847117 C50.4952626,34.5311117 49.4992626,34.6431117 48.9872627,35.5399116 C48.4688627,36.4503116 47.5992627,36.8047115 46.6192628,36.9887115 C44.8208629,37.3287115 43.007263,37.4447115 41.1824631,37.3767115 C39.4872632,37.3127115 37.9968633,36.7711115 36.8760634,35.4191116 C36.2056634,34.6111117 35.3608635,33.9519117 34.8808635,32.9807118 C34.7160635,32.6471118 34.3824635,32.4903118 33.9896635,32.5575118 Z M26.306304,8.52559323 C26.584704,8.58239323 26.879904,8.56399323 27.3751039,8.59199323 C28.9999038,8.45759324 30.6935037,8.83519321 32.3391036,9.70879316 C34.4047035,10.8071931 35.5543035,12.562393 36.3543034,14.6439929 C36.4447034,14.8767929 36.6159034,15.1527928 36.2599034,15.2927928 C35.1999035,15.7095928 35.1199035,16.6903927 34.9607035,17.5879927 C34.3927035,20.7831925 32.5687036,23.2967924 29.3135038,23.3911924 C25.899104,23.4903924 23.4399042,20.9887925 21.6639043,18.1623927 C20.9863043,17.0847927 20.9343043,15.9895928 21.4599043,14.8751929 C22.2655042,13.169593 23.1431042,11.4983931 23.9415041,9.78879316 C24.4287041,8.74399322 25.1591041,8.29039325 26.306304,8.52559323 Z M64.2992217,9.14752285 L64.2999817,9.1475132 C66.4919816,9.36031318 68.5943815,9.89231315 70.3583814,11.2603131 C72.3063813,12.770713 72.2639818,14.9787128 70.2607814,16.3947128 C68.5383815,17.6131127 66.6471816,18.5539126 64.6855817,19.3419126 C64.3855817,19.4627126 64.0919818,19.5715126 63.7639818,19.4883126 C61.6050219,19.7741526 59.388222,18.6597526 58.2602221,16.8037527 C57.6186221,15.7493528 56.6642222,14.9213529 56.0402222,13.8325529 C55.7178223,13.268553 55.6154223,12.799753 55.9170222,12.234153 C56.0522222,11.981353 56.1578222,11.712553 56.2674222,11.4469531 C56.9050222,9.89895315 58.0386221,9.1469532 59.733022,9.1549532 C61.2542891,9.1613518 62.7755562,8.79671278 64.2992217,9.14752285 Z M31.5519037,11.775193 C30.6031038,11.751993 30.0071038,12.365593 29.9791038,13.3951929 C29.9487038,14.5071929 31.0415037,15.6351928 32.1663037,15.6527928 C33.4599036,15.6735928 34.2335035,14.9687928 34.2903035,13.7143929 C34.3271035,12.904793 32.7743036,11.804793 31.5519037,11.775193 Z M64.2874663,10.4599603 L64.2722217,11.996553 C63.5506662,12.8797974 63.5084391,13.7901579 64.0559067,14.7235907 L64.1583818,14.8883129 L64.1583818,14.8883129 C64.3503817,14.9979128 64.5335817,15.1339128 64.7391817,15.2123128 C65.5119817,15.5067128 66.3271816,15.7067128 67.1343816,15.4987128 C68.1487815,15.2379128 68.7239815,14.2355129 68.5623815,13.217113 C68.4023815,12.205913 67.3215816,11.3931131 66.2143816,11.3851131 C65.4879817,11.3795131 64.9503817,11.896313 64.2727817,11.996313 C64.2775276,11.4841954 64.2825061,10.9720779 64.2874663,10.4599603 Z" id="Combined-Shape" fill="#E2688D"></path>
                <path d="M43.1632268,0.823313545 L43.6190824,0.908013944 L46.2944364,1.43551195 L46.8200187,1.52889967 C46.985183,1.55666054 47.1412588,1.58117392 47.2910703,1.60280253 L47.5114422,1.63312718 L47.932469,1.68188305 C49.2236615,1.81150082 50.3890487,1.72628706 51.8358642,1.34807734 L52.5228855,1.15897221 C57.5864868,-0.198431418 61.383541,0.941693305 63.2625168,4.65653289 L63.5734332,4.64345341 L63.5734332,4.64345341 L63.9516055,4.63992493 L64.8307758,4.79879899 L65.0489017,4.84501751 L65.2652054,4.89832491 C65.8068054,5.0431249 66.4420053,5.33672489 66.5340053,5.82872486 C66.7964053,7.21992478 67.9484052,7.23432477 68.8996052,7.59352475 C70.3212051,8.13112472 71.625205,8.85032468 72.698005,9.95352461 C74.8642319,12.1820218 74.9780644,15.4867006 72.9702367,17.8035815 L72.9702367,17.8035815 L72.5134482,18.3070217 C72.2353938,18.6232265 71.9773842,18.9511817 71.7442578,19.3019465 L71.7442578,19.3019465 L71.3712648,19.8966245 C70.8566954,20.6622402 70.1447648,21.2234577 69.3451954,21.6640735 L69.3451954,21.6640735 L68.6923378,22.0088513 C67.3815517,22.717867 66.1348106,23.5568991 64.7521961,24.1192734 L64.7500298,24.0594834 C64.7559636,24.166293 64.7530465,24.2734065 64.74212,24.3797931 L64.5885356,25.868041 C63.4722989,36.9101432 63.1579408,45.2570433 63.6349304,50.8645891 L63.667902,51.2343667 L63.7408765,51.9495604 C63.8725134,53.1342923 62.9451316,54.1704235 61.7531091,54.1704235 L58.0136845,54.1773932 C46.2684703,54.2203735 32.5315648,54.4621413 16.8039917,54.9027609 L14.2361254,54.9759558 L7.81557856,55.1694476 C6.47618554,55.2113037 5.47535915,53.9498983 5.82063917,52.6550982 C7.65684477,45.7693272 8.32617646,40.5957721 7.93572288,37.2363874 L7.89210905,36.8994235 L7.7783943,36.9889025 C5.38444789,38.8369633 3.09199505,38.922445 1.35568262,36.6535332 L1.21612822,36.4643964 L1.08900846,36.2798239 C-0.310811829,34.1800934 -0.310811829,28.488523 0.800734932,23.4865626 C1.39422534,20.8158557 2.261319,18.5939282 3.41224561,17.0833371 C5.02396374,14.967957 7.29044035,14.2030212 9.64753624,15.3815691 C11.2285582,16.1720801 12.3253078,17.0655889 13.1414095,18.1377153 L13.3271091,18.3924235 L13.405205,18.1392588 C13.6307957,17.3586477 13.7872321,16.3682101 13.9572824,14.8391576 L14.1000762,13.4936724 L14.2136901,12.4997187 C15.204854,4.65310443 18.6912151,0.795389416 28.6283525,0.174318327 C34.7397384,-0.207643295 38.9122359,0.0510632891 43.1632268,0.823313545 Z M29.4892602,4.1301438 L28.8778656,4.16652864 C21.0366423,4.6566051 18.9398398,6.93463589 18.1817783,13.0024417 L18.1472079,13.2896534 L17.9284869,15.3211734 L17.8429797,16.0553458 C17.5711211,18.27451 17.2777824,19.5260288 16.6447802,20.8543288 L16.1011225,21.9444246 C15.5189039,23.1006459 15.2984946,23.5021088 15.0603018,23.794662 L14.9379661,23.9348528 L14.8079476,24.069012 C13.8372201,25.0397396 12.2783592,24.9630743 11.4677289,23.7783069 C11.3411435,23.5932976 11.2698248,23.4692449 11.1921656,23.2775578 L11.0919883,23.0068388 L10.8984906,22.4379173 C10.3174437,20.791515 9.6108301,19.835352 7.85868186,18.9592779 C6.92534621,18.49261 5.63037859,20.192255 4.70548317,24.3542844 C4.25227331,26.3937288 4.00310905,28.6829254 4.00310905,30.6704235 C4.00310905,32.4276406 4.21905179,33.7637863 4.41720964,34.0610231 C4.54217342,34.2484688 4.54516015,34.2954835 4.56378523,34.2958264 L4.72165418,34.2344528 C5.27958397,33.9957344 6.14314711,33.2313138 7.19137143,31.9210334 C8.06204049,30.8326971 9.75101617,30.9463007 10.4680949,32.141432 C12.5849672,35.6695525 12.5300656,41.6981338 10.5033798,50.4175775 L10.3441091,51.0884235 L17.1054361,50.8927788 C31.379205,50.4951676 44.0135007,50.2616818 55.0090893,50.1923699 L56.0680629,50.1861748 L59.5731091,50.1724235 L59.5625312,50.0262787 C59.2020714,44.3295659 59.5256456,36.4322555 60.5253454,26.3011915 L60.705,24.542 L58.9260058,24.1943238 C58.6271487,24.1446095 58.3327813,23.9859156 58.060105,23.8022072 L57.8992397,23.6896521 L57.5408643,23.4276134 C56.3715862,22.6104498 54.9523171,22.0874794 54.2980061,20.624724 C54.2028061,21.2167239 54.514806,21.6287239 54.729206,22.0519239 L54.729206,22.0519239 L55.2371687,23.0189489 C56.2790345,24.9386829 57.4570916,26.7833522 58.4212058,28.7479235 C59.1964058,30.3271234 58.5588058,31.5007233 56.7956059,31.5759233 C55.997206,31.6103233 55.201206,31.5759233 54.4012061,31.5023233 L54.4012061,31.5023233 L53.8394858,31.4540483 C52.715264,31.3653233 51.5867109,31.3269983 50.4602391,31.4011733 L50.4602391,31.4011733 L49.6883265,31.4652871 C48.112555,31.5683053 47.1308065,30.9806234 47.0388065,29.8191234 C46.9436065,28.6231235 47.9220064,27.8511235 49.6220063,27.7519236 C50.9076063,27.6767236 52.1756062,27.9007235 53.4532061,27.9455235 L53.4532061,27.9455235 L53.8114827,27.9549048 L53.9218001,27.9548332 C54.4774755,27.9476185 54.5138482,27.8238221 54.2059778,27.2353106 L54.2059778,27.2353106 L53.4193482,25.7704543 C52.0989862,23.2615491 50.8987624,20.6954784 49.7181731,18.1196498 L49.7181731,18.1196498 L48.5404064,15.5423243 C48.4132064,15.2623243 48.2404064,15.0223243 47.9108064,15.0327243 L47.9108064,15.0327243 L47.1426317,15.0608517 L46.8874641,15.0731117 C45.0188161,15.1712095 43.2121606,15.4654627 41.8116068,17.0095242 L41.8116068,17.0095242 L41.0075069,17.8955241 L40.1105819,18.8764131 C39.8993569,19.1024366 39.6722069,19.3132241 39.334807,19.3335241 C38.379307,19.391274 37.8070102,20.0712896 37.3977504,20.7440542 L37.3977504,20.7440542 L37.1535835,21.1532118 C36.0391881,22.9599746 34.5565215,24.2478476 32.4948074,24.8703237 C27.4428077,26.3951236 22.218808,24.1511238 19.6356081,19.389524 C18.8108082,17.8695241 18.7596082,16.3303242 19.3764081,14.7687243 C19.7268081,13.8799244 20.2204081,13.0479244 20.6292081,12.1807245 L20.6292081,12.1807245 L20.6760625,12.0901325 C20.8091697,11.8498125 20.9949104,11.6166605 20.9293616,11.3210445 L20.9293616,11.3210445 L20.8946934,11.2145793 L20.8362704,11.1902097 C20.71712,11.1234162 20.7144527,11.0147879 20.7298795,10.9066105 L20.7298795,10.9066105 L20.7476937,10.8001495 L20.780919,10.4921251 C21.0121434,8.67521996 22.1128254,7.50653345 23.7588079,6.7543248 C24.0772079,6.60872481 24.4388078,6.53192482 24.7228078,6.33992483 C26.6404077,5.0423249 28.6460076,5.1759249 30.6780075,5.97032485 C31.7780074,6.39992482 32.8212073,6.98472479 33.9364073,7.36712477 C36.7132071,8.31912471 38.284407,10.3863246 39.342007,12.9727244 C39.4460069,13.2271244 39.4364069,13.5343244 39.7564069,13.7815244 C41.2897402,12.0166578 43.3711762,11.4258773 45.5571264,11.2325509 L45.5571264,11.2325509 L46.143841,11.1825766 L46.4199141,11.1450369 C47.2537902,11.0052599 47.7003369,10.6472985 47.6468065,9.51192464 C47.6148065,8.82712468 48.1604064,8.33192471 48.8852064,8.26392471 C49.6212063,8.19432472 50.0940063,8.62312469 50.3236063,9.29112465 C50.4733663,9.72504463 50.6195423,10.1671566 50.7166687,10.6154126 L50.7166687,10.6154126 L50.813361,11.1276813 C51.0218762,12.0261224 51.6831356,12.3782774 52.6484062,12.5823245 C52.4356062,11.2239245 52.6980062,10.0383246 53.7644061,9.17912466 L53.7644061,9.17912466 L54.3452392,8.71612676 L54.9304568,8.26257773 C56.2676669,7.2440047 57.6495205,6.32294719 59.1484511,5.66441127 C58.140691,4.54255305 56.500323,4.28556624 53.9068365,4.93157192 L53.6043158,5.00985881 L52.856017,5.21574651 C50.9425833,5.71638748 49.2992035,5.83918841 47.5329327,5.66187937 C47.1190762,5.62033392 46.7047541,5.56412371 46.2443892,5.48818891 L45.8897703,5.42746039 L45.2487646,5.30852067 L42.4351387,4.75651583 C38.6403564,4.06813515 34.9271114,3.82317191 29.4892602,4.1301438 Z M26.1402372,8.69427873 C25.1000029,8.54406544 24.4229412,9.00281356 23.9628079,9.99032461 C23.1644079,11.6991245 22.286808,13.3711244 21.481208,15.0767243 C20.955608,16.1911242 21.008408,17.2855242 21.685208,18.3631241 C23.4612079,21.1903239 25.9204078,22.6919239 29.3348075,22.5927239 C32.5900074,22.4975239 34.4140072,20.983924 34.9820072,17.7895241 L34.9820072,17.7895241 L35.0883534,17.1858918 C35.2256418,16.4838255 35.4567627,15.8183243 36.2812071,15.4935243 L36.2812071,15.4935243 L36.3597442,15.4557947 C36.5416849,15.3481798 36.5112405,15.1867576 36.4495071,15.0246243 L36.4495071,15.0246243 L36.2596768,14.5496143 C35.46477,12.5975263 34.3276453,10.9564198 32.3604074,9.91032461 C30.7148075,9.03592467 29.0212076,8.65912469 27.3964077,8.79352468 C26.9719505,8.76952468 26.69502,8.77961448 26.4487366,8.74721798 L26.4487366,8.74721798 Z M59.7540057,9.35592465 L59.5264212,9.359652 C57.9575761,9.41873126 56.8970241,10.1710519 56.2884059,11.6479245 C56.1796059,11.9135245 56.074006,12.1823245 55.938806,12.4351245 L55.938806,12.4351245 L55.8717162,12.5746342 C55.6558004,13.0796411 55.7664726,13.5172577 56.062006,14.0335244 C56.6852059,15.1231243 57.6404059,15.9503243 58.2812058,17.0055242 C58.8661506,17.9668898 59.7432579,18.7295419 60.7530025,19.2014166 C60.8090858,19.2276255 60.8655783,19.2529374 60.9224526,19.2773364 L60.7530025,19.2014166 C60.8273156,19.2361447 60.9023472,19.2692978 60.9780335,19.3008393 L60.9224526,19.2773364 C60.9934683,19.3078021 61.0650793,19.3368447 61.1372324,19.3644334 L60.9780335,19.3008393 C61.059409,19.3347516 61.1415415,19.3668009 61.2243519,19.3969416 L61.1372324,19.3644334 C61.2221999,19.3969218 61.3079192,19.4273941 61.3943033,19.4558002 L61.2243519,19.3969416 C61.3017808,19.4251235 61.3798024,19.4516368 61.4583521,19.4764441 L61.3943033,19.4558002 C61.4716905,19.4812477 61.5496113,19.5050369 61.6280031,19.5271318 L61.4583521,19.4764441 C61.5402646,19.5023135 61.6227515,19.5263278 61.7057394,19.5484447 L61.6280031,19.5271318 C61.8000453,19.5756222 61.9743566,19.6159519 62.1502767,19.6477397 C62.1999026,19.6567066 62.2496281,19.6649894 62.2994666,19.6725848 C62.3448421,19.6795017 62.3905181,19.6858749 62.4362775,19.6916666 L62.2994666,19.6725848 C62.3789515,19.6846981 62.4587241,19.6950628 62.5387242,19.7036442 L62.4362775,19.6916666 C62.516835,19.7018626 62.5976507,19.7102561 62.6786626,19.7168115 L62.5387242,19.7036442 C62.6185449,19.7122064 62.6985923,19.7189932 62.7788065,19.7239703 L62.6786626,19.7168115 C62.7720979,19.7243721 62.8657944,19.7294876 62.9596572,19.7321033 L62.7788065,19.7239703 C62.9517156,19.7346988 63.1254002,19.7370182 63.2992632,19.7305838 L63.183372,19.7335805 C63.2613083,19.7324321 63.3393072,19.7295379 63.4173148,19.7248668 L63.2992632,19.7305838 C63.3800731,19.7275931 63.4609215,19.7227114 63.5417485,19.7159039 L63.4173148,19.7248668 C63.5399934,19.7175209 63.6626935,19.7057803 63.7852055,19.689524 L63.9188753,19.7134403 C63.9420073,19.7158834 63.9649916,19.7174498 63.9878428,19.7182081 C64.0614027,19.7206521 64.1336275,19.7147116 64.2049699,19.7026681 L64.0984238,19.7157817 C64.1616835,19.7110162 64.2240804,19.7007199 64.2859469,19.6864195 L64.2049699,19.7026681 C64.2491553,19.695209 64.2930022,19.6854089 64.3366288,19.6738102 L64.2859469,19.6864195 C64.3315408,19.6758806 64.3768466,19.663167 64.4219975,19.6488898 L64.3366288,19.6738102 C64.3835263,19.6613417 64.4301693,19.6467948 64.4767043,19.6308432 L64.4219975,19.6488898 C64.5174735,19.6186994 64.6122566,19.5815178 64.7076054,19.543124 L64.7076054,19.543124 L65.2938526,19.3020153 C67.0456053,18.5641881 68.7318452,17.6924842 70.2820051,16.5959242 C72.285205,15.1799243 72.327605,12.9719244 70.3796051,11.4615245 C68.6156052,10.0935246 66.5132053,9.56152464 64.3212055,9.34872465 C64.0182357,9.27902886 63.7153292,9.2375966 63.4124671,9.21589142 C63.3163575,9.20899892 63.2199174,9.20408318 63.1234811,9.20089255 L63.4124671,9.21589142 C63.2773817,9.20621027 63.1423052,9.20045367 63.0072358,9.19786415 L63.1234811,9.20089255 C62.8584921,9.19212528 62.5935325,9.19638348 62.3285896,9.20794788 L62.5756896,9.19945269 C62.4406213,9.20275044 62.3055584,9.20840895 62.1704992,9.21567053 L62.3285896,9.20794788 C62.194843,9.21378574 62.0611007,9.22148548 61.927361,9.23031136 L62.1704992,9.21567053 C62.0238868,9.22355328 61.8772787,9.23332509 61.7306729,9.24401674 L61.927361,9.23031136 C61.8198161,9.23740857 61.7122729,9.24523398 61.6047306,9.253405 L61.7306729,9.24401674 C61.5169317,9.25960444 61.3031952,9.2771473 61.0894568,9.29364178 C61.0629874,9.29568455 61.036299,9.29772788 61.0096106,9.29974904 C60.9242008,9.30621717 60.8388466,9.31245418 60.7534917,9.31827304 C60.6997195,9.32193864 60.6460386,9.32543257 60.5923572,9.32871352 C60.5049643,9.33405446 60.4176663,9.33882619 60.3303665,9.34282996 C60.2931581,9.34453743 60.2555494,9.34612079 60.2179403,9.34754532 L60.1885294,9.34862667 C60.043694,9.35378947 59.8988535,9.35653357 59.7540057,9.35592465 L59.966,9.352 L59.928,9.353 L59.7540057,9.35592465 Z M66.5052053,6.8079248 C65.8124054,5.78712486 65.0212054,5.61192487 64.0972055,5.75032486 L64.0972055,5.75032486 L63.7250257,5.83644037 C63.7284717,5.856786 63.7316034,5.87718889 63.7344193,5.89764176 L63.7500298,6.05948344 L63.769,6.395 L64.1508055,6.39512482 Z M38.9536633,40.1495113 C36.2368634,39.3527114 34.6328635,37.4367115 33.4800636,35.0111117 C33.2136636,34.4519117 33.0744636,33.8623117 33.2672636,33.2463118 C33.3776636,32.8919118 33.5984636,32.6247118 33.9896635,32.5575118 C34.3824635,32.4903118 34.7160635,32.6471118 34.8808635,32.9807118 C35.3608635,33.9519117 36.2056634,34.6111117 36.8760634,35.4191116 C37.9968633,36.7711115 39.4872632,37.3127115 41.1824631,37.3767115 C43.007263,37.4447115 44.8208629,37.3287115 46.6192628,36.9887115 C47.5992627,36.8047115 48.4688627,36.4503116 48.9872627,35.5399116 C49.4992626,34.6431117 50.4952626,34.5311117 51.2832625,34.0847117 C51.4328625,33.9999117 51.5680625,34.1023117 51.6824625,34.2415117 C52.4096625,35.1207116 52.4936624,36.3535116 51.8808625,37.3663115 C50.9936625,38.8359114 49.7088626,39.7783114 48.0472627,40.1823113 C46.3016628,40.6071113 44.5248629,40.7879113 42.992863,40.7543113 C41.4528631,40.6487113 40.1992632,40.5143113 38.9536633,40.1495113 Z M29.9791038,13.3951929 C30.0071038,12.365593 30.6031038,11.751993 31.5519037,11.775193 C32.7743036,11.804793 34.3271035,12.904793 34.2903035,13.7143929 C34.2335035,14.9687928 33.4599036,15.6735928 32.1663037,15.6527928 C31.0415037,15.6351928 29.9487038,14.5071929 29.9791038,13.3951929 Z M66.2141416,11.3849531 C67.3221416,11.3937531 68.4021415,12.206553 68.5621415,13.216953 C68.7237415,14.2353529 68.1493415,15.2377528 67.1341416,15.4985528 C66.3269416,15.7073528 65.5117417,15.5065528 64.7389417,15.2121528 C64.5333417,15.1337528 64.3509417,14.9977528 64.1581418,14.8881529 C63.5061418,13.8969529 63.5085418,12.931353 64.2725417,11.996153 C64.9509417,11.896153 65.4885417,11.3793531 66.2141416,11.3849531 Z" id="Combined-Shape" fill="#201D1E"></path>
            </g>
        </g>
    </g>
</svg>