<?xml version="1.0" encoding="UTF-8"?>
<svg width="81px" height="88px" viewBox="0 0 81 88" version="1.1" xmlns="http://www.w3.org/2000/svg" xmlns:xlink="http://www.w3.org/1999/xlink">
    <!-- Generator: sketchtool 60.1 (101010) - https://sketch.com -->
    <title>E160D376-349C-45B3-80F6-C129F379BD09</title>
    <desc>Created with sketchtool.</desc>
    <g id="XS" stroke="none" stroke-width="1" fill="none" fill-rule="evenodd">
        <g id="Initial" transform="translate(-253.000000, -2097.000000)" fill="#010F24" fill-rule="nonzero">
            <path d="M302.425304,2099.08435 C301.514598,2099.35756 300.922132,2100.23417 301.008214,2101.18107 L301.063035,2101.87439 C301.455968,2107.76232 299.711056,2110.52055 295.751931,2111.01544 C291.610694,2111.5331 288.722872,2108.64528 286.940285,2101.51493 C286.700386,2100.55533 285.795057,2099.91523 284.810382,2100.00901 L280.281404,2100.43309 C268.917935,2101.4774 261.470946,2102 258,2102 C256.895431,2102 256,2102.89543 256,2104 L255.9941,2105.44039 C255.946896,2111.46322 255.616458,2120.62088 255.002495,2132.90012 C254.909265,2134.76473 257.19523,2135.72898 258.465587,2134.3609 L259.071325,2133.71857 C262.763702,2129.8651 265.655925,2128 267.5,2128 C268.989479,2128 270.218302,2129.56396 271.044395,2133.41906 C272.272151,2139.14859 271.207582,2142.87458 268.6406,2144.5859 C266.396428,2146.08201 262.975074,2145.96797 259.992278,2144.26351 C259.462571,2143.96082 258.823673,2143.91646 258.257219,2144.14305 C253.578312,2146.01461 252.584023,2158.2775 254.003257,2183.1141 C254.065146,2184.19716 254.979181,2185.03341 256.06346,2184.99899 L269.241111,2184.59658 C303.063768,2183.60867 322.985337,2183.40851 328.800993,2183.99007 C330.082884,2184.11826 331.149826,2183.01879 330.983201,2181.74132 L330.871207,2180.84336 C329.792842,2171.78855 329.958192,2160.43773 331.061835,2143.19218 L331.454799,2137.29317 L332.091347,2127.99224 C333.103639,2112.83151 333.320941,2106.69216 332.997736,2099.90487 C332.950984,2098.92308 332.197758,2098.12078 331.220863,2098.01223 C318.97696,2096.6518 309.392832,2096.99409 302.425304,2099.08435 Z M329.072,2101.807 L329.106473,2103.04316 C329.248905,2109.36607 328.876892,2116.50245 327.770302,2132.58519 L327.116875,2142.20834 L326.858963,2146.35588 C326.016793,2160.55957 325.877925,2170.64551 326.647869,2178.939 L326.735,2179.841 L326.633298,2179.83634 C318.107503,2179.44147 297.570116,2179.73924 264.856682,2180.72481 L257.889,2180.939 L257.789841,2178.9672 C257.323442,2169.29162 257.30927,2161.76661 257.743458,2156.41163 L257.775343,2156.03281 C258.101274,2152.29921 258.669694,2149.79503 259.192959,2148.61656 L259.299,2148.393 L259.583314,2148.51775 C263.432308,2150.14979 267.697488,2150.02204 270.8594,2147.9141 C274.954183,2145.18425 276.498257,2139.77999 274.955605,2132.58094 L274.881571,2132.2458 C272.741773,2122.84591 267.022992,2121.59211 259.430733,2127.90599 L259.241,2128.063 L259.461271,2123.1808 C259.753043,2116.38758 259.926331,2110.89453 259.981056,2106.69811 L259.989,2105.961 L260.966284,2105.9232 C265.319499,2105.73406 272.263647,2105.19549 281.830901,2104.30701 L283.517,2104.149 L283.61091,2104.453 C285.97336,2112.00752 290.224595,2115.73749 296.248069,2114.98456 L296.552702,2114.94305 C302.391096,2114.081 305.261742,2109.76074 305.100987,2102.70439 L305.094,2102.503 L305.259014,2102.46254 C310.912952,2101.10487 318.427199,2100.83692 327.77724,2101.68435 L329.072,2101.807 Z" id="08"></path>
        </g>
    </g>
</svg>