<svg xmlns="http://www.w3.org/2000/svg" width="62" height="26" viewBox="0 0 62 26">
    <g fill="#B6009C" fill-rule="evenodd">
        <path d="M0 .963h7.221v4.506h.103c.341-.75.854 4.835.615 5.774a12.34 12.34 0 0 0-.359 3.05v10.744H0V.963z"/>
        <path fill-rule="nonzero" d="M18 1.1l-.292 6.996c-.407-.053-3.519 0-3.936 0-9 0-6.675 10.062-6.675 11.163-4.5-3.272-6.509-5.49-6.027-6.655C3.44 6.871 9.27.963 15.856.963c.72 0 1.437.046 2.144.137z"/>
        <path d="M28.157 14.673c.1 2.198.688 3.791 1.764 4.78 1.075.987 2.62 1.48 4.636 1.48 1.445 0 2.688-.342 3.73-1.027 1.041-.685 1.68-1.41 1.915-2.174h6.3c-1.008 2.963-2.554 5.082-4.637 6.356C39.782 25.363 37.262 26 34.305 26c-2.05 0-3.897-.31-5.544-.932-1.646-.621-3.04-1.505-4.183-2.653-1.142-1.147-2.024-2.517-2.646-4.11-.621-1.593-.932-3.345-.932-5.257 0-1.848.32-3.569.958-5.162a12.04 12.04 0 0 1 2.721-4.134c1.176-1.163 2.579-2.08 4.208-2.748C30.517.334 32.323 0 34.305 0c2.218 0 4.15.406 5.796 1.219 1.646.812 2.999 1.904 4.057 3.274 1.058 1.37 1.823 2.931 2.293 4.683.47 1.753.639 3.585.504 5.497H28.157zm11.642-4.302c-.336-1.72-.933-3.027-1.79-3.919-.856-.892-2.158-1.338-3.905-1.338-1.143 0-2.092.183-2.848.55-.756.366-1.36.82-1.814 1.362a4.907 4.907 0 0 0-.958 1.72 7.432 7.432 0 0 0-.327 1.625h11.642z"/>
        <ellipse cx="57.5" cy="5.296" fill-rule="nonzero" rx="4.5" ry="4.333"/>
        <ellipse cx="57.5" cy="20.704" fill-rule="nonzero" rx="4.5" ry="4.333"/>
    </g>
</svg>
