<?xml version="1.0" encoding="UTF-8"?>
<svg width="176px" height="144px" viewBox="0 0 176 144" version="1.1" xmlns="http://www.w3.org/2000/svg" xmlns:xlink="http://www.w3.org/1999/xlink">
    <!-- Generator: sketchtool 59 (101010) - https://sketch.com -->
    <title>889ECFDF-AB87-406A-A82E-9548B00A6DE4</title>
    <desc>Created with sketchtool.</desc>
    <g id="Symbols" stroke="none" stroke-width="1" fill="none" fill-rule="evenodd">
        <g id="Logo/PC" fill-rule="nonzero">
            <g id="Pizza-Celentano-Logo" transform="translate(27.000000, 39.000000)">
                <path d="M112.427505,52.7962165 C116.146615,52.7962165 119.128977,55.7232844 119.128977,59.4971896 C119.128977,63.2531618 116.146615,66.1986609 112.427505,66.1986609 C108.709392,66.1986609 105.744963,63.2531618 105.744963,59.4971896 C105.744963,55.7232844 108.709392,52.7962165 112.427505,52.7962165 Z M112.427505,55.2630035 C110.089736,55.2630035 108.267044,57.0124696 108.267044,59.4971896 C108.267044,61.9644748 110.089736,63.7134427 112.427505,63.7134427 C114.765772,63.7134427 116.588465,61.9644748 116.588465,59.4971896 C116.588465,57.0124696 114.765772,55.2630035 112.427505,55.2630035 Z" id="O" fill="#001D45"></path>
                <polygon id="N" fill="#001D45" points="61.4238938 53.0539539 61.4238938 65.9408239 59.4911123 65.9408239 53.9682392 58.0617507 53.9682392 65.9408239 51.4277275 65.9408239 51.4277275 53.0539539 53.3605089 53.0539539 58.8833821 60.9145959 58.8833821 53.0539539"></polygon>
                <path d="M83.7508071,53.0541033 L88.2793937,65.9409734 L85.5182062,65.9409734 L84.7445955,63.6211375 L79.6082786,63.6211375 L78.8351661,65.9409734 L76.0924097,65.9409734 L80.602067,53.0541033 L83.7508071,53.0541033 Z M82.1856527,55.9811713 L80.4182535,61.2465063 L83.9530518,61.2465063 L82.1856527,55.9811713 Z" id="A" fill="#001D45"></path>
                <polygon id="T" fill="#001D45" points="74.5472307 55.4843269 71.0682241 55.4843269 71.0682241 65.9407741 68.5277124 65.9407741 68.5277124 55.4843269 65.0666388 55.4843269 65.0666388 53.053904 74.5472307 53.053904"></polygon>
                <polygon id="N" fill="#001D45" points="101.734292 53.0539539 101.734292 65.9408239 99.8010127 65.9408239 94.2781396 58.0617507 94.2781396 65.9408239 91.738126 65.9408239 91.738126 53.0539539 93.6709075 53.0539539 99.1937806 60.9145959 99.1937806 53.0539539"></polygon>
                <polygon id="E" fill="#001D45" points="47.4343918 63.5105007 47.4343918 65.9409235 39.4631628 65.9409235 39.4631628 53.0540535 47.342236 53.0540535 47.342236 55.4844763 42.0036745 55.4844763 42.0036745 58.2272327 46.8824532 58.2272327 46.8824532 60.6202951 42.0036745 60.6202951 42.0036745 63.5105007"></polygon>
                <polygon id="L" fill="#001D45" points="35.820069 63.5105007 35.820069 65.9409235 28.3644145 65.9409235 28.3644145 53.0540535 30.9049261 53.0540535 30.9049261 63.5105007"></polygon>
                <polygon id="E" fill="#001D45" points="24.3711286 63.5105007 24.3711286 65.9409235 16.3998996 65.9409235 16.3998996 53.0540535 24.2789728 53.0540535 24.2789728 55.4844763 18.9404113 55.4844763 18.9404113 58.2272327 23.81919 58.2272327 23.81919 60.6202951 18.9404113 60.6202951 18.9404113 63.5105007"></polygon>
                <path d="M0.386008334,59.4971896 C0.386008334,55.7232844 3.18405817,52.7962165 7.08698151,52.7962165 C9.4436797,52.7962165 11.5239104,53.9927476 12.6282858,55.8338714 L10.4374681,57.1041273 C9.81180483,55.9623914 8.55998015,55.2630035 7.08698151,55.2630035 C4.56490099,55.2630035 2.90808886,57.0124696 2.90808886,59.4971896 C2.90808886,61.9644748 4.56490099,63.7134427 7.08698151,63.7134427 C8.55998015,63.7134427 9.82973785,63.0140548 10.4374681,61.8907501 L12.6282858,63.1605079 C11.5423416,65.0021298 9.46211087,66.1986609 7.08698151,66.1986609 C3.18405817,66.1986609 0.386008334,63.2531618 0.386008334,59.4971896" id="C" fill="#001D45"></path>
                <path d="M101.867096,41.3000026 C90.5847337,41.3000026 81.40452,32.120287 81.40452,20.8369281 C81.40452,9.55356929 90.5847337,0.37335559 101.867096,0.37335559 C113.150455,0.37335559 122.330669,9.55356929 122.330669,20.8369281 C122.330669,32.120287 113.150455,41.3000026 101.867096,41.3000026" id="tomato" fill="#ED2D24"></path>
                <path d="M101.867096,0.373505032 C99.0949497,0.373505032 96.450825,0.930425044 94.0373389,1.93367809 L109.697352,39.7399789 C117.106181,36.6589859 122.330669,29.3477917 122.330669,20.8370776 C122.330669,9.55322059 113.150455,0.373505032 101.867096,0.373505032" id="tomato-light" fill="#F48D76"></path>
                <polygon id="tomato-seed-1" fill="#ED2D24" points="100.051627 7.22949923 102.720658 13.4701915 105.390188 7.22949923"></polygon>
                <polygon id="tomato-seed-2" fill="#ED2D24" points="109.907866 9.27799849 107.382796 15.5779693 113.682767 13.0529"></polygon>
                <polygon id="tomato-seed-3" fill="#ED2D24" points="115.731316 17.9983796 109.490624 20.6674113 115.731316 23.3369411"></polygon>
                <polygon id="tomato-seed-4" fill="#ED2D24" points="113.682817 28.2824705 107.382846 25.756903 109.907915 32.057372"></polygon>
                <path d="M98.2122963,12.0121868 L106.149154,31.1736226 C101.51795,33.1392813 94.7248213,33.4197338 89.95115,31.3803505 L98.2122963,12.0121868 Z" id="A-white" fill="#FEFEFE"></path>
                <path d="M80.9058325,20.8368783 C80.9058325,32.1257167 71.7545109,41.2770383 60.4656725,41.2770383 C49.1768341,41.2770383 40.0255125,32.1257167 40.0255125,20.8368783 C40.0255125,9.54803994 49.1768341,0.396220195 60.4656725,0.396220195 C71.7545109,0.396220195 80.9058325,9.54803994 80.9058325,20.8368783" id="mozzarella" fill="#EAEAEB"></path>
                <path d="M40.3300751,17.3372488 C40.1333099,18.4749995 40.0257118,19.6426386 40.0257118,20.8366791 C40.0257118,32.1255175 49.1770334,41.2773372 60.4653737,41.2773372 C68.9118278,41.2773372 76.1607545,36.1529757 79.2766173,28.8447704 L40.3300751,17.3372488 Z" id="mozzarella-shade" fill="#DBDCDD"></path>
                <polygon id="Z-green" fill="#12903E" points="46.5884512 30.7984737 53.4254165 14.1591185 47.1249475 12.0380403 48.5496266 8.4130788 59.4773139 11.9309403 54.5402528 27.8719039 65.6472703 31.12077 63.9072688 36.0299352"></polygon>
                <polygon id="Z-red" fill="#ED2D24" points="58.5226294 22.6771553 67.309811 14.0204862 62.0255467 12.5006625 63.6235784 8.48017819 74.945294 12.0872066 67.1693357 20.7712734 74.0526279 22.6891106 72.4456297 26.8266577"></polygon>
                <path d="M17.5542882,40.2438969 L0.775453832,40.2438969 L0.775453832,23.3828696 C0.775453832,17.5187708 3.05942365,12.0063586 7.20494095,7.85984502 C11.3519527,3.71382957 16.864863,1.42985975 22.7284636,1.42985975 L39.5904873,1.42985975 L39.589491,18.2086941 C39.589491,24.0942128 37.2975509,29.6270488 33.1360932,33.7890047 C28.9736391,37.9514587 23.440305,40.2438969 17.5542882,40.2438969" id="basil" fill="#0BAC49"></path>
                <path d="M32.7757888,1.42961068 L17.4893806,40.2436478 L17.5541387,40.2436478 C23.4401556,40.2436478 28.9734897,37.9512097 33.1359437,33.7887556 C37.2974015,29.6272978 39.5893416,24.0939638 39.5893416,18.2089432 L39.5903378,1.42961068 L32.7757888,1.42961068 Z" id="basil-shade" fill="#12903E"></path>
                <polygon id="I-white" fill="#FEFEFE" points="26.4595288 35.0012771 31.3587313 14.5023366 28.0769879 13.3606008 20.281104 33.1556701"></polygon>
                <path d="M6.93913369,29.4548419 L12.2747064,7.76335539 C17.2984437,8.208194 20.9786987,10.7018806 20.9786987,16.4025895 C20.9786987,23.8288539 16.5686693,25.9494339 11.8891464,26.3235367 L11.4268729,30.3056643 L6.93913369,29.4548419 Z" id="P-white" fill="#FEFEFE"></path>
            </g>
        </g>
    </g>
</svg>