<?xml version="1.0" encoding="UTF-8"?>
<svg width="24px" height="24px" viewBox="0 0 24 24" version="1.1" xmlns="http://www.w3.org/2000/svg" xmlns:xlink="http://www.w3.org/1999/xlink">
    <!-- Generator: sketchtool 59 (101010) - https://sketch.com -->
    <title>1A40ADC0-611C-460C-9A0C-6BAD39D3F0B1</title>
    <desc>Created with sketchtool.</desc>
    <g id="Symbols" stroke="none" stroke-width="1" fill="none" fill-rule="evenodd">
        <g id="Glyphs/Competence/Google-Ads" fill-rule="nonzero">
            <g id="Group" transform="translate(2.000000, 3.000000)">
                <path d="M11.8130844,0.459913959 C13.4871086,1.40668782 14.0606716,3.50356921 13.0941733,5.14342963 L6.53167333,16.278042 C5.56517501,17.9179024 3.4246086,18.4797601 1.75058441,17.5329862 C0.0765602312,16.5862123 -0.497002812,14.489331 0.4694955,12.8494705 L7.0319955,1.7148582 C7.99849381,0.0749977775 10.1390602,-0.486859898 11.8130844,0.459913959 Z" id="Rectangle" fill="#FBBC04"></path>
                <path d="M8.31308441,0.459913959 C9.9871086,-0.486859898 12.127675,0.0749977775 13.0941733,1.7148582 L19.6566733,12.8494705 C20.6231716,14.489331 20.0496086,16.5862123 18.3755844,17.5329862 C16.7015602,18.4797601 14.5609938,17.9179024 13.5944955,16.278042 L7.0319955,5.14342963 C6.06549719,3.50356921 6.63906023,1.40668782 8.31308441,0.459913959 Z" id="Rectangle" fill="#4285F4"></path>
                <ellipse id="Oval" fill="#34A853" cx="3.5" cy="14.5714286" rx="3.5" ry="3.42857143"></ellipse>
            </g>
        </g>
    </g>
</svg>