<?xml version="1.0" encoding="UTF-8"?>
<svg width="40px" height="40px" viewBox="0 0 40 40" version="1.1" xmlns="http://www.w3.org/2000/svg" xmlns:xlink="http://www.w3.org/1999/xlink">
    <!-- Generator: sketchtool 60 (101010) - https://sketch.com -->
    <title>90B46182-7E6B-4AA9-9A8C-A91B2372714F</title>
    <desc>Created with sketchtool.</desc>
    <defs>
        <linearGradient x1="19.6772152%" y1="81.5050868%" x2="69.8945148%" y2="47.6454899%" id="linearGradient-1">
            <stop stop-color="#1A237E" stop-opacity="0.4" offset="0%"></stop>
            <stop stop-color="#1A237E" stop-opacity="0" offset="100%"></stop>
        </linearGradient>
        <radialGradient cx="2.80934072%" cy="6.81570713%" fx="2.80934072%" fy="6.81570713%" r="162.27124%" gradientTransform="translate(0.028093,0.068157),scale(0.933578,1.000000),translate(-0.028093,-0.068157)" id="radialGradient-2">
            <stop stop-color="#FFFFFF" stop-opacity="0.1" offset="0%"></stop>
            <stop stop-color="#FFFFFF" stop-opacity="0" offset="100%"></stop>
        </radialGradient>
        <radialGradient cx="2.80934072%" cy="6.81570713%" fx="2.80934072%" fy="6.81570713%" r="187.118576%" gradientTransform="translate(0.028093,0.068157),scale(0.809609,1.000000),translate(-0.028093,-0.068157)" id="radialGradient-3">
            <stop stop-color="#FFFFFF" stop-opacity="0.1" offset="0%"></stop>
            <stop stop-color="#FFFFFF" stop-opacity="0" offset="100%"></stop>
        </radialGradient>
    </defs>
    <g id="Symbols" stroke="none" stroke-width="1" fill="none" fill-rule="evenodd">
        <g id="Glyphs/Competence/Flutter">
            <g id="Symbol" transform="translate(2.606031, 0.606079)">
                <polygon id="Path" points="31.3228255 17.8982239 20.8818836 28.3429 31.3228255 38.7875761 19.3919209 38.7875761 8.94724485 28.3429 19.3919209 17.8982239"></polygon>
                <polygon id="Path" points="19.3919209 2.12267106e-15 5.47117907e-13 19.3919209 5.96731939 25.3592403 31.3228255 0"></polygon>
                <polygon id="Path" fill="#39CEFD" fill-rule="nonzero" points="8.95097909 28.3429 14.9145642 34.3102194 31.3228255 17.8982239 19.3919209 17.8982239"></polygon>
                <polygon id="Path" points="31.3228255 17.8982239 20.8818836 28.3429 31.3228255 38.7875761 19.3919209 38.7875761 8.94724485 28.3429 19.3919209 17.8982239"></polygon>
                <polygon id="Path" points="19.3919209 2.12267106e-15 5.47117907e-13 19.3919209 5.96731939 25.3592403 31.3228255 0"></polygon>
                <polygon id="Path" fill="#39CEFD" fill-rule="nonzero" points="19.3919209 1.77635684e-15 31.3228255 1.77635684e-15 5.96731939 25.3592403 5.4534155e-13 19.3919209"></polygon>
                <polygon id="Path" points="31.3228255 17.8982239 20.8818836 28.3429 31.3228255 38.7875761 19.3919209 38.7875761 8.94724485 28.3429 19.3919209 17.8982239"></polygon>
                <polygon id="Path" points="19.3919209 2.12267106e-15 5.47117907e-13 19.3919209 5.96731939 25.3592403 31.3228255 0"></polygon>
                <polygon id="Path" fill="#03569B" fill-rule="nonzero" points="14.9145642 34.3102194 19.3919209 38.7838418 31.3228255 38.7838418 20.8818836 28.3429"></polygon>
                <polygon id="Path" points="31.3228255 17.8982239 20.8818836 28.3429 31.3228255 38.7875761 19.3919209 38.7875761 8.94724485 28.3429 19.3919209 17.8982239"></polygon>
                <polygon id="Path" points="19.3919209 2.12267106e-15 5.47117907e-13 19.3919209 5.96731939 25.3592403 31.3228255 0"></polygon>
                <polygon id="Path" fill="url(#linearGradient-1)" fill-rule="nonzero" points="23.7647188 31.2444064 20.8818836 28.3429 14.9145642 34.3102194"></polygon>
                <polygon id="Path" points="31.3228255 17.8982239 20.8818836 28.3429 31.3228255 38.7875761 19.3919209 38.7875761 8.94724485 28.3429 19.3919209 17.8982239"></polygon>
                <polygon id="Path" points="19.3919209 2.12267106e-15 5.47117907e-13 19.3919209 5.96731939 25.3592403 31.3228255 0"></polygon>
                <polygon id="Path" fill="#16B9FD" fill-rule="nonzero" points="8.95030693 28.3408462 14.9177757 22.3733401 20.8856179 28.3408462 14.9177757 34.3083523"></polygon>
                <polygon id="Path" fill="url(#radialGradient-2)" fill-rule="nonzero" points="31.3228255 17.8982239 20.8818836 28.3429 31.3228255 38.7875761 19.3919209 38.7875761 8.94724485 28.3429 19.3919209 17.8982239"></polygon>
                <polygon id="Path" fill="url(#radialGradient-3)" fill-rule="nonzero" points="19.3919209 5.67538474e-15 5.43565193e-13 19.3919209 5.96731939 25.3592403 31.3228255 3.55271368e-15"></polygon>
            </g>
        </g>
    </g>
</svg>