<?xml version="1.0" encoding="UTF-8"?>
<svg width="240px" height="144px" viewBox="0 0 240 144" version="1.1" xmlns="http://www.w3.org/2000/svg" xmlns:xlink="http://www.w3.org/1999/xlink">
    <!-- Generator: sketchtool 59 (101010) - https://sketch.com -->
    <title>8DF877D0-842D-4928-A6D8-33034DB9D025</title>
    <desc>Created with sketchtool.</desc>
    <g id="Symbols" stroke="none" stroke-width="1" fill="none" fill-rule="evenodd">
        <g id="Logo/Geno" fill="#080F16">
            <path d="M86,53.408133 C84.6309722,58.3088456 83.416201,62.7259197 82.1580452,67.1310814 C81.0710178,70.9287168 80.0587085,74.7525592 78.7981424,78.4930156 C76.3444975,85.778567 70.4224881,89.3879883 63.6448363,91.9538938 C63.1892971,92.1278131 62.2589367,91.7823569 61.9094489,91.3749569 C60.5500622,89.7810936 59.3328808,88.0657251 57.9783145,86.2836477 C61.1309349,83.9964897 65.1633003,82.8290861 66.5467896,78.307184 C64.8933511,78.4334542 63.6496568,78.521605 62.4035523,78.6288156 C56.148927,79.1696332 51.6224583,76.9634786 49.6725577,72.4201344 C47.8986062,68.2841902 49.7448655,62.6258565 53.9049747,58.8210737 C58.6435463,54.4850032 64.4450427,53.1484452 70.5887961,53.0197926 C75.5683937,52.9149645 80.5576324,53.2532733 86,53.408133 Z M170,80 C157.333372,90.5359505 142.582177,92.1977023 128,90.3433552 C133.406159,89.9211271 139.855826,89.6149499 146.254053,88.8618529 C153.561064,88.0025816 160.196897,85.1506897 166.330573,81.0642125 C167.374081,80.3679064 168.677243,80.0740751 170,80 Z M177.054332,52.1644553 C179.701312,52.3922608 182.392904,53.1476159 184.849043,54.1547562 C189.501085,56.0635267 191.739121,60.6220352 190.782441,65.4059513 C189.20615,73.2880225 182.725015,77.8201535 173.108647,78 C170.444318,77.5971439 167.710593,77.4364811 165.130531,76.7458706 C155.757051,74.2424078 153.010933,64.1374342 159.670516,57.2265339 C164.471265,52.2459857 170.637637,51.6129261 177.054332,52.1644553 Z M146.219009,53 C146.475146,53 146.733723,53.0362409 146.987421,53.0700658 C154.456871,54.0582347 156.210802,56.5781864 154.266598,63.7007343 C153.127397,67.8901841 151.912574,72.0627215 150.587979,76.199018 C150.368433,76.8851793 149.429263,77.7912022 148.78526,77.820195 C145.370097,77.982071 141.942736,77.8975089 137.954313,77.8975089 C138.98862,74.0100667 139.891199,70.576844 140.818172,67.1484534 C141.196279,65.7519701 141.654887,64.3748153 142.028115,62.975916 C143.013634,59.2817587 141.937857,58.027823 138.017737,58.1148012 C136.405292,58.1534582 135.536865,58.7864662 135.124606,60.3858986 C133.868314,65.2494294 132.419309,70.062223 131.194728,74.930586 C130.626348,77.2040994 129.567647,78.1898523 127.059941,77.9699907 C124.181446,77.7187204 121.256602,77.9120053 118,77.9120053 C118.300047,76.6121644 118.487881,75.6360758 118.756215,74.6817317 C120.556494,68.2864181 122.307985,61.8766082 124.259507,55.5271998 C124.557114,54.5607754 125.79877,53.2174455 126.640364,53.1884528 C133.160887,52.9661751 139.691168,53.0241606 146.219009,53 Z M105.954052,53.0242793 C107.387615,53.0735966 108.871775,53.1792766 110.235467,53.5808606 C117.200898,55.6427948 118.089948,61.0348231 116.020317,66.6405599 C115.789019,67.269943 114.239807,67.7372834 113.283295,67.7654647 C108.276665,67.9110683 103.262808,67.882887 98.2513597,67.9345527 C97.4394088,67.9415981 96.6274578,68.0496265 95.7914133,68.1130345 C96.3238797,71.0180602 97.8634544,72.5093224 100.826955,72.6220477 C104.212092,72.7512122 107.611685,72.5562913 111.00405,72.4881864 C111.835276,72.4693988 112.664092,72.3919002 113.480862,72.3402344 C113.897679,76.0249436 112.85684,77.7627925 109.539165,77.8402912 C104.387974,77.9577134 99.0729481,78.3217223 94.1048682,77.3001489 C84.7349058,75.3720761 82.1520825,66.424503 88.4477142,59.3181103 C93.0857132,54.0857762 99.25124,52.7988286 105.954052,53.0242793 Z M170.949921,58.696479 C169.40585,61.8330014 168.414472,65.2237068 167.185163,68.5041064 C167.400787,68.5712491 167.613934,68.6383918 167.82708,68.7055345 C167.564365,70.8996614 167.958438,72.8252176 170.394749,73.6261339 C172.818669,74.4270502 175.557351,73.6956745 176.635475,71.3097114 C178.102715,68.0604852 179.118877,64.5690657 179.872325,61.0872381 C180.306053,59.0849474 179.617045,57.0131161 177.116293,56.2553629 C174.551102,55.4784262 172.201536,56.147455 170.949921,58.696479 Z M70.3791034,57.9943614 C69.4632045,58.044393 68.5111517,58.1301614 67.6555093,58.425586 C64.0160164,59.6739931 61.1285246,64.6485619 61.0272937,69.8470816 C60.6994983,72.031794 61.7142179,73.342145 64.0907345,73.7114257 C67.1011495,74.1783872 67.9109969,73.7471626 68.7401265,70.9954255 C69.8247436,67.3883867 70.8298221,63.7551408 71.9771059,60.1671616 C72.4904914,58.5637685 71.9626444,57.9133579 70.3791034,57.9943614 Z M95.9672959,63.1672106 C99.6873324,63.1672106 103.151978,63.2470577 106.609395,63.1155448 C107.522539,63.0803182 108.40918,62.392224 109.307867,62.0047306 C108.787448,60.8798258 108.585062,59.2922774 107.691193,58.7122116 C103.95911,56.2839201 97.7116653,58.5971378 95.9672959,63.1672106 Z" id="Combined-Shape"></path>
        </g>
    </g>
</svg>