<?xml version="1.0" encoding="UTF-8"?>
<svg width="240px" height="62px" viewBox="0 0 240 62" version="1.1" xmlns="http://www.w3.org/2000/svg" xmlns:xlink="http://www.w3.org/1999/xlink">
    <!-- Generator: sketchtool 60.1 (101010) - https://sketch.com -->
    <title>629B99CC-59D9-4310-A544-B5525EBBA7F9</title>
    <desc>Created with sketchtool.</desc>
    <g id="Symbols" stroke="none" stroke-width="1" fill="none" fill-rule="evenodd">
        <g id="Header-logo-LG" fill="#000000">
            <path d="M228,8 C234.627417,8 240,13.372583 240,20 C240,26.627417 234.627417,32 228,32 C221.372583,32 216,26.627417 216,20 C216,13.372583 221.372583,8 228,8 Z M228,12 C223.581722,12 220,15.581722 220,20 C220,24.418278 223.581722,28 228,28 C232.418278,28 236,24.418278 236,20 C236,15.581722 232.418278,12 228,12 Z" id="o" fill-rule="nonzero"></path>
            <path d="M200,0 C201.104569,0 202,0.8954305 202,2 L201.999913,8 L209,8 C210.104569,8 211,8.8954305 211,10 C211,11.1045695 210.104569,12 209,12 L201.999913,12 L201.999913,21.917 L202.018503,22.1312277 C202.408997,26.2502873 204.242311,28.0000972 208,28.0000972 C209.104569,28.0000972 210,28.8955277 210,30.0000972 C210,31.1046666 209.104569,32.0000972 208,32.0000972 C201.996937,32.0000972 198.493854,28.4970143 198.005891,22.1534901 L197.999913,22.0042467 L197.999913,2 C197.999913,0.8954305 198.895431,0 200,0 Z" id="t"></path>
            <path d="M179,8 C184.224905,8 188.669882,11.3392688 190.317205,16.0000801 L185.92965,15.99984 C184.546389,13.6087228 181.961063,12 179,12 C174.581722,12 171,15.581722 171,20 C171,24.418278 174.581722,28 179,28 C181.960651,28 184.545669,26.3917256 185.929071,24.0011597 L190.316853,24.0009157 C188.669249,28.6612069 184.224533,32 179,32 C172.372583,32 167,26.627417 167,20 C167,13.372583 172.372583,8 179,8 Z" id="c" fill-rule="nonzero"></path>
            <path d="M149,8 C152.073859,8 154.877779,9.15574616 157.000915,11.0563927 L157,11 C157,9.8954305 157.895431,9 159,9 C160.104569,9 161,9.8954305 161,11 L161,30 C161,31.1045695 160.104569,32 159,32 C157.895431,32 157,31.1045695 157,30 L157.000915,28.9436073 C154.877779,30.8442538 152.073859,32 149,32 C142.372583,32 137,26.627417 137,20 C137,13.372583 142.372583,8 149,8 Z M149,12 C144.581722,12 141,15.581722 141,20 C141,24.418278 144.581722,28 149,28 C153.418278,28 157,24.418278 157,20 C157,15.581722 153.418278,12 149,12 Z" id="a" fill-rule="nonzero"></path>
            <path d="M119,8 C125.627417,8 131,13.372583 131,20 C131,26.627417 125.627417,32 119,32 C112.372583,32 107,26.627417 107,20 C107,13.372583 112.372583,8 119,8 Z M119,12 C114.581722,12 111,15.581722 111,20 C111,24.418278 114.581722,28 119,28 C123.418278,28 127,24.418278 127,20 C127,15.581722 123.418278,12 119,12 Z" id="o" fill-rule="nonzero"></path>
            <path d="M103,9 C104.104569,9 105,9.8954305 105,11 C105,12.1045695 104.104569,13 103,13 C96.1217213,13 92.6793841,15.8141015 92.0232433,21.865195 L92,22.092 L92,29 C92,30.1045695 91.1045695,31 90,31 C88.8954305,31 88,30.1045695 88,29 L88,11 C88,9.8954305 88.8954305,9 90,9 C91.1045695,9 92,9.8954305 92,11 L91.9996501,12.6320146 C94.5461895,10.2325105 98.246527,9 103,9 Z" id="r"></path>
            <path d="M69,8 C75.627417,8 81,13.372583 81,20 C81,26.627417 75.627417,32 69,32 C65.9266264,32 63.1231065,30.8446189 61.0000915,28.9445079 L61,40 C61,41.1045695 60.1045695,42 59,42 C57.8954305,42 57,41.1045695 57,40 L57,11 C57,9.8954305 57.8954305,9 59,9 C60.1045695,9 61,9.8954305 61,11 L61.0000915,11.0554921 C63.1231065,9.15538108 65.9266264,8 69,8 Z M69,12 C64.581722,12 61,15.581722 61,20 C61,24.418278 64.581722,28 69,28 C73.418278,28 77,24.418278 77,20 C77,15.581722 73.418278,12 69,12 Z" id="p" fill-rule="nonzero"></path>
            <path d="M23.5,56 C24.6045695,56 25.5,56.8954305 25.5,58 L25.5,58 L25.5,61.7398641 C25.5,62.8444336 24.6045695,63.7398641 23.5,63.7398641 C22.3954305,63.7398641 21.5,62.8444336 21.5,61.7398641 L21.5,61.7398641 L21.5,58 C21.5,56.8954305 22.3954305,56 23.5,56 Z M16.5,55 C17.6045695,55 18.5,55.8954305 18.5,57 L18.5,57 L18.5,61.6748301 C18.5,62.7793996 17.6045695,63.6748301 16.5,63.6748301 C15.3954305,63.6748301 14.5,62.7793996 14.5,61.6748301 L14.5,61.6748301 L14.5,57 C14.5,55.8954305 15.3954305,55 16.5,55 Z M8.5,53 C9.6045695,53 10.5,53.8954305 10.5,55 L10.5,55 L10.5,61.5447622 C10.5,62.6493317 9.6045695,63.5447622 8.5,63.5447622 C7.3954305,63.5447622 6.5,62.6493317 6.5,61.5447622 L6.5,61.5447622 L6.5,55 C6.5,53.8954305 7.3954305,53 8.5,53 Z M0.5,48 C1.6045695,48 2.5,48.8954305 2.5,50 L2.5,50 L2.5,61.2195923 C2.5,62.3241618 1.6045695,63.2195923 0.5,63.2195923 C-0.6045695,63.2195923 -1.5,62.3241618 -1.5,61.2195923 L-1.5,61.2195923 L-1.5,50 C-1.5,48.8954305 -0.6045695,48 0.5,48 Z M36.0004823,8 C37.1050518,8 38.0004823,8.8954305 38.0004823,10 L38.0004823,31.5752129 C38.0004823,32.6797824 37.1050518,33.5752129 36.0004823,33.5752129 L25.4921211,33.5752129 L25.4921211,49.8157521 C25.4921211,50.911606 24.6102496,51.803385 23.5144641,51.8156273 C11.7649049,51.9468957 3.53088441,47.2551449 -0.815436449,37.8381164 C-1.27831533,36.8352121 -0.840538278,35.6469601 0.162365965,35.1840812 C1.16527021,34.7212023 2.35352221,35.1589794 2.81640109,36.1618836 C6.2294812,43.5568906 12.3535964,47.4053199 21.4921211,47.7868478 L21.4921211,31.5752129 C21.4921211,30.4706434 22.3875516,29.5752129 23.4921211,29.5752129 L34.0004823,29.5752129 L34.0004823,10 C34.0004823,8.8954305 34.8959128,8 36.0004823,8 Z M26.0000528,8 C27.1046223,8 28.0000528,8.8954305 28.0000528,10 C28.0000528,11.1045695 27.1046223,12 26.0000528,12 L14.1036477,12 L14.1995933,13.8990847 C14.2553273,15.0022472 13.4062187,15.9417184 12.3030562,15.9974524 C11.1998937,16.0531864 10.2604225,15.2040778 10.2046885,14.1009153 L10.0026004,10.1009153 C9.94486651,8.95816739 10.8558474,8 12.0000528,8 L26.0000528,8 Z" id="Face" fill-rule="nonzero"></path>
        </g>
    </g>
</svg>