<?xml version="1.0" encoding="UTF-8"?>
<svg width="176px" height="144px" viewBox="0 0 176 144" version="1.1" xmlns="http://www.w3.org/2000/svg" xmlns:xlink="http://www.w3.org/1999/xlink">
    <!-- Generator: sketchtool 59 (101010) - https://sketch.com -->
    <title>A0015A97-C85F-4345-858A-D224015F3B80</title>
    <desc>Created with sketchtool.</desc>
    <g id="Symbols" stroke="none" stroke-width="1" fill="none" fill-rule="evenodd">
        <g id="Logo/Khinkalnya">
            <g id="Group" transform="translate(0.000000, 39.000000)">
                <path d="M162.897031,21.0163736 C162.897031,21.9636339 163.298653,22.7683612 164.103784,23.4310228 C164.525205,23.7721673 165.378417,24.2642567 166.662007,24.9082254 C167.774011,25.457328 168.511262,25.9498846 168.875174,26.3854281 L168.875174,18.3460997 L166.575743,18.3460997 C164.122639,18.3460997 162.897031,19.2358795 162.897031,21.0163736 Z M155.451457,35.0215257 C156.371135,35.0967645 157.070674,34.728048 157.549605,33.9135069 C157.683479,33.6485358 158.000252,32.7106219 158.49898,31.1011673 C158.91993,29.7940697 159.427615,28.8281165 160.021564,28.2033079 C160.769185,27.4457801 161.736945,26.8873312 162.925314,26.5274937 C163.921828,26.2246695 164.88016,26.1106431 165.799367,26.1868165 C165.090399,25.9026852 163.682363,25.533034 161.573844,25.0787977 C159.83018,24.6811073 158.594672,24.2642567 157.865906,23.8287132 C156.812354,23.1660516 156.284871,22.2286051 156.284871,21.0163736 C156.284871,19.2358795 156.974983,18.0998214 158.354735,17.607732 C159.063232,17.3422935 160.491066,17.2100416 162.637296,17.2100416 L175.22807,17.2100416 C174.63365,17.6642779 174.337147,18.2633838 174.337147,18.9994149 L174.337147,49.1579952 C174.337147,49.8944935 174.63365,50.4931321 175.22807,50.9473684 L167.983779,50.9473684 C168.579142,50.4931321 168.875174,49.8963628 168.875174,49.1579952 L168.875174,28.629505 C168.875174,27.8911373 168.444325,27.5219535 167.581685,27.5219535 C166.317422,27.5219535 165.4067,28.1280692 164.850934,29.3398333 C164.563387,29.9459491 164.257456,31.1866871 163.931256,33.0611129 C163.663036,34.6331817 163.308552,35.6463343 162.867805,36.101038 C161.909473,37.0856839 160.836593,37.5777733 159.647753,37.5777733 C157.578359,37.5777733 156.179751,36.7258465 155.451457,35.0215257 Z M154.589759,37.123537 L147.344997,37.123537 C147.938945,36.6693007 148.236391,36.0725314 148.236391,35.3341637 L148.236391,23.9992855 C147.48877,24.5675482 146.68411,24.8512122 145.82147,24.8512122 C145.476886,24.8512122 145.02671,24.8040128 144.470472,24.7096139 C143.915177,24.6147477 143.474429,24.5675482 143.148229,24.5675482 C142.708424,24.5675482 142.219594,24.7853199 141.682212,25.2208634 L141.682212,35.3341637 C141.682212,36.0725314 141.980129,36.6693007 142.574078,37.123537 L135.329787,37.123537 C135.923736,36.6693007 136.22071,36.0725314 136.22071,35.3341637 L136.22071,19.0279215 C136.22071,18.2890865 135.923736,17.6923172 135.329787,17.2380809 L142.574078,17.2380809 C141.980129,17.6923172 141.682212,18.2890865 141.682212,19.0279215 L141.682212,23.2889571 C142.430305,22.6454557 143.263248,22.323004 144.183397,22.323004 C144.509126,22.323004 144.954116,22.3706708 145.520253,22.4650697 C146.085448,22.5599359 146.530909,22.6071353 146.856639,22.6071353 C147.335569,22.6071353 147.795172,22.4272166 148.236391,22.0678466 L148.236391,19.0279215 C148.236391,18.2890865 147.938945,17.6923172 147.344997,17.2380809 L154.589759,17.2380809 C153.994868,17.6923172 153.697893,18.2890865 153.697893,19.0279215 L153.697893,35.3341637 C153.697893,36.0725314 153.994868,36.6693007 154.589759,37.123537 Z M121.618052,35.9589723 L123.917483,35.9589723 C124.760796,35.9589723 125.507946,35.7697072 126.159875,35.3907096 C126.620422,35.1070455 126.960292,34.6901949 127.179959,34.1410924 C127.40104,33.5915226 127.511345,32.9952206 127.511345,32.3507845 C127.511345,31.7072831 127.405754,31.077334 127.195044,30.4618718 C126.983862,29.8464096 126.686887,29.3398333 126.303177,28.9421429 C126.073611,28.6963319 125.752596,28.4210797 125.340603,28.1182555 C124.92861,27.8154313 124.416211,27.474754 123.802935,27.0957565 C122.710258,26.3947745 121.982435,25.8269791 121.618052,25.3914357 L121.618052,35.9589723 Z M121.618052,23.4025162 C122.365202,24.5198814 123.860445,25.4386351 126.102366,26.1583099 C127.405754,26.5560003 128.531429,26.8920044 129.479861,27.166322 C130.429237,27.4415742 131.223997,27.7537448 131.866499,28.1042358 C132.507587,28.4547268 133.010558,28.8996167 133.374941,29.4393728 C133.738852,29.9791289 133.988688,30.7128233 134.122091,31.6409234 C134.198927,32.1521729 134.208355,32.6634225 134.150845,33.1751393 C134.093807,33.6859215 133.978317,34.1644585 133.806261,34.6098157 C133.633261,35.0547056 133.403695,35.452396 133.116149,35.802887 C132.829545,36.1529106 132.484017,36.4132086 132.081923,36.5842482 C131.295648,36.9249254 129.887141,37.0954977 127.85593,37.0954977 L115.265155,37.0954977 C115.859575,36.6403267 116.157021,36.0440248 116.157021,35.3056571 L116.157021,18.9994149 C116.157021,18.2610472 115.859575,17.6642779 115.265155,17.2100416 L122.508975,17.2100416 C121.915026,17.6642779 121.618052,18.2610472 121.618052,18.9994149 L121.618052,23.4025162 Z M114.05793,17.2380809 C113.463981,17.6923172 113.167478,18.2890865 113.167478,19.0279215 L113.167478,35.3056571 C113.167478,36.0440248 113.463981,36.6403267 114.05793,37.0954977 L106.81411,37.0954977 C107.408531,36.6403267 107.705977,36.0440248 107.705977,35.3056571 L107.705977,18.3460997 L102.819097,18.3175931 C102.857751,18.8858558 102.877078,19.6905831 102.877078,20.7322423 C102.877078,21.7739015 102.83371,22.9197733 102.746974,24.1698578 C102.66071,25.4194749 102.516466,26.7172262 102.315654,28.0617096 C102.114372,29.406193 101.837196,30.6749703 101.48224,31.8680416 C101.127757,33.0611129 100.682295,34.117259 100.145384,35.0360127 C99.6089443,35.9538317 98.9574861,36.6122875 98.1905377,37.0099779 C97.6352426,37.2941092 97.1228438,37.4025278 96.6533414,37.3366355 C96.1833675,37.2702759 95.7808021,37.0954977 95.4451738,36.810899 C95.1104883,36.527235 94.8516963,36.1673976 94.6702119,35.7318541 C94.4877847,35.2958434 94.4104771,34.8509535 94.4392318,34.3962498 C94.4684578,33.9420135 94.616945,33.5111433 94.8851648,33.1041064 C95.1533846,32.6970696 95.5653778,32.3797584 96.1211443,32.1521729 C96.3327975,33.5728297 96.9550297,34.1410924 97.9897264,33.8569611 C98.4493298,33.7242418 98.856609,33.4069306 99.2115642,32.9050276 C99.5655766,32.4031245 99.8729216,31.7876623 100.130771,31.0581738 C100.389563,30.3296199 100.601216,29.5248926 100.763845,28.6439919 C100.926003,27.7635586 101.055634,26.8779847 101.151797,25.9877376 C101.286143,24.7755062 101.381835,23.6913208 101.438873,22.7351814 C101.496382,21.7785747 101.486954,20.9359944 101.410118,20.2069731 C101.333753,19.4774846 101.185737,18.867163 100.964656,18.3746063 C100.744518,17.8820496 100.423503,17.5035194 100.001611,17.2380809 L114.05793,17.2380809 Z M86.1753281,30.0501617 L82.9557478,19.965368 L79.4486209,31.0165822 C80.119406,30.5614112 80.8957821,30.3347604 81.7772777,30.3347604 C82.1416607,30.3347604 82.6253048,30.4146723 83.2286815,30.5758982 C83.8325296,30.7366567 84.3067459,30.8175033 84.6522734,30.8175033 C85.1500591,30.8175033 85.6577441,30.5614112 86.1753281,30.0501617 Z M94.6551275,37.0954977 L87.4113075,37.0954977 C87.7950174,36.7922062 87.9859296,36.3851693 87.9859296,35.8739198 C87.9859296,35.6846547 87.9571749,35.4949222 87.9001369,35.3056571 L86.7499501,31.7829891 C85.5620523,32.5400496 84.5268842,32.9190472 83.6458599,32.9190472 C83.2432945,32.9190472 82.7115688,32.8288542 82.0502114,32.6503375 C81.3893254,32.4694841 80.8571283,32.3797584 80.4550343,32.3797584 C79.4967024,32.3797584 78.8928544,32.7872626 78.6439615,33.600869 L78.2701508,34.7944076 C78.2319683,34.908434 78.2126414,35.0215257 78.2126414,35.1350848 C78.2126414,35.7412006 78.6727161,36.3945157 79.5928656,37.0954977 L74.8210045,37.0954977 C75.3192617,36.7165001 75.6737455,36.422555 75.8844559,36.214597 C76.3445306,35.7412006 76.6509329,35.2678041 76.804134,34.7944076 L82.2953332,17.2100416 L87.4113075,17.2100416 L93.3611673,35.3056571 C93.5916761,36.0061717 94.0225247,36.6024737 94.6551275,37.0954977 Z M74.8210045,34.9645125 C74.09271,36.6693007 72.6936303,37.5212274 70.6242368,37.5212274 C69.4358676,37.5212274 68.3629884,37.0291381 67.4046566,36.0440248 C66.9639087,35.6084813 66.5325887,34.453263 66.1116392,32.57837 C65.6129106,30.3436395 65.1914897,28.8472767 64.8459623,28.0902162 C64.1369947,26.5938534 63.1692351,25.845672 61.9431548,25.845672 L61.5980987,25.845672 L61.5980987,35.3056571 C61.5980987,36.0440248 61.8950732,36.6403267 62.4890221,37.0954977 L55.2452022,37.0954977 C55.8396225,36.6403267 56.136597,36.0440248 56.136597,35.3056571 L56.136597,18.9994149 C56.136597,18.2610472 55.8396225,17.6642779 55.2452022,17.2100416 L62.4890221,17.2100416 C61.8950732,17.6642779 61.5980987,18.2610472 61.5980987,18.9994149 L61.5980987,24.5390416 L62.1727207,24.5390416 C63.2078889,24.5390416 64.1181392,23.8857264 64.903943,22.5790961 C65.6129106,21.3668646 66.3218782,20.1546331 67.0308458,18.942869 C68.0273601,17.6357713 69.2826665,16.9824561 70.7967649,16.9824561 C72.3679012,16.9824561 73.4794342,17.4371598 74.1308924,18.3460997 C73.8626726,18.2890865 73.6613899,18.2610472 73.5275157,18.2610472 C72.6842025,18.2610472 71.955908,18.7437901 71.3426322,19.7097433 C70.2310992,21.5276231 69.5984965,22.5314293 69.4452954,22.7206944 C68.3724162,23.9137657 66.9063994,24.718493 65.047245,25.1353436 C66.2356142,25.4386351 67.1265376,25.7316456 67.7214293,26.0162442 C68.4299255,26.3573888 69.1388931,26.8779847 69.8478607,27.5784994 C70.4804635,28.1846151 71.0263308,29.1884212 71.4864055,30.5894505 C72.0996814,32.370412 72.4829199,33.4022574 72.636121,33.6859215 C73.1730319,34.6144889 73.9008551,35.0402186 74.8210045,34.9645125 Z M54.3830335,37.123537 L47.1392135,37.123537 C47.7331625,36.6693007 48.0301369,36.0725314 48.0301369,35.3341637 L48.0301369,23.9992855 C47.2829869,24.5675482 46.4783275,24.8512122 45.6156874,24.8512122 C45.2706314,24.8512122 44.8209272,24.8040128 44.2646893,24.7096139 C43.7089228,24.6147477 43.2686464,24.5675482 42.9424459,24.5675482 C42.5021694,24.5675482 42.0128686,24.7853199 41.4764291,25.2208634 L41.4764291,35.3341637 C41.4764291,36.0725314 41.7734035,36.6693007 42.3678238,37.123537 L35.1235325,37.123537 C35.7179528,36.6693007 36.0149273,36.0725314 36.0149273,35.3341637 L36.0149273,19.0279215 C36.0149273,18.2890865 35.7179528,17.6923172 35.1235325,17.2380809 L42.3678238,17.2380809 C41.7734035,17.6923172 41.4764291,18.2890865 41.4764291,19.0279215 L41.4764291,23.2889571 C42.2235791,22.6454557 43.0574645,22.323004 43.9771426,22.323004 C44.3028717,22.323004 44.7488048,22.3706708 45.3135277,22.4650697 C45.8791933,22.5599359 46.324655,22.6071353 46.6503841,22.6071353 C47.1297858,22.6071353 47.5903319,22.4272166 48.0301369,22.0678466 L48.0301369,19.0279215 C48.0301369,18.2890865 47.7331625,17.6923172 47.1392135,17.2380809 L54.3830335,17.2380809 C53.7890845,17.6923172 53.4916387,18.2890865 53.4916387,19.0279215 L53.4916387,35.3341637 C53.4916387,36.0725314 53.7890845,36.6693007 54.3830335,37.123537 Z M34.2618352,37.0954977 L27.0175439,37.0954977 C27.6114928,36.6403267 27.9089386,36.0440248 27.9089386,35.3056571 L27.9089386,18.9994149 C27.9089386,18.2610472 27.6114928,17.6642779 27.0175439,17.2100416 L34.2618352,17.2100416 C33.6669435,17.6642779 33.3704404,18.2610472 33.3704404,18.9994149 L33.3704404,35.3056571 C33.3704404,36.0440248 33.6669435,36.6403267 34.2618352,37.0954977 L34.2618352,37.0954977 Z" id="Fill-1" fill="#AF2127"></path>
                <path d="M8.1580987,42.524967 C7.97077889,46.5633173 10.3082251,49.4389839 12.8644493,50.9473684 L0.104300181,50.9473684 C-2.02580727,35.9016209 29.2618439,12.0167496 21.7542757,5.03453316 C19.2528651,2.70822514 14.5851224,3.31543575 13.6037191,6.66238436 C13.506961,4.77725647 14.0922759,3.19549872 15.3601402,1.91711109 C16.6270513,0.639193812 18.219508,0 20.1360804,0 C22.3086089,0 24.1732274,0.607680945 25.7294594,1.82304284 C27.2861681,3.03840473 28.195122,4.5679546 28.4558444,6.41122211 C30.2213217,18.8842028 9.2720081,18.487705 8.1580987,42.524967" id="Fill-3" fill="#AF2127"></path>
                <path d="M27.0175439,37.0526316 L19.8300034,37.0526316 C20.0152518,36.7803017 20.0738264,36.3861157 20.0062036,35.8696121 C19.9452479,35.4066513 19.800478,34.9441521 19.569989,34.4816529 C13.3820277,22.023715 21.0900731,37.573751 7.93934569,11.0617452 C7.45408075,10.0827423 6.86595298,9.22559558 6.1754386,8.49122807 L13.362979,8.49122807 C13.1472528,8.79032936 13.0767727,9.22559558 13.1515388,9.79702675 C13.2086848,10.232293 13.3405968,10.6537119 13.5467987,11.0617452 C20.8495836,25.7421718 14.53352,12.9939025 25.1769659,34.4816529 C25.5931794,35.3249524 26.2065466,36.1820991 27.0175439,37.0526316" id="Fill-4" fill="#AF2127"></path>
                <polyline id="Fill-5" fill="#AF2127" points="176 50.9473684 0.0604591871 50.9473684 0 50.1754386 175.233869 50.1754386 176 50.9473684"></polyline>
                <path d="M20.135008,47.1775012 C20.135008,47.3502706 20.1366992,47.4927568 20.1400818,47.6045716 C20.1413503,47.6395137 20.1624913,47.6624202 20.2026593,47.6725146 L20.5341508,47.7649171 L20.5392246,47.8596491 C20.3062504,47.8549902 20.0952628,47.8530489 19.9041478,47.8530489 C19.7138785,47.8530489 19.5147299,47.8549902 19.3079705,47.8596491 L19.2982456,47.7649171 L19.5942202,47.6837737 C19.6356566,47.6717381 19.6576433,47.6492199 19.6589117,47.6150542 C19.6618715,47.4966392 19.6635628,47.3502706 19.6635628,47.1775012 L19.6635628,45.3923467 C19.6635628,45.3181917 19.6635628,45.2502487 19.6627171,45.1900706 C19.6614487,45.1302808 19.660603,45.0755381 19.6589117,45.0277838 C19.6576433,44.9893475 19.6381935,44.9641115 19.6014081,44.9524641 L19.3033195,44.8666618 L19.2982456,44.7719298 C19.505005,44.7777535 19.7041536,44.7808595 19.8948458,44.7808595 L20.4597343,44.7808595 C20.8538033,44.7808595 21.2339192,44.7777535 21.5992364,44.7719298 L21.6140351,44.7894009 L21.4478665,45.5973405 L21.3518862,45.6124821 L21.1688048,44.9765354 L20.135008,44.9765354 L20.135008,47.1775012" id="Fill-7" fill="#2D4F91"></path>
                <path d="M27.0266207,46.3696 C27.1312022,46.3870207 27.2345998,46.3959246 27.3360241,46.3959246 C27.5755749,46.3959246 27.7579019,46.3355329 27.8826104,46.2147495 C28.0077136,46.0943532 28.0700678,45.909694 28.0700678,45.6611589 C28.0700678,45.4230762 28.0104761,45.244611 27.8916873,45.1276989 C27.7725039,45.0107867 27.5854411,44.9519435 27.3293151,44.9519435 C27.2290747,44.9519435 27.1280451,44.9581376 27.0266207,44.9701385 L27.0266207,46.3696 Z M27.0266207,47.1794682 C27.0266207,47.2669588 27.0270154,47.3459325 27.0278047,47.4163895 C27.028594,47.4864594 27.0293833,47.549561 27.0309619,47.6053071 C27.0325405,47.6389871 27.0518782,47.6614405 27.0893696,47.6730543 L27.398773,47.7651903 L27.4035088,47.8596491 C27.1864528,47.8550036 26.9891293,47.853068 26.8111434,47.853068 C26.6300004,47.853068 26.4445162,47.8550036 26.2546909,47.8596491 L26.245614,47.7651903 L26.5214724,47.6842809 C26.5605425,47.67228 26.5806695,47.6498267 26.5822481,47.6157596 C26.5838266,47.5573035 26.5850106,47.4918791 26.5857999,47.4198737 C26.5865892,47.347481 26.5865892,47.2669588 26.5865892,47.1794682 L26.5865892,45.3994615 C26.5865892,45.3255204 26.5865892,45.2577733 26.5857999,45.1977687 C26.5850106,45.1381513 26.5838266,45.0835665 26.5822481,45.03595 C26.5806695,44.9976245 26.5629103,44.9724612 26.5281814,44.9608475 L26.2499552,44.8752925 L26.245614,44.7808337 C26.4385965,44.7866406 26.6268432,44.7897376 26.8107488,44.7897376 C26.9342733,44.7897376 27.0538514,44.7866406 27.1690884,44.7808337 C27.28472,44.7750268 27.3896961,44.7719298 27.4848061,44.7719298 C27.8391992,44.7719298 28.1071646,44.8400641 28.2887023,44.974784 C28.4706347,45.1102782 28.5614035,45.311971 28.5614035,45.5794753 C28.5614035,45.8942089 28.4564274,46.1384856 28.2464751,46.3126925 C28.0361282,46.4868993 27.7417214,46.5736156 27.3620708,46.5736156 C27.257884,46.5736156 27.1458042,46.5670344 27.0266207,46.5538721 L27.0266207,47.1794682 L27.0266207,47.1794682 Z" id="Fill-8" fill="#2D4F91"></path>
                <path d="M35.2895032,44.7719298 C35.4527078,44.7788492 35.6191046,44.7825396 35.7886938,44.7825396 C35.9550906,44.7825396 36.115901,44.7788492 36.271923,44.7719298 L36.2807018,44.8844856 L36.0516567,44.9679799 C36.0185369,44.9799735 35.9898065,44.9951962 35.9666626,45.0141093 C35.9431196,45.0320998 35.9227689,45.0542419 35.9056105,45.080997 C35.888053,45.1068295 35.8720917,45.1377362 35.8577265,45.1732558 C35.8433613,45.2092368 35.8297942,45.2516759 35.815828,45.3001118 C35.7340262,45.552901 35.6534215,45.7992322 35.5728168,46.0391052 C35.4930101,46.2785169 35.4104102,46.5156221 35.3258152,46.7499596 C35.2408211,46.9847584 35.1530338,47.2186346 35.0612561,47.4525108 C34.9698775,47.6859257 34.8737105,47.9207245 34.771957,48.1578297 C34.7312556,48.2556241 34.6957417,48.3345054 34.6654152,48.394935 C34.6350886,48.4549032 34.5999737,48.5028778 34.5600704,48.5388588 C34.519768,48.5743785 34.471884,48.5988271 34.4156203,48.6117433 C34.3597557,48.6251208 34.2867326,48.6315789 34.195753,48.6315789 C34.0656682,48.6315789 33.9252085,48.6182014 33.7739749,48.5923689 L33.7643981,48.4798131 L33.907651,48.4484451 C34.0106016,48.4272256 34.0987879,48.3930898 34.1734072,48.3451152 C34.2472283,48.2971406 34.3134678,48.2376336 34.3729238,48.1656717 C34.4319807,48.0946324 34.4866483,48.0115995 34.5373255,47.9174954 C34.5880027,47.8238527 34.6426703,47.7196002 34.7017272,47.6065831 L33.6738175,45.3001118 C33.6542649,45.2562888 33.6359094,45.2166175 33.61915,45.179714 C33.6027896,45.1432717 33.5844341,45.1105198 33.5648814,45.0819196 C33.5453288,45.0533193 33.522983,45.0284094 33.4978439,45.0071899 C33.4731038,44.9864317 33.4415802,44.9698251 33.404071,44.9578314 L33.1973718,44.8844856 L33.1929825,44.7719298 C33.331846,44.7788492 33.5173965,44.7825396 33.7488358,44.7825396 C33.9299969,44.7825396 34.1450758,44.7788492 34.3928754,44.7719298 L34.4024522,44.8844856 L34.1889695,44.9550636 C34.1255232,44.9721315 34.0936005,45.0118028 34.0936005,45.073155 C34.0936005,45.1146715 34.1063696,45.1654138 34.1311096,45.2253821 C34.1562487,45.2858116 34.1869743,45.3540832 34.2228873,45.4311193 L34.951123,47.0705592 C35.0604581,46.7914761 35.1570241,46.5206964 35.2416192,46.2568361 C35.3266133,45.9938983 35.4096122,45.7314219 35.491414,45.4703293 C35.527726,45.3536219 35.5540622,45.2641308 35.5708216,45.20324 C35.587581,45.1423491 35.5959607,45.0948358 35.5959607,45.0597774 C35.5959607,45.0316385 35.5895762,45.0099577 35.5776052,44.9942737 C35.5656342,44.9785897 35.5440864,44.966596 35.5141589,44.9578314 L35.2938925,44.8923276 L35.2895032,44.7719298" id="Fill-9" fill="#2D4F91"></path>
                <path d="M40.6076588,45.0850137 L40.4429554,45.7571129 L40.3448251,45.7730483 L40.1969812,44.934096 L40.2116791,44.9148798 C40.5544868,44.8192674 40.868331,44.7719298 41.1532116,44.7719298 C41.5301704,44.7719298 41.8193739,44.8464513 42.0199575,44.9964316 C42.2205411,45.1459432 42.3212652,45.3676328 42.3212652,45.6619691 C42.3212652,45.8864709 42.263338,46.0725402 42.1474837,46.2197083 C42.0320617,46.3668765 41.8725458,46.477487 41.6693685,46.5520084 C41.933499,46.6012207 42.1306243,46.7094877 42.2607443,46.8744661 C42.3908642,47.0399131 42.4561404,47.2423865 42.4561404,47.4814176 C42.4561404,47.856837 42.3303433,48.1427369 42.0787492,48.33818 C41.8271552,48.5340918 41.4869412,48.6315789 41.057675,48.6315789 C40.7611225,48.6315789 40.4602471,48.575805 40.1554811,48.4642572 L40.1403509,48.4459783 L40.2661479,47.5292238 L40.3794085,47.5086015 L40.5536222,48.2974041 C40.7222162,48.3695821 40.899456,48.4066085 41.0844771,48.4066085 C41.3486077,48.4066085 41.5530819,48.3302123 41.6991967,48.1792946 C41.8448791,48.0274396 41.9179365,47.8160611 41.9179365,47.5456279 C41.9179365,47.2733199 41.84315,47.0661596 41.6931446,46.9260218 C41.5427069,46.7868213 41.3278576,46.7165181 41.0477323,46.7165181 C40.9621384,46.7165181 40.8410966,46.7305787 40.6841745,46.7587 L40.6690443,46.4456162 C40.8445549,46.4685819 40.9707843,46.4798304 41.0477323,46.4798304 C41.2950034,46.4798304 41.4795922,46.4137454 41.600634,46.2806378 C41.7221081,46.147999 41.7826291,45.9619297 41.7826291,45.7224299 C41.7826291,45.480118 41.7208113,45.2973295 41.5971757,45.1740645 C41.4731078,45.0512681 41.3010555,44.9894013 41.0797219,44.9894013 C40.9258259,44.9894013 40.7680392,45.0212721 40.6076588,45.0850137" id="Fill-10" fill="#2D4F91"></path>
                <path d="M48.7925076,47.2784451 L48.7925076,47.613113 C48.7925076,47.6515493 48.8174907,47.6763971 48.8674569,47.6880445 L49.1648969,47.7649171 L49.1733817,47.8596491 C48.9603185,47.8549902 48.7477267,47.8530489 48.5351349,47.8530489 C48.322543,47.8530489 48.100995,47.8549902 47.8704908,47.8596491 L47.8596491,47.7649171 L48.1891429,47.6837737 C48.2362807,47.6717381 48.2598497,47.6492199 48.2617352,47.6150542 C48.2650348,47.4966392 48.2669204,47.3502706 48.2669204,47.1775012 L48.2669204,45.3923467 C48.2669204,45.2455898 48.2650348,45.1240688 48.2617352,45.0277838 C48.2598497,44.9893475 48.2386376,44.9641115 48.1976277,44.9524641 L47.8653057,44.8666618 L47.8596491,44.7719298 C48.0901533,44.7777535 48.3117013,44.7808595 48.5247645,44.7808595 C48.7387705,44.7808595 48.9504195,44.7777535 49.1597117,44.7719298 L49.1733817,44.8666618 L48.8674569,44.9435345 C48.8226759,44.9524641 48.7995783,44.9753707 48.7981642,45.0118658 C48.7943932,45.1174686 48.7925076,45.2417073 48.7925076,45.3838053 L48.7925076,46.9616365 L50.7840828,45.2277305 L50.7840828,45.0118658 C50.7840828,44.9784766 50.7590998,44.9555701 50.7086622,44.9435345 L50.4112222,44.8666618 L50.4032088,44.7719298 C50.6214572,44.7777535 50.8382914,44.7808595 51.0532401,44.7808595 C51.2667747,44.7808595 51.485023,44.7777535 51.7089279,44.7719298 L51.7192982,44.8666618 L51.3817911,44.9524641 C51.3407811,44.9641115 51.3195691,44.9893475 51.3176836,45.0277838 C51.312027,45.1240688 51.3096701,45.2455898 51.3096701,45.3923467 L51.3096701,47.1775012 C51.3096701,47.3502706 51.312027,47.4966392 51.3176836,47.6150542 C51.3195691,47.6492199 51.3436094,47.6717381 51.3898045,47.6837737 L51.7141131,47.7649171 L51.7192982,47.8596491 C51.4817234,47.8549902 51.2559329,47.8530489 51.0423984,47.8530489 C50.8293352,47.8530489 50.6205144,47.8549902 50.4168788,47.8596491 L50.4032088,47.7649171 L50.7086622,47.6880445 C50.7534432,47.6779501 50.7765408,47.6527141 50.7784263,47.613113 L50.7840828,47.1775012 L50.7840828,45.5445391 L48.7925076,47.2784451" id="Fill-11" fill="#2D4F91"></path>
                <path d="M56.5221735,46.3299604 L56.5221735,47.1775012 C56.5221735,47.3502706 56.52408,47.4958628 56.527893,47.613113 C56.5297994,47.6527141 56.5526771,47.6779501 56.5979557,47.6880445 L56.8991781,47.7649171 L56.9077572,47.8596491 C56.6918494,47.8549902 56.4773715,47.8530489 56.2619404,47.8530489 C56.0469858,47.8530489 55.8229756,47.8549902 55.5899096,47.8596491 L55.5789474,47.7649171 L55.9121031,47.6837737 C55.9592882,47.6717381 55.9835957,47.6492199 55.9855022,47.6150542 C55.9893151,47.4966392 55.990745,47.3502706 55.990745,47.1775012 L55.990745,45.3923467 C55.990745,45.2455898 55.9893151,45.1240688 55.9855022,45.0277838 C55.9835957,44.9893475 55.9621479,44.9641115 55.9206822,44.9524641 L55.5846668,44.8666618 L55.5789474,44.7719298 C55.8120134,44.7777535 56.0360236,44.7808595 56.2519314,44.7808595 C56.4678391,44.7808595 56.6823171,44.7777535 56.8934586,44.7719298 L56.9077572,44.8666618 L56.5979557,44.9435345 C56.5526771,44.9524641 56.5297994,44.9753707 56.527893,45.0118658 C56.52408,45.1174686 56.5221735,45.2417073 56.5221735,45.3838053 L56.5221735,46.1300138 L58.4958469,46.1300138 L58.4958469,45.3838053 C58.4958469,45.2417073 58.4934638,45.1174686 58.4901275,45.0118658 C58.4877444,44.9753707 58.4643902,44.9524641 58.4195881,44.9435345 L58.119319,44.8666618 L58.113123,44.7719298 C58.3333203,44.7777535 58.5511346,44.7808595 58.7665657,44.7808595 C58.9810436,44.7808595 59.2017176,44.7777535 59.4276343,44.7719298 L59.4385965,44.8666618 L59.0968617,44.9524641 C59.055396,44.9641115 59.0334716,44.9893475 59.0325183,45.0277838 C59.0282288,45.1240688 59.0263223,45.2455898 59.0263223,45.3923467 L59.0263223,47.1775012 C59.0263223,47.3502706 59.0282288,47.4966392 59.0325183,47.6150542 C59.0334716,47.6492199 59.0582557,47.6717381 59.1049642,47.6837737 L59.4328771,47.7649171 L59.4385965,47.8596491 C59.1998111,47.8549902 58.9729411,47.8530489 58.7556035,47.8530489 C58.5401724,47.8530489 58.329984,47.8549902 58.1240852,47.8596491 L58.113123,47.7649171 L58.4195881,47.6880445 C58.4643902,47.6779501 58.4877444,47.6527141 58.4901275,47.613113 C58.4934638,47.4958628 58.4958469,47.3502706 58.4958469,47.1775012 L58.4958469,46.3299604 L56.5221735,46.3299604" id="Fill-12" fill="#2D4F91"></path>
                <path d="M66.9301388,45.7557437 L66.8241626,45.7716116 L66.6312673,45.0762214 C66.4128076,45.0216169 66.2147994,44.9940813 66.0367779,44.9940813 C65.6049713,44.9940813 65.2656615,45.1452937 65.0188485,45.4463183 C64.7725003,45.7478097 64.6488614,46.139375 64.6488614,46.6210144 C64.6488614,47.1357899 64.7896982,47.5469569 65.0718366,47.853582 C65.353975,48.1606738 65.7448785,48.3137529 66.2426879,48.3137529 C66.5229671,48.3137529 66.8181201,48.2605486 67.128147,48.1527398 L67.1578947,48.2717495 C66.8106832,48.5116358 66.4174557,48.6315789 65.9786769,48.6315789 C65.4092872,48.6315789 64.9495921,48.4579647 64.5972677,48.1102696 C64.2458728,47.7630412 64.0701754,47.3052038 64.0701754,46.737224 C64.0701754,46.1323745 64.2635356,45.6535353 64.6502558,45.3007064 C65.036976,44.9478776 65.540363,44.7719298 66.1608817,44.7719298 C66.4588236,44.7719298 66.7632728,44.8083328 67.0756237,44.8806721 L67.0937512,44.9012071 L66.9301388,45.7557437" id="Fill-13" fill="#2D4F91"></path>
                <path d="M71.7880461,46.282859 L71.7880461,47.6512184 C71.8663033,47.6760131 71.9694782,47.6884105 72.0979601,47.6884105 C72.3459692,47.6884105 72.532852,47.6271985 72.6589979,47.5047745 C72.7851438,47.3827379 72.8482167,47.2041383 72.8482167,46.9678135 C72.8482167,46.7307139 72.7824184,46.555601 72.6500431,46.4420877 C72.5180571,46.3285743 72.3117073,46.2716239 72.0313831,46.2716239 C71.9959532,46.2716239 71.9581873,46.2731735 71.9173067,46.2751106 C71.8768154,46.2774351 71.8339881,46.280147 71.7880461,46.282859 Z M71.7880461,45.3825002 L71.7880461,46.1050342 C71.9095199,46.0934117 72.0302151,46.0876004 72.1505209,46.0876004 C72.5445321,46.0876004 72.8404299,46.1596601 73.0374356,46.3037795 C73.2348305,46.4478989 73.3333333,46.6524555 73.3333333,46.9174492 C73.3333333,47.0871382 73.3006288,47.2324198 73.2356092,47.3525193 C73.1702002,47.4722314 73.0825989,47.5698607 72.9712479,47.6446323 C72.8598969,47.7190165 72.7310256,47.7736424 72.5834661,47.8081226 C72.4362959,47.8422153 72.2809495,47.8596491 72.1182057,47.8596491 C72.0430633,47.8596491 71.9605234,47.857712 71.8725327,47.853063 C71.7849314,47.848414 71.6856499,47.8464769 71.5762456,47.8464769 C71.3971496,47.8464769 71.2137708,47.848414 71.0264987,47.853063 L71.0175439,47.7585331 L71.289692,47.6775628 C71.3266792,47.6671025 71.3469248,47.6446323 71.3496502,47.6089899 C71.3508182,47.5504898 71.3519862,47.4850162 71.3527649,47.4129565 C71.3535436,47.3405094 71.3539329,47.2599265 71.3539329,47.1723701 L71.3539329,45.3910234 C71.3539329,45.3170266 71.3535436,45.2492285 71.3527649,45.1891787 C71.3519862,45.1295164 71.3508182,45.0748905 71.3496502,45.0272381 C71.3480928,44.9888838 71.3309619,44.9637016 71.2963107,44.9520791 L71.0222159,44.8664598 L71.0175439,44.7719298 C71.2079307,44.7777411 71.3909201,44.7808404 71.5665121,44.7808404 C71.7436614,44.7808404 71.9340483,44.7777411 72.1376727,44.7719298 L72.1485742,44.8664598 L71.849951,44.9544036 C71.8129638,44.9675758 71.7938862,44.990046 71.7923288,45.0222017 C71.7907715,45.0741157 71.7896035,45.1295164 71.7892141,45.190341 C71.7884354,45.2507781 71.7880461,45.3150895 71.7880461,45.3825002 L71.7880461,45.3825002 Z" id="Fill-14" fill="#2D4F91"></path>
                <path d="M79.5888494,46.8138025 L79.5888494,47.7515443 C79.5888494,47.8602262 79.5892799,47.9583284 79.5905715,48.045851 C79.591002,48.1328927 79.5922936,48.2127209 79.5940157,48.2829314 C79.5957378,48.3391959 79.6168335,48.374782 79.6577333,48.3892088 L79.929394,48.4791358 L79.9367129,48.5964737 C79.7429771,48.590703 79.5483802,48.5882986 79.3542138,48.5882986 C79.1566032,48.5882986 78.9546873,48.590703 78.7467442,48.5964737 L78.7368421,48.4791358 L79.038209,48.3786291 C79.0795393,48.365645 79.1010655,48.3377532 79.1045097,48.293511 C79.1058013,48.2208961 79.1070929,48.1396252 79.1079539,48.050179 C79.108815,47.960252 79.1092455,47.8602262 79.1092455,47.7515443 L79.1092455,45.5403972 C79.1092455,45.4485466 79.108815,45.3643903 79.1079539,45.2898518 C79.1070929,45.2157943 79.1058013,45.1479883 79.1045097,45.0888385 C79.1027876,45.04123 79.0834141,45.009972 79.0455279,44.9955452 L78.7420084,44.8892678 L78.7368421,44.7719298 C78.8449037,44.775777 78.9482295,44.7781814 79.0481111,44.780105 C79.1475622,44.7820286 79.2461522,44.7829904 79.3443117,44.7829904 C79.4420407,44.7829904 79.5389086,44.7820286 79.6340545,44.780105 C79.7296308,44.7781814 79.8264988,44.775777 79.9242277,44.7719298 L79.9367129,44.8892678 L79.6577333,44.9844846 C79.6168335,44.9955452 79.5957378,45.0239179 79.5940157,45.0691218 C79.5922936,45.1345233 79.591002,45.2052146 79.5905715,45.2816767 C79.5892799,45.3576578 79.5888494,45.4408523 79.5888494,45.5298176 L79.5888494,46.5738368 L79.8458723,46.5738368 C79.9212141,46.5738368 79.9883758,46.5719132 80.0486492,46.5656616 C80.107631,46.5598909 80.1623076,46.5473877 80.2122484,46.5262284 C80.2617587,46.5050691 80.3069637,46.4752537 80.3470025,46.4363013 C80.3866107,46.397349 80.4240663,46.3439698 80.4593693,46.2766448 C80.4946723,46.2102815 80.5273921,46.1266061 80.5583898,46.0289847 C80.5898181,45.9304016 80.6212464,45.811621 80.6539662,45.6712002 C80.686686,45.5259704 80.7155312,45.4028618 80.7409321,45.3009124 C80.7667635,45.1994439 80.7908729,45.1148067 80.8154128,45.0489243 C80.8399526,44.9825611 80.8653536,44.9306246 80.8920461,44.8935958 C80.917447,44.8560861 80.9475837,44.8286752 80.9824561,44.8113631 C81.0168981,44.7940509 81.0569368,44.7839522 81.1042945,44.780105 C81.1516521,44.7767388 81.2089119,44.7748152 81.2756431,44.7748152 C81.4147024,44.7748152 81.5636638,44.7820286 81.7238187,44.7964554 L81.7341513,44.9657298 C81.6209235,44.9690961 81.5257776,44.9883318 81.4487138,45.0210325 C81.3707889,45.0551759 81.3044882,45.1032653 81.247659,45.1667432 C81.1912604,45.2287784 81.1421806,45.3057213 81.0982671,45.3975719 C81.0547842,45.4899034 81.0108707,45.5937764 80.9648046,45.7096716 C80.9307932,45.7952706 80.8954903,45.879427 80.8597568,45.9631024 C80.8235927,46.0467778 80.7852761,46.1261252 80.7448068,46.2021063 C80.703907,46.2771257 80.659563,46.3468552 80.6113443,46.4103331 C80.5631256,46.473811 80.5093101,46.5281519 80.4507588,46.5738368 C80.5687224,46.766675 80.6763535,46.9542233 80.7740824,47.1379246 C80.8718114,47.3216258 80.9622215,47.4904193 81.0457432,47.644786 C81.1245291,47.7885731 81.1959961,47.915048 81.2597137,48.0242108 C81.3242923,48.1328927 81.3845657,48.2184917 81.4396728,48.2805269 C81.469379,48.3108232 81.4977936,48.3377532 81.5253471,48.3589125 C81.5533312,48.3810336 81.5817458,48.3993075 81.6110214,48.415177 C81.6402971,48.4305656 81.6717253,48.4440306 81.7040146,48.4546102 C81.7367345,48.4656708 81.7746206,48.4767313 81.816812,48.487311 L81.8245614,48.6070534 C81.7065978,48.6234038 81.6092993,48.6315789 81.5305134,48.6315789 C81.4633516,48.6315789 81.4048003,48.6301363 81.3539985,48.62677 C81.3040577,48.622442 81.2584221,48.6152286 81.2183834,48.6046489 C81.1787752,48.5940693 81.1426111,48.5796425 81.1107523,48.5623303 C81.078463,48.5454991 81.0483263,48.5228971 81.0186202,48.4954862 C80.9458616,48.4358554 80.873103,48.3468902 80.8007749,48.2285904 C80.7288774,48.1102907 80.6539662,47.9713125 80.5756108,47.8111751 C80.5118932,47.6856619 80.4473146,47.554859 80.3810139,47.4187662 C80.3147132,47.2826734 80.2428156,47.1485042 80.1644602,47.0152968 C80.1416424,46.9773062 80.1218383,46.9450864 80.1054784,46.9186372 C80.0891185,46.892669 80.071467,46.8715097 80.0529545,46.8561211 C80.0340114,46.8402516 80.0133462,46.8301529 79.9892369,46.8234204 C79.9655581,46.8166879 79.9349909,46.8138025 79.8975352,46.8138025 L79.5888494,46.8138025" id="Fill-15" fill="#2D4F91"></path>
                <path d="M87.388885,47.2784451 L87.388885,47.613113 C87.388885,47.6515493 87.413865,47.6763971 87.4647677,47.6880445 L87.7617,47.7649171 L87.7697125,47.8596491 C87.5566753,47.8549902 87.3445808,47.8530489 87.1320149,47.8530489 C86.9189777,47.8530489 86.6974568,47.8549902 86.4669807,47.8596491 L86.4561404,47.7649171 L86.7860652,47.6837737 C86.8322547,47.6717381 86.8572347,47.6492199 86.8581773,47.6150542 C86.8619479,47.4966392 86.8633618,47.3502706 86.8633618,47.1775012 L86.8633618,45.3923467 C86.8633618,45.2455898 86.8619479,45.1240688 86.8581773,45.0277838 C86.8572347,44.9893475 86.8355539,44.9641115 86.7940776,44.9524641 L86.4617962,44.8666618 L86.4561404,44.7719298 C86.6866164,44.7777535 86.9081374,44.7808595 87.1211745,44.7808595 C87.3351543,44.7808595 87.5472489,44.7777535 87.7560442,44.7719298 L87.7697125,44.8666618 L87.4647677,44.9435345 C87.4195208,44.9524641 87.3964261,44.9753707 87.3945408,45.0118658 C87.3907702,45.1174686 87.388885,45.2417073 87.388885,45.3838053 L87.388885,46.9616365 L89.3802169,45.2277305 L89.3802169,45.0118658 C89.3802169,44.9784766 89.3552369,44.9555701 89.3057482,44.9435345 L89.0078732,44.8666618 L88.9998607,44.7719298 C89.2180825,44.7777535 89.4339476,44.7808595 89.6498126,44.7808595 C89.8633211,44.7808595 90.0815428,44.7777535 90.3049491,44.7719298 L90.3157895,44.8666618 L89.9783235,44.9524641 C89.9363759,44.9641115 89.9161091,44.9893475 89.9132812,45.0277838 C89.908568,45.1240688 89.9052687,45.2455898 89.9052687,45.3923467 L89.9052687,47.1775012 C89.9052687,47.3502706 89.908568,47.4966392 89.9132812,47.6150542 C89.9161091,47.6492199 89.9401465,47.6717381 89.9858646,47.6837737 L90.3101336,47.7649171 L90.3157895,47.8596491 C90.0777723,47.8549902 89.8524808,47.8530489 89.6389723,47.8530489 C89.4254638,47.8530489 89.2166685,47.8549902 89.0130577,47.8596491 L88.9998607,47.7649171 L89.3057482,47.6880445 C89.3500524,47.6779501 89.3731471,47.6527141 89.3750324,47.613113 L89.3802169,47.1775012 L89.3802169,45.5445391 L87.388885,47.2784451" id="Fill-16" fill="#2D4F91"></path>
                <path d="M95.6390696,43.2896014 L95.6390696,43.6406911 C95.6390696,43.6596933 95.6508541,43.6768859 95.6734802,43.6927211 C95.6965778,43.7076515 95.7291029,43.7203197 95.7691701,43.7307257 C95.8087659,43.7406792 95.8563752,43.7483706 95.9110551,43.7537999 C95.9657351,43.7587766 96.0246574,43.7614913 96.0892363,43.7614913 C96.1533438,43.7614913 96.2122661,43.7587766 96.2660033,43.7537999 C96.3192691,43.7483706 96.366407,43.7406792 96.4055314,43.7307257 C96.4446559,43.7203197 96.4752955,43.7076515 96.4965075,43.6927211 C96.5181909,43.6768859 96.5285613,43.6596933 96.5285613,43.6406911 L96.5285613,43.2896014 C96.5625005,43.2687893 96.5983253,43.253859 96.6341501,43.2430005 C96.671389,43.233047 96.7062711,43.2280702 96.7378534,43.2280702 C96.8165737,43.2280702 96.879267,43.2529541 96.9268763,43.3022695 C96.9740142,43.3524899 96.9975831,43.4126637 96.9975831,43.4836961 C96.9975831,43.5818745 96.9669435,43.6619555 96.9042501,43.7239391 C96.8415567,43.7863752 96.7642506,43.8361431 96.6709176,43.8727903 C96.578056,43.90989 96.4781237,43.9356788 96.370178,43.9497043 C96.263175,43.9646347 96.166071,43.9718736 96.0783946,43.9718736 C95.9911895,43.9718736 95.8940855,43.9646347 95.7875539,43.9497043 C95.6810223,43.9356788 95.5820328,43.90989 95.4901139,43.8727903 C95.3977237,43.8361431 95.3213603,43.7863752 95.2605525,43.7239391 C95.200216,43.6619555 95.1695764,43.5818745 95.1695764,43.4836961 C95.1695764,43.4126637 95.1936167,43.3524899 95.2402832,43.3022695 C95.2878924,43.2529541 95.3510572,43.2280702 95.4302488,43.2280702 C95.4618312,43.2280702 95.4962418,43.233047 95.5330094,43.2430005 C95.5693055,43.253859 95.6051303,43.2687893 95.6390696,43.2896014 Z M95.1082971,47.1823537 L95.1082971,47.5723528 C95.1082971,47.6171439 95.1328088,47.6460997 95.1832463,47.6596728 L95.4802149,47.7492549 L95.4891711,47.8596491 C95.2765793,47.8542199 95.0635161,47.8519577 94.850453,47.8519577 C94.6378611,47.8519577 94.4167845,47.8542199 94.1862803,47.8596491 L94.1754386,47.7492549 L94.5049323,47.654696 C94.5515988,47.6406705 94.5756391,47.6144293 94.5775247,47.574615 C94.5808243,47.4366222 94.5827098,47.2660542 94.5827098,47.0647205 L94.5827098,44.9844235 C94.5827098,44.813403 94.5808243,44.6717908 94.5775247,44.5595869 C94.5756391,44.5147958 94.5539557,44.4853875 94.5129458,44.4718145 L94.1806238,44.3718263 L94.1754386,44.2614321 C94.4054714,44.2682187 94.6274908,44.2718381 94.8400826,44.2718381 C95.0545599,44.2718381 95.266209,44.2682187 95.4755012,44.2614321 L95.4891711,44.3718263 L95.1832463,44.4614085 C95.1389367,44.4718145 95.1153678,44.4985082 95.1130109,44.5410371 C95.1097113,44.6640994 95.1082971,44.8088787 95.1082971,44.97447 L95.1082971,46.8131665 L97.0994009,44.792591 L97.0994009,44.5410371 C97.0994009,44.5021276 97.0744178,44.475434 97.0249231,44.4614085 L96.7274831,44.3718263 L96.7189983,44.2614321 C96.9372466,44.2682187 97.1536095,44.2718381 97.3690296,44.2718381 C97.5825641,44.2718381 97.8008125,44.2682187 98.0247174,44.2614321 L98.0350877,44.3718263 L97.6971092,44.4718145 C97.6560992,44.4853875 97.6353585,44.5147958 97.633473,44.5595869 C97.6278165,44.6717908 97.6245168,44.813403 97.6245168,44.9844235 L97.6245168,47.0647205 C97.6245168,47.2660542 97.6278165,47.4366222 97.633473,47.574615 C97.6353585,47.6144293 97.6589275,47.6406705 97.7051226,47.654696 L98.0294312,47.7492549 L98.0350877,47.8596491 C97.7975128,47.8542199 97.5717224,47.8519577 97.3586592,47.8519577 C97.1451247,47.8519577 96.9363039,47.8542199 96.7321969,47.8596491 L96.7189983,47.7492549 L97.0249231,47.6596728 C97.0687613,47.6479095 97.0928016,47.6185012 97.0942158,47.5723528 L97.0994009,47.0647205 L97.0994009,45.1617781 L95.1082971,47.1823537 L95.1082971,47.1823537 Z" id="Fill-17" fill="#2D4F91"></path>
                <path d="M109.623112,46.3696 C109.727299,46.3870207 109.831091,46.3959246 109.93291,46.3959246 C110.171672,46.3959246 110.353998,46.3355329 110.479102,46.2147495 C110.604205,46.0943532 110.666559,45.909694 110.666559,45.6611589 C110.666559,45.4230762 110.606967,45.244611 110.487784,45.1276989 C110.3686,45.0107867 110.181538,44.9519435 109.925806,44.9519435 C109.825566,44.9519435 109.724536,44.9581376 109.623112,44.9701385 L109.623112,46.3696 Z M109.623112,47.1794682 C109.623112,47.2669588 109.623112,47.3459325 109.623901,47.4163895 C109.624691,47.4864594 109.625875,47.549561 109.627058,47.6053071 C109.628637,47.6389871 109.648369,47.6614405 109.686256,47.6730543 L109.995264,47.7651903 L110,47.8596491 C109.783339,47.8550036 109.586015,47.853068 109.40724,47.853068 C109.226097,47.853068 109.041007,47.8550036 108.851182,47.8596491 L108.842105,47.7651903 L109.117964,47.6842809 C109.156639,47.67228 109.177161,47.6498267 109.178739,47.6157596 C109.179923,47.5573035 109.181107,47.4918791 109.181896,47.4198737 C109.182291,47.347481 109.182686,47.2669588 109.182686,47.1794682 L109.182686,45.3994615 C109.182686,45.3255204 109.182291,45.2577733 109.181896,45.1977687 C109.181107,45.1381513 109.179923,45.0835665 109.178739,45.03595 C109.177161,44.9976245 109.159402,44.9724612 109.125067,44.9608475 L108.846841,44.8752925 L108.842105,44.7808337 C109.034693,44.7866406 109.223729,44.7897376 109.406845,44.7897376 C109.530765,44.7897376 109.649948,44.7866406 109.76558,44.7808337 C109.881211,44.7750268 109.985793,44.7719298 110.081297,44.7719298 C110.435296,44.7719298 110.704051,44.8400641 110.885588,44.974784 C111.067521,45.1102782 111.157895,45.311971 111.157895,45.5794753 C111.157895,45.8942089 111.052524,46.1384856 110.842572,46.3126925 C110.632225,46.4868993 110.337423,46.5736156 109.958167,46.5736156 C109.853981,46.5736156 109.742295,46.5670344 109.623112,46.5538721 L109.623112,47.1794682 L109.623112,47.1794682 Z" id="Fill-18" fill="#2D4F91"></path>
                <path d="M116.365358,44.7808595 L116.930214,44.7808595 C117.276562,44.7808595 117.643331,44.7777535 118.02807,44.7719298 L118.041957,44.7894009 L117.907584,45.4696076 L117.814871,45.4847492 L117.670695,44.9765354 L116.597754,44.9765354 L116.597754,46.187086 L116.809728,46.187086 C116.969832,46.187086 117.149541,46.1859212 117.348037,46.182427 C117.388063,46.1812623 117.414611,46.1622382 117.427272,46.1253549 L117.508549,45.8283468 L117.63312,45.8240761 C117.629036,46.0294582 117.626585,46.1812623 117.626585,46.2794885 C117.626585,46.374997 117.629036,46.5244716 117.63312,46.7283007 L117.508549,46.7372304 L117.424821,46.4355633 C117.411752,46.3975152 117.388063,46.3777147 117.352121,46.3761617 C117.151174,46.373444 116.969015,46.371891 116.806461,46.371891 L116.597754,46.371891 L116.597754,47.1728422 C116.597754,47.3359055 116.598979,47.4966392 116.602246,47.6546553 L117.717256,47.6546553 L118.000705,47.0959695 L118.105263,47.0781102 L118.05421,47.8445075 L118.037464,47.8596491 C117.636387,47.8549902 117.266351,47.8530489 116.927355,47.8530489 L116.374752,47.8530489 C116.187283,47.8530489 115.995322,47.8549902 115.798868,47.8596491 L115.789474,47.7649171 L116.075374,47.6837737 C116.113357,47.6732911 116.134596,47.6507729 116.137863,47.6150542 C116.139497,47.5564291 116.140722,47.4908156 116.141539,47.4186018 C116.141947,47.3459999 116.142356,47.2652447 116.142356,47.1775012 L116.142356,45.3923467 C116.142356,45.3181917 116.141947,45.2502487 116.141539,45.1900706 C116.140722,45.1302808 116.139497,45.0755381 116.137863,45.0277838 C116.136229,44.9893475 116.11785,44.9641115 116.082725,44.9524641 L115.794375,44.8666618 L115.789474,44.7719298 C115.988787,44.7777535 116.181157,44.7808595 116.365358,44.7808595" id="Fill-19" fill="#2D4F91"></path>
                <path d="M125.597202,45.7557437 L125.491194,45.7716116 L125.298705,45.0762214 C125.080645,45.0216169 124.881647,44.9940813 124.703572,44.9940813 C124.271635,44.9940813 123.932223,45.1452937 123.685801,45.4463183 C123.439378,45.7478097 123.315702,46.139375 123.315702,46.6210144 C123.315702,47.1357899 123.457046,47.5469569 123.73834,47.853582 C124.020563,48.1606738 124.410655,48.3137529 124.910009,48.3137529 C125.190372,48.3137529 125.485614,48.2605486 125.79527,48.1527398 L125.824561,48.2717495 C125.477245,48.5116358 125.084364,48.6315789 124.645453,48.6315789 C124.076357,48.6315789 123.615594,48.4579647 123.264558,48.1102696 C122.913057,47.7630412 122.736842,47.3052038 122.736842,46.737224 C122.736842,46.1323745 122.93026,45.6535353 123.317097,45.3007064 C123.703934,44.9478776 124.207472,44.7719298 124.828178,44.7719298 C125.12621,44.7719298 125.431215,44.8083328 125.742731,44.8806721 L125.761793,44.9012071 L125.597202,45.7557437" id="Fill-20" fill="#2D4F91"></path>
                <path d="M131.217646,47.8530489 C131.010941,47.8530489 130.782056,47.8549902 130.531881,47.8596491 L130.521235,47.7649171 L130.895168,47.6678557 C130.937307,47.6581495 130.959486,47.6348548 130.96126,47.5995244 C130.964365,47.4884861 130.965696,47.3463881 130.965696,47.1728422 L130.965696,44.9765354 L130.074999,44.9765354 L129.850551,45.5620101 L129.749859,45.57754 L129.684211,44.7894009 L129.702397,44.7719298 C130.115365,44.7777535 130.511476,44.7808595 130.890288,44.7808595 L131.56319,44.7808595 C131.940228,44.7808595 132.337671,44.7777535 132.756848,44.7719298 L132.77193,44.7894009 L132.612687,45.5620101 L132.511995,45.57754 L132.350978,44.9765354 L131.460281,44.9765354 L131.460281,47.1728422 C131.460281,47.3463881 131.462056,47.4884861 131.464717,47.5995244 C131.466935,47.6348548 131.48867,47.6581495 131.531253,47.6678557 L131.904742,47.7649171 L131.908735,47.8596491 C131.6488,47.8549902 131.418142,47.8530489 131.217646,47.8530489" id="Fill-21" fill="#2D4F91"></path>
                <path d="M137.987991,46.6514997 C137.987991,47.2221331 138.105263,47.6598348 138.339807,47.9632154 C138.57435,48.2665959 138.91866,48.418981 139.372268,48.418981 C139.818369,48.418981 140.147669,48.2809544 140.360165,48.0049012 C140.572662,47.7297745 140.679144,47.2967045 140.679144,46.7070809 C140.679144,46.1540483 140.566094,45.7283891 140.339994,45.4305667 C140.114363,45.1336706 139.765363,44.984991 139.294399,44.984991 C138.837508,44.984991 138.505395,45.1230176 138.298527,45.3981443 C138.091191,45.6737343 137.987991,46.0919826 137.987991,46.6514997 Z M141.263158,46.6176879 C141.263158,47.2230594 141.088657,47.710321 140.739188,48.0785463 C140.390187,48.4472347 139.901867,48.6315789 139.275167,48.6315789 C138.679426,48.6315789 138.218313,48.46113 137.892767,48.1206954 C137.566751,47.7802607 137.403509,47.3198633 137.403509,46.7385769 C137.403509,46.1327422 137.578478,45.6538177 137.930294,45.3013405 C138.281171,44.9484 138.767614,44.7719298 139.389155,44.7719298 C139.986303,44.7719298 140.447884,44.9372838 140.7739,45.2666022 C141.100385,45.596847 141.263158,46.0470545 141.263158,46.6176879 L141.263158,46.6176879 Z" id="Fill-22" fill="#2D4F91"></path>
                <path d="M145.903419,46.3696 C146.008001,46.3870207 146.111003,46.3959246 146.212822,46.3959246 C146.452768,46.3959246 146.6347,46.3355329 146.759803,46.2147495 C146.884117,46.0943532 146.946866,45.909694 146.946866,45.6611589 C146.946866,45.4230762 146.887274,45.244611 146.76888,45.1276989 C146.649302,45.0107867 146.461845,44.9519435 146.206113,44.9519435 C146.105873,44.9519435 146.004843,44.9581376 145.903419,44.9701385 L145.903419,46.3696 Z M145.903419,47.1794682 C145.903419,47.2669588 145.903419,47.3459325 145.904208,47.4163895 C145.904998,47.4864594 145.906576,47.549561 145.90776,47.6053071 C145.909339,47.6389871 145.929071,47.6614405 145.966168,47.6730543 L146.275571,47.7651903 L146.280307,47.8596491 C146.063646,47.8550036 145.865928,47.853068 145.687942,47.853068 C145.506799,47.853068 145.321709,47.8550036 145.131489,47.8596491 L145.122807,47.7651903 L145.39906,47.6842809 C145.437341,47.67228 145.457468,47.6498267 145.459046,47.6157596 C145.460625,47.5573035 145.461809,47.4918791 145.462598,47.4198737 C145.462993,47.347481 145.463388,47.2669588 145.463388,47.1794682 L145.463388,45.3994615 C145.463388,45.3255204 145.462993,45.2577733 145.462598,45.1977687 C145.461809,45.1381513 145.460625,45.0835665 145.459046,45.03595 C145.457468,44.9976245 145.439314,44.9724612 145.405374,44.9608475 L145.126753,44.8752925 L145.122807,44.7808337 C145.315,44.7866406 145.503642,44.7897376 145.687547,44.7897376 C145.811466,44.7897376 145.930255,44.7866406 146.045887,44.7808337 C146.161124,44.7750268 146.266494,44.7719298 146.361604,44.7719298 C146.716392,44.7719298 146.983963,44.8400641 147.165501,44.974784 C147.347433,45.1102782 147.438596,45.311971 147.438596,45.5794753 C147.438596,45.8942089 147.333226,46.1384856 147.122879,46.3126925 C146.912926,46.4868993 146.61852,46.5736156 146.239264,46.5736156 C146.134682,46.5736156 146.022603,46.5670344 145.903419,46.5538721 L145.903419,47.1794682 L145.903419,47.1794682 Z" id="Fill-23" fill="#2D4F91"></path>
                <path d="M153.375851,46.9752578 L154.467879,46.9752578 L153.950553,45.4819867 L153.375851,46.9752578 Z M154.221578,44.7719298 L155.398971,48.0869629 C155.443287,48.2112827 155.483404,48.2959157 155.519789,48.3399058 C155.556175,48.384374 155.607954,48.4173665 155.675127,48.4393615 L155.924227,48.5149097 L155.929825,48.6315789 C155.697984,48.6258411 155.483404,48.6234504 155.28515,48.6234504 C155.084098,48.6234504 154.845727,48.6258411 154.571437,48.6315789 L154.561641,48.5149097 L154.813073,48.4393615 C154.848059,48.4264514 154.873716,48.412585 154.889109,48.3972841 C154.90357,48.3819832 154.9115,48.3580756 154.9115,48.3255612 C154.9115,48.2892216 154.901704,48.2418844 154.883045,48.1830717 C154.864386,48.1242589 154.83873,48.04632 154.804677,47.9482986 L154.555577,47.2219846 L153.277424,47.2219846 L152.998469,47.9459079 C152.962084,48.0472763 152.932229,48.1276059 152.910771,48.1868969 C152.890246,48.246666 152.879517,48.2940031 152.879517,48.3279519 C152.879517,48.3590319 152.887447,48.3819832 152.904707,48.3972841 C152.921034,48.412585 152.94669,48.4254951 152.97981,48.4360145 L153.227044,48.50965 L153.231709,48.6315789 C152.981209,48.6258411 152.775959,48.6234504 152.616889,48.6234504 C152.457353,48.6234504 152.279625,48.6258411 152.083703,48.6315789 L152.070175,48.5149097 L152.337935,48.4307548 C152.405108,48.4097161 152.455021,48.3757672 152.486741,48.3303427 C152.518462,48.2858745 152.553914,48.2151079 152.593099,48.1194773 L153.948221,44.8125728 L154.221578,44.7719298 L154.221578,44.7719298 Z" id="Fill-24" fill="#2D4F91"></path>
                <path d="M160.732456,46.3299604 L160.732456,47.1775012 C160.732456,47.3502706 160.733886,47.4958628 160.7377,47.613113 C160.739607,47.6527141 160.763444,47.6779501 160.808257,47.6880445 L161.109077,47.7649171 L161.117658,47.8596491 C160.902651,47.8549902 160.687166,47.8530489 160.472159,47.8530489 C160.256674,47.8530489 160.033085,47.8549902 159.799962,47.8596491 L159.789474,47.7649171 L160.123188,47.6837737 C160.169432,47.6717381 160.193745,47.6492199 160.195652,47.6150542 C160.199466,47.4966392 160.201373,47.3502706 160.201373,47.1775012 L160.201373,45.3923467 C160.201373,45.2455898 160.199466,45.1240688 160.195652,45.0277838 C160.193745,44.9893475 160.171815,44.9641115 160.130816,44.9524641 L159.794241,44.8666618 L159.789474,44.7719298 C160.021644,44.7777535 160.246663,44.7808595 160.461194,44.7808595 C160.678108,44.7808595 160.892162,44.7777535 161.103833,44.7719298 L161.117658,44.8666618 L160.808257,44.9435345 C160.763444,44.9524641 160.739607,44.9753707 160.7377,45.0118658 C160.733886,45.1174686 160.732456,45.2417073 160.732456,45.3838053 L160.732456,46.1300138 L162.70614,46.1300138 L162.70614,45.3838053 C162.70614,45.2417073 162.704233,45.1174686 162.70042,45.0118658 C162.698513,44.9753707 162.675153,44.9524641 162.630339,44.9435345 L162.329043,44.8666618 L162.323799,44.7719298 C162.54405,44.7777535 162.761918,44.7808595 162.976926,44.7808595 C163.19241,44.7808595 163.412662,44.7777535 163.638158,44.7719298 L163.649123,44.8666618 L163.30778,44.9524641 C163.266304,44.9641115 163.244851,44.9893475 163.242468,45.0277838 C163.239607,45.1240688 163.236747,45.2455898 163.236747,45.3923467 L163.236747,47.1775012 C163.236747,47.3502706 163.239607,47.4966392 163.242468,47.6150542 C163.244851,47.6492199 163.269165,47.6717381 163.315885,47.6837737 L163.643879,47.7649171 L163.649123,47.8596491 C163.410278,47.8549902 163.182876,47.8530489 162.966915,47.8530489 C162.750953,47.8530489 162.540713,47.8549902 162.334287,47.8596491 L162.323799,47.7649171 L162.630339,47.6880445 C162.675153,47.6779501 162.698513,47.6527141 162.70042,47.613113 C162.704233,47.4958628 162.70614,47.3502706 162.70614,47.1775012 L162.70614,46.3299604 L160.732456,46.3299604" id="Fill-25" fill="#2D4F91"></path>
            </g>
        </g>
    </g>
</svg>