<?xml version="1.0" encoding="UTF-8"?>
<svg width="24px" height="24px" viewBox="0 0 24 24" version="1.1" xmlns="http://www.w3.org/2000/svg" xmlns:xlink="http://www.w3.org/1999/xlink">
    <!-- Generator: sketchtool 59 (101010) - https://sketch.com -->
    <title>02EE92CD-FD9B-4C5A-B5A1-0F1AA829433C</title>
    <desc>Created with sketchtool.</desc>
    <g id="Symbols" stroke="none" stroke-width="1" fill="none" fill-rule="evenodd">
        <g id="Glyphs/Competence/HTML">
            <g id="Html5" transform="translate(3.000000, 2.000000)">
                <polygon id="Path" fill="#E65100" points="18.7894737 0 0 0 1.65789474 18.7894737 9.39473684 21 17.1315789 18.7894737"></polygon>
                <polygon id="Path" fill="#FF6D00" points="9.39473684 1.65789474 9.39473684 19.2857368 15.5842105 17.5184211 16.9657895 1.65789474"></polygon>
                <path d="M9.39473684,11.0526316 L9.39473684,8.84210526 L14.1484737,8.84210526 L13.7594211,15.1973684 L9.39473684,16.6353158 L9.39473684,14.3120526 L11.6616316,13.5394737 L11.8252105,11.0526316 L9.39473684,11.0526316 Z M14.3120526,6.63157895 L14.4783947,4.42105263 L9.39473684,4.42105263 L9.39473684,6.63157895 L14.3120526,6.63157895 Z" id="Shape" fill="#FFFFFF" fill-rule="nonzero"></path>
                <path d="M9.39473684,14.3120526 L9.39473684,16.6353158 L5.03005263,15.1973684 L4.80734211,12.1578947 L7.01786842,12.1578947 L7.12839474,13.5394737 L9.39473684,14.3120526 Z M6.68794737,6.63157895 L9.39473684,6.63157895 L9.39473684,4.42105263 L4.36468421,4.42105263 L4.75373684,11.0526316 L9.39473684,11.0526316 L9.39473684,8.84210526 L6.85152632,8.84210526 L6.68794737,6.63157895 Z" id="Shape" fill="#EEEEEE" fill-rule="nonzero"></path>
            </g>
        </g>
    </g>
</svg>