<?xml version="1.0" encoding="UTF-8"?>
<svg width="40px" height="40px" viewBox="0 0 40 40" version="1.1" xmlns="http://www.w3.org/2000/svg" xmlns:xlink="http://www.w3.org/1999/xlink">
    <!-- Generator: sketchtool 60 (101010) - https://sketch.com -->
    <title>CBCF6149-1DB6-4AE1-88AA-A9FE45BADD51</title>
    <desc>Created with sketchtool.</desc>
    <g id="Symbols" stroke="none" stroke-width="1" fill="none" fill-rule="evenodd">
        <g id="Glyphs/PrestaShop">
            <g id="Symbol" transform="translate(-0.000000, 0.000000)">
                <path d="M13.2003419,30.4523077 C13.517265,30.3111111 13.8382906,30.1815385 14.1623932,30.0598291 C14.5282051,29.9223932 14.897094,29.7931624 15.2707692,29.6803419 C15.7360684,29.5401709 16.2051282,29.4133333 16.6806838,29.3124786 C17.3217094,29.1764103 17.9702564,29.0755556 18.6239316,29.0119658 C18.2574359,30.1644444 17.8523077,31.3104274 17.4133333,32.4488889 C17.4321368,32.6694017 17.4423932,32.8912821 17.4482051,33.1135043 C18.3319658,32.9391453 19.2451282,32.845812 20.1801709,32.845812 C21.1152137,32.845812 22.0283761,32.9391453 22.9121368,33.1135043 C22.9179487,32.8909402 22.9278632,32.6690598 22.9470085,32.4488889 C22.5080342,31.3104274 22.102906,30.1644444 21.7364103,29.0119658 C22.3900855,29.0755556 23.0386325,29.1760684 23.6796581,29.3124786 C24.1548718,29.4133333 24.6242735,29.5401709 25.0895726,29.6803419 C25.4635897,29.7928205 25.8321368,29.9223932 26.1979487,30.0598291 C26.5220513,30.1815385 26.8434188,30.311453 27.1603419,30.4523077 C29.4088889,31.4536752 31.4588034,32.9388034 33.1398291,34.8663248 C37.3535043,31.2273504 40.0242735,25.8502564 40.0242735,19.845812 C40.0242735,8.88649573 31.1398291,0.00205128205 20.1805128,0.00205128205 C9.22119658,0.00205128205 0.336752137,8.88649573 0.336752137,19.845812 C0.336752137,25.8502564 3.00717949,31.2276923 7.22119658,34.8663248 C8.90188034,32.9388034 10.9517949,31.4533333 13.2003419,30.4523077 Z" id="XMLID_176_" fill="#A0DBE8" fill-rule="nonzero"></path>
                <path d="M14.5083761,34.0423932 C15.44,33.6304274 16.4235897,33.3155556 17.4482051,33.1135043 C17.4423932,32.8909402 17.4324786,32.6690598 17.4133333,32.4488889 C17.8523077,31.3104274 18.2574359,30.1644444 18.6239316,29.0119658 C17.9702564,29.0755556 17.3217094,29.1760684 16.6806838,29.3124786 C16.2054701,29.4133333 15.7360684,29.5401709 15.2707692,29.6803419 C14.897094,29.7928205 14.5282051,29.9220513 14.1623932,30.0598291 L15.6088889,30.4102564 L14.5083761,34.0423932 Z" id="XMLID_175_" fill="#525353" fill-rule="nonzero"></path>
                <path d="M11.0981197,36.1818803 C11.134359,35.8119658 11.1565812,35.4389744 11.1565812,35.0622222 C11.1565812,34.8355556 11.3405128,34.6516239 11.5671795,34.6516239 L11.9278632,34.6516239 L13.2003419,30.4526496 C10.9517949,31.4540171 8.90188034,32.9391453 7.22051282,34.8666667 C8.14735043,35.6670085 9.14803419,36.3825641 10.2126496,37.0023932 C10.4960684,36.7162393 10.791453,36.4423932 11.0981197,36.1818803 Z" id="XMLID_174_" fill="#525353" fill-rule="nonzero"></path>
                <path d="M27.16,30.4523077 L28.4324786,34.6512821 L28.7928205,34.6512821 C29.0198291,34.6512821 29.2034188,34.8352137 29.2034188,35.0618803 C29.2034188,35.4389744 29.225641,35.8119658 29.2618803,36.1815385 C29.5688889,36.4420513 29.8639316,36.7162393 30.1473504,37.0017094 C31.2119658,36.3818803 32.2126496,35.6663248 33.1394872,34.8659829 C31.4584615,32.9388034 29.408547,31.4536752 27.16,30.4523077 Z" id="XMLID_173_" fill="#525353" fill-rule="nonzero"></path>
                <path d="M24.751453,30.4102564 L26.1976068,30.0598291 C25.8317949,29.9223932 25.462906,29.7931624 25.0892308,29.6803419 C24.6239316,29.5401709 24.1548718,29.4133333 23.6793162,29.3124786 C23.0382906,29.1764103 22.3897436,29.0755556 21.7360684,29.0119658 C22.1025641,30.1644444 22.5076923,31.3104274 22.9466667,32.4488889 C22.9278632,32.6694017 22.9176068,32.8912821 22.9117949,33.1135043 C23.9367521,33.3155556 24.9203419,33.6304274 25.8519658,34.0423932 L24.751453,30.4102564 Z" id="XMLID_172_" fill="#525353" fill-rule="nonzero"></path>
                <path d="M20.1801709,34.6512821 L22.9764103,34.6512821 C22.9189744,34.1360684 22.8984615,33.6225641 22.9121368,33.1135043 C22.0283761,32.9391453 21.1152137,32.845812 20.1801709,32.845812 C19.2451282,32.845812 18.3323077,32.9391453 17.4482051,33.1135043 C17.4615385,33.6225641 17.4410256,34.1360684 17.3839316,34.6512821 L20.1801709,34.6512821 Z" id="XMLID_171_" fill="#000000" fill-rule="nonzero"></path>
                <path d="M10.2126496,37.0020513 C10.4434188,37.1364103 10.6758974,37.2673504 10.9121368,37.3924786 C10.9948718,36.9948718 11.0581197,36.5911111 11.0981197,36.1818803 C10.791453,36.4423932 10.4960684,36.7162393 10.2126496,37.0020513 Z" id="XMLID_170_" fill="#000000" fill-rule="nonzero"></path>
                <path d="M14.3237607,34.6512821 L17.3839316,34.6512821 C17.4413675,34.1360684 17.4618803,33.6225641 17.4482051,33.1135043 C16.4235897,33.3155556 15.4396581,33.6304274 14.5083761,34.0423932 L14.3237607,34.6512821 Z" id="XMLID_169_" fill="#000000" fill-rule="nonzero"></path>
                <path d="M29.2618803,36.1818803 C29.3018803,36.5911111 29.3651282,36.9948718 29.4478632,37.3924786 C29.6841026,37.2673504 29.9169231,37.1364103 30.1473504,37.0020513 C29.8639316,36.7162393 29.5688889,36.4423932 29.2618803,36.1818803 Z" id="XMLID_168_" fill="#000000" fill-rule="nonzero"></path>
                <path d="M26.0365812,34.6512821 L25.8519658,34.042735 C24.9203419,33.6307692 23.9367521,33.3158974 22.9117949,33.1138462 C22.8984615,33.622906 22.9189744,34.1364103 22.9760684,34.6516239 L26.0365812,34.6512821 L26.0365812,34.6512821 Z" id="XMLID_167_" fill="#000000" fill-rule="nonzero"></path>
                <path d="M14.3237607,34.6512821 L14.5083761,34.0423932 L15.6092308,30.4099145 L14.162735,30.0594872 C13.8386325,30.1811966 13.517265,30.3111111 13.2006838,30.4519658 L11.9282051,34.6509402 L13.294359,34.6509402 L14.3237607,34.6512821 L14.3237607,34.6512821 Z" id="XMLID_166_" fill="#AA9678" fill-rule="nonzero"></path>
                <path d="M25.8523077,34.042735 L26.0369231,34.6512821 L27.0663248,34.6512821 L28.4328205,34.6512821 L27.1603419,30.4523077 C26.8434188,30.3111111 26.5220513,30.1815385 26.1979487,30.0598291 L24.7517949,30.4102564 L25.8523077,34.042735 Z" id="XMLID_165_" fill="#AA9678" fill-rule="nonzero"></path>
                <path d="M12.0882393,35.6432205 C12.110147,35.6273983 12.1326632,35.6115761 12.1551795,35.5957538 L12.0912821,35.5957538 C12.0906735,35.6115761 12.0888479,35.6267897 12.0882393,35.6432205 Z" id="XMLID_164_" fill="#C0B098" fill-rule="nonzero"></path>
                <path d="M20.1801709,35.4724786 L17.2605128,35.4724786 L14.0748718,35.4724786 L12.0075214,35.4724786 C11.9948718,35.4813675 11.9822222,35.4902564 11.9699145,35.4991453 C11.9425641,36.2745299 11.8386325,37.0348718 11.6700855,37.7747009 C14.2492308,39.0010256 17.1340171,39.6895726 20.1801709,39.6895726 L20.1801709,35.4724786 Z" id="XMLID_163_" fill="#C0B098" fill-rule="nonzero"></path>
                <path d="M28.5357265,35.595412 L28.4718291,35.595412 C28.4943453,35.6112342 28.5168615,35.6270564 28.5387692,35.6428786 C28.5375521,35.6270564 28.5357265,35.6118427 28.5357265,35.595412 Z" id="XMLID_162_" fill="#AA9678" fill-rule="nonzero"></path>
                <path d="M28.3528205,35.4724786 L26.285812,35.4724786 L23.0998291,35.4724786 L20.1805128,35.4724786 L20.1805128,35.4724786 L20.1805128,39.6895726 C23.2266667,39.6895726 26.111453,39.0013675 28.6905983,37.7747009 C28.5220513,37.0348718 28.4184615,36.2748718 28.3907692,35.4991453 C28.3781197,35.4902564 28.3654701,35.4817094 28.3528205,35.4724786 Z" id="XMLID_161_" fill="#AA9678" fill-rule="nonzero"></path>
                <rect id="XMLID_160_" fill="#786453" fill-rule="nonzero" x="20.1801709" y="35.0618803" width="1" height="1"></rect>
                <path d="M29.2618803,36.1818803 C29.225641,35.8119658 29.2034188,35.4389744 29.2034188,35.0622222 C29.2034188,34.8355556 29.0194872,34.6516239 28.7928205,34.6516239 L28.4324786,34.6516239 L27.0659829,34.6516239 L26.0365812,34.6516239 L22.9764103,34.6516239 L20.1801709,34.6516239 L17.3835897,34.6516239 L14.3234188,34.6516239 L13.2940171,34.6516239 L11.9278632,34.6516239 L11.5671795,34.6516239 C11.3401709,34.6516239 11.1565812,34.8355556 11.1565812,35.0622222 C11.1565812,35.4393162 11.134359,35.8123077 11.0981197,36.1818803 C11.0581197,36.5911111 10.9948718,36.9948718 10.9121368,37.3924786 C11.1620513,37.5247863 11.4140171,37.6533333 11.6697436,37.7750427 C11.8382906,37.0352137 11.9418803,36.2752137 11.9695726,35.4994872 C11.9699145,35.4905983 11.9709402,35.4817094 11.9712821,35.4728205 L12.0071795,35.4728205 L14.0745299,35.4728205 L17.2601709,35.4728205 L20.1798291,35.4728205 L20.1798291,35.4728205 L23.0991453,35.4728205 L26.2851282,35.4728205 L28.3521368,35.4728205 L28.3880342,35.4728205 C28.3883761,35.4817094 28.3894017,35.4905983 28.3897436,35.4994872 C28.417094,36.2748718 28.5210256,37.0352137 28.6895726,37.7750427 C28.945641,37.6533333 29.1976068,37.5247863 29.4471795,37.3924786 C29.3651282,36.9945299 29.3018803,36.5911111 29.2618803,36.1818803 Z" id="XMLID_159_" fill="#8B7460" fill-rule="nonzero"></path>
                <g id="XMLID_195_" transform="translate(6.153846, 5.811966)">
                    <path d="M20.7046154,11.0184615 L20.7046154,11.0184615 C20.7052991,11.0201709 20.705641,11.0218803 20.7063248,11.0232479 C20.9545299,11.7364103 21.2362393,12.4588034 21.3808547,13.2020513 C21.3757265,13.2536752 21.3705983,13.3070085 21.3654701,13.3620513 C21.3524786,13.4420513 21.3391453,13.5128205 21.325812,13.5764103 C21.3466667,13.4786325 21.3668376,13.3620513 21.3870085,13.2263248 C21.2430769,12.4728205 20.9562393,11.7411966 20.7046154,11.0184615 C20.7035897,11.0201709 20.702906,11.0218803 20.7018803,11.0239316 C20.702906,11.0222222 20.7035897,11.0201709 20.7046154,11.0184615 L20.7046154,11.0184615 Z" id="XMLID_158_"></path>
                    <path d="M26.6296855,15.6310154 C26.610212,15.6425778 26.5907385,15.6523145 26.5706564,15.6626598 C26.5907385,15.6523145 26.610212,15.6419692 26.6296855,15.6310154 Z" id="XMLID_157_"></path>
                    <path d="M26.7615487,15.5251214 C26.7359897,15.5494632 26.7110393,15.5756308 26.6842632,15.5969299 C26.7110393,15.5756308 26.7359897,15.5494632 26.7615487,15.5251214 Z" id="XMLID_156_"></path>
                    <path d="M20.1076923,10.4964103 C19.6516239,10.111453 19.1719658,9.76068376 18.6687179,9.45059829 L18.6687179,9.45059829 C19.1719658,9.76034188 19.6512821,10.111453 20.1076923,10.4964103 Z" id="XMLID_155_"></path>
                    <path d="M24.8389436,15.3803658 C24.8450291,15.3876684 24.8511145,15.3955795 24.8578085,15.4028821 C24.8517231,15.3955795 24.8456376,15.3882769 24.8389436,15.3803658 Z" id="XMLID_154_"></path>
                    <path d="M25.6680274,16.4136376 C25.6917607,16.444065 25.7161026,16.4738838 25.7398359,16.5043111 C25.7161026,16.4738838 25.6917607,16.444065 25.6680274,16.4136376 Z" id="XMLID_153_"></path>
                    <path d="M21.4687248,13.6777778 C21.4449915,13.7842735 21.4212581,13.8798154 21.3969162,13.9516239 C21.4212581,13.8792068 21.4449915,13.783665 21.4687248,13.6777778 Z" id="XMLID_152_"></path>
                    <path d="M19.374359,20.8430769 C19.0707692,21.3490598 18.8762393,21.8287179 18.7637607,22.2786325 C18.8762393,21.8287179 19.0707692,21.3490598 19.374359,20.8430769 C19.474188,20.6765812 19.5719658,20.5131624 19.6670085,20.3524786 C19.5726496,20.5117949 19.4758974,20.6735043 19.3767521,20.8386325 C19.3760684,20.8403419 19.3753846,20.8417094 19.374359,20.8430769 Z" id="XMLID_151_"></path>
                    <path d="M20.7066667,11.0621277 C20.737182,11.0106733 20.7682843,10.961198 20.7987996,10.9097436 L20.7905839,10.9156806 C20.7624159,10.963177 20.7342479,11.0131471 20.7066667,11.0621277 C20.9114718,11.2115433 21.1151032,11.3639275 21.3152137,11.5182906 C21.1151032,11.3639275 20.9120586,11.2115433 20.7066667,11.0621277 Z" id="XMLID_150_"></path>
                    <path d="M16.9006632,13.7515624 C16.9012718,13.7539966 16.9024889,13.7564308 16.9030974,13.758865 C16.9024889,13.7564308 16.9012718,13.7539966 16.9006632,13.7515624 Z" id="XMLID_149_"></path>
                    <path d="M18.1202769,9.19310427 C18.0715932,9.16571966 18.0332547,9.14502906 18.011347,9.13407521 C18.0332547,9.14502906 18.0715932,9.16571966 18.1202769,9.19310427 Z" id="XMLID_147_"></path>
                    <path d="M18.230065,9.2549812 C18.1728615,9.22272821 18.1247863,9.19595214 18.0803624,9.17100171 C18.1241778,9.19595214 18.172253,9.22272821 18.230065,9.2549812 Z" id="XMLID_146_"></path>
                    <path d="M18.8482903,10.7808889 C18.8488988,10.8642598 18.8470732,10.9470222 18.8476818,11.0303932 C18.8470732,10.9470222 18.8495074,10.8642598 18.8482903,10.7808889 Z" id="XMLID_145_"></path>
                    <path d="M16.8335214,13.5802051 C16.8341299,13.5820308 16.835347,13.5838564 16.8365641,13.5862906 C16.835347,13.5838564 16.8347385,13.5820308 16.8335214,13.5802051 Z" id="XMLID_144_"></path>
                    <path d="M26.4647419,17.4436342 C26.5085573,17.5014462 26.5529812,17.5586496 26.5967966,17.615853 C26.5529812,17.558041 26.5085573,17.5008376 26.4647419,17.4436342 Z" id="XMLID_143_"></path>
                    <path d="M18.8543453,11.3275214 C18.8470427,11.5357265 18.8342632,11.7439316 18.8153983,11.9521368 C18.8342632,11.7439316 18.8470427,11.5357265 18.8543453,11.3275214 Z" id="XMLID_142_"></path>
                    <path d="M16.9507111,13.9311248 C16.9513197,13.9341675 16.9519282,13.9366017 16.9525368,13.9396444 C16.9525368,13.9366017 16.9513197,13.9341675 16.9507111,13.9311248 Z" id="XMLID_141_"></path>
                    <path d="M18.8068376,9.65700855 C18.7051733,9.58276581 18.4385444,9.38924786 18.1982906,9.21581197 C18.4351875,9.38681368 18.6994187,9.57911453 18.8068376,9.65700855 Z" id="XMLID_140_"></path>
                    <path d="M18.3680171,9.33346667 C18.2913402,9.29025983 18.2189231,9.24887863 18.1519829,9.21114872 C18.2183145,9.24827009 18.2919487,9.28965128 18.3680171,9.33346667 Z" id="XMLID_139_"></path>
                    <path d="M18.8023316,9.58139487 L18.8023316,9.58139487 C18.7998974,9.58017778 18.7852923,9.57165812 18.7792068,9.56800684 C18.788335,9.57409231 18.7992889,9.58017778 18.8023316,9.58139487 Z" id="XMLID_138_"></path>
                    <path d="M27.1557231,14.4385162 C27.1563316,14.4105231 27.1605915,14.3843556 27.1605915,14.3563624 C27.1605915,14.3527111 27.1612,14.3496684 27.1612,14.3460171 C27.1612,14.3429744 27.1605915,14.3399316 27.1605915,14.3362803 C27.1605915,14.3101128 27.1563316,14.2857709 27.1557231,14.2596034 C27.1563316,14.2888137 27.1605915,14.3161983 27.1605915,14.3460171 C27.1612,14.3776615 27.1563316,14.4074803 27.1557231,14.4385162 Z" id="XMLID_137_"></path>
                    <path d="M23.8844342,14.2506393 C23.9185128,14.2895863 23.9513744,14.3285333 23.985453,14.3674803 C23.9848444,14.3668718 23.9842359,14.3662632 23.9836274,14.3656547 L23.992147,14.3656547 C23.9775419,14.3486154 23.9392034,14.3078427 23.8844342,14.2506393 L23.8844342,14.2506393 Z" id="XMLID_136_"></path>
                    <path d="M21.0611966,11.3302564 C21.3254701,11.5719658 21.5835897,11.8201709 21.8386325,12.071453 C21.5839316,11.8198291 21.3254701,11.5719658 21.0611966,11.3302564 Z" id="XMLID_135_"></path>
                    <path d="M26.3059009,12.9692034 C26.3929231,12.9692034 26.476294,12.9874598 26.5590564,13.0130188 C26.4769026,12.9874598 26.3929231,12.9692034 26.3059009,12.9692034 Z" id="XMLID_134_"></path>
                    <path d="M25.6032239,13.9373197 C25.5959214,13.9793094 25.5867932,14.0194735 25.5807077,14.0626803 C25.5867932,14.0194735 25.5959214,13.9793094 25.6032239,13.9373197 Z" id="XMLID_133_"></path>
                    <path d="M26.5087829,12.999412 C26.5665949,13.0231453 26.6231897,13.0541812 26.6785675,13.0894769 C26.6231897,13.0535726 26.5665949,13.0237538 26.5087829,12.999412 Z" id="XMLID_132_"></path>
                    <path d="M26.8377812,13.2545949 C26.8566462,13.2801538 26.8749026,13.3063214 26.893159,13.3330974 C26.8749026,13.3063214 26.8566462,13.2801538 26.8377812,13.2545949 Z" id="XMLID_131_"></path>
                    <path d="M27.1438222,14.0719726 C27.1432137,14.0664957 27.141388,14.0610188 27.1407795,14.0555419 C27.1395624,14.0458051 27.1371282,14.037894 27.1359111,14.0281573 C27.1377368,14.0439795 27.1419966,14.0579761 27.1444308,14.0744068 C27.1438222,14.0731897 27.1438222,14.0725812 27.1438222,14.0719726 Z" id="XMLID_130_"></path>
                    <path d="M27.1410462,14.6400513 C27.1422632,14.6333573 27.1440889,14.6272718 27.1446974,14.6199692 C27.1446974,14.6193607 27.1446974,14.6187521 27.1446974,14.6181436 C27.1422632,14.6364 27.1373949,14.6528308 27.1349607,14.6710872 C27.1367863,14.6607419 27.1398291,14.6510051 27.1410462,14.6400513 Z" id="XMLID_129_"></path>
                    <path d="M25.8294427,13.3335726 C25.8476991,13.306188 25.8665641,13.2800205 25.8854291,13.2544615 C25.8665641,13.2800205 25.8476991,13.306188 25.8294427,13.3335726 Z" id="XMLID_128_"></path>
                    <path d="M26.1636786,13.0130188 C26.2458325,12.9874598 26.329812,12.9692034 26.4168342,12.9692034 C26.329812,12.9692034 26.2458325,12.9874598 26.1636786,13.0130188 Z" id="XMLID_127_"></path>
                    <path d="M22.7996581,13.0362393 C22.5990568,12.8312033 22.394522,12.6294478 22.1911111,12.4276923 C22.3950839,12.6294478 22.5984948,12.8312033 22.7996581,13.0362393 Z" id="XMLID_126_"></path>
                    <path d="M26.2280342,8.50666667 L26.2280342,8.50666667 C26.2280342,8.50529915 26.2280342,8.50119658 26.2280342,8.50119658 L26.2280342,10.3463248 L25.5213675,13.582906 C25.5189744,13.5907692 25.5179487,13.6 25.5158974,13.6078632 C25.5176068,13.6013675 25.5196581,13.5955556 25.5217094,13.5894017 L25.5217094,13.5894017 L25.5217094,13.5894017 L26.2283761,10.3528205 L26.2283761,8.50769231 L26.2283761,8.50769231 L26.2280342,8.50666667 L26.2280342,8.50666667 Z" id="XMLID_125_"></path>
                    <path d="M23.4311556,13.7374256 C23.3167487,13.6108479 23.2011248,13.4842701 23.0861094,13.3583009 C23.2017333,13.4842701 23.3161402,13.6108479 23.4311556,13.7374256 Z" id="XMLID_124_"></path>
                    <path d="M27.0585675,13.6926598 C27.0725641,13.7383009 27.0896034,13.7808991 27.1017744,13.8283658 C27.1017744,13.8277573 27.1017744,13.8271487 27.1011658,13.8265402 C27.0889949,13.7796821 27.0725641,13.7383009 27.0585675,13.6926598 L27.0585675,13.6926598 L27.0585675,13.6926598 Z" id="XMLID_123_"></path>
                    <path d="M25.5616684,14.3555214 L25.5628855,14.3555214 C25.5628855,14.3323966 25.5665368,14.3110974 25.5665368,14.2885812 C25.5659282,14.311706 25.5616684,14.3323966 25.5616684,14.3555214 Z" id="XMLID_122_"></path>
                    <path d="M26.0441675,13.0898188 C26.0995453,13.0545231 26.1555316,13.0234872 26.2139521,12.9997538 C26.1561402,13.0234872 26.0995453,13.053306 26.0441675,13.0898188 Z" id="XMLID_121_"></path>
                    <path d="M25.897094,13.2293368 C25.9555145,13.1660479 26.0157607,13.1076274 26.0796581,13.0595521 C26.0157607,13.1082359 25.954906,13.1654393 25.897094,13.2293368 Z" id="XMLID_120_"></path>
                    <path d="M27.1159077,14.8189265 C27.1159077,14.8183179 27.1159077,14.8177094 27.1165162,14.8171009 C27.0848718,14.941853 27.0465333,15.0611282 27.0033265,15.1743179 C27.0477504,15.0599111 27.0879145,14.9406359 27.1207761,14.8140581 L27.1159077,14.8189265 L27.1159077,14.8189265 Z" id="XMLID_119_"></path>
                    <path d="M2.87405128,13.7874838 C2.92577778,13.7053299 2.97993846,13.6250017 3.0322735,13.5434564 C2.97993846,13.6250017 2.92577778,13.7053299 2.87405128,13.7874838 Z" id="XMLID_118_"></path>
                    <path d="M26.6430769,13.0595521 C26.7069744,13.1076274 26.7672205,13.1660479 26.825641,13.2293368 C26.7678291,13.1654393 26.7069744,13.1082359 26.6430769,13.0595521 Z" id="XMLID_117_"></path>
                    <path d="M3.45491966,12.9305504 C3.48047863,12.8958632 3.50421197,12.8593504 3.53037949,12.8246632 C3.50482051,12.8593504 3.48047863,12.8958632 3.45491966,12.9305504 Z" id="XMLID_116_"></path>
                    <path d="M16.9959316,14.3367487 L16.9971487,14.3361402 C16.9971487,14.3343145 16.9971487,14.3324889 16.9971487,14.3306632 L16.9971487,14.3306632 L17.0032342,14.3306632 L16.9947145,14.3117983 C16.9947145,14.3203179 16.9959316,14.3282291 16.9959316,14.3367487 Z" id="XMLID_115_"></path>
                    <path d="M2.08582906,15.230147 C2.02497436,15.359159 1.96472821,15.4881709 1.90630769,15.6184 C1.96472821,15.4881709 2.02497436,15.359159 2.08582906,15.230147 Z" id="XMLID_114_"></path>
                    <path d="M1.61777436,16.3150222 C1.60986325,16.3363214 1.60073504,16.357012 1.59282393,16.3783111 C1.60073504,16.357012 1.60986325,16.3363214 1.61777436,16.3150222 Z" id="XMLID_113_"></path>
                    <polygon id="XMLID_112_" points="26.8536581 9.11156923 26.8506154 9.10791795 26.8506154 9.10791795"></polygon>
                    <path d="M5.53352479,10.6811761 L5.5310906,10.6836103 L5.53352479,10.6811761 Z" id="XMLID_111_"></path>
                    <path d="M4.7101812,11.4492274 C4.7801641,11.3792444 4.8513641,11.3110872 4.92195556,11.2417128 C4.8513641,11.3110872 4.77955556,11.3792444 4.7101812,11.4492274 Z" id="XMLID_110_"></path>
                    <path d="M4.0098188,12.2236137 C4.0810188,12.1396342 4.15161026,12.0550462 4.22402735,11.9722838 C4.15161026,12.0550462 4.0810188,12.1390256 4.0098188,12.2236137 Z" id="XMLID_109_"></path>
                    <path d="M26.9350427,13.5894017 L26.2280342,10.3528205 L26.9350427,13.5894017 Z" id="XMLID_108_"></path>
                    <path d="M14.7602906,16.1778838 C14.7365573,16.1730154 14.714041,16.1657128 14.6903077,16.1602359 C14.714041,16.1657128 14.7365573,16.1730154 14.7602906,16.1778838 Z" id="XMLID_107_"></path>
                    <path d="M14.9512171,16.2064274 C14.924441,16.2033846 14.8988821,16.1979077 14.8727145,16.1942564 C14.8988821,16.1972991 14.924441,16.2033846 14.9512171,16.2064274 Z" id="XMLID_106_"></path>
                    <path d="M2.53237607,14.3642291 C2.45265641,14.5084547 2.37780513,14.6551145 2.30112821,14.8005573 C2.37780513,14.6551145 2.45265641,14.5084547 2.53237607,14.3642291 Z" id="XMLID_105_"></path>
                    <path d="M14.2176855,15.9762598 C14.2164684,15.9756513 14.2146427,15.9744342 14.2134256,15.9738256 C14.2152513,15.9744342 14.2164684,15.9756513 14.2176855,15.9762598 Z" id="XMLID_104_"></path>
                    <path d="M14.5713675,16.1292034 C14.5561538,16.124335 14.5409402,16.117641 14.5257265,16.1121641 C14.5409402,16.117641 14.5555453,16.124335 14.5713675,16.1292034 Z" id="XMLID_103_"></path>
                    <path d="M14.3896821,16.0615453 C14.3817709,16.057894 14.3744684,16.0536342 14.3665573,16.0505915 C14.3744684,16.0542427 14.3823795,16.057894 14.3896821,16.0615453 Z" id="XMLID_102_"></path>
                    <path d="M13.3969402,15.0481812 C13.3981573,15.0506154 13.3987658,15.0536581 13.3999829,15.0560923 C13.3987658,15.0536581 13.3981573,15.0506154 13.3969402,15.0481812 Z" id="XMLID_101_"></path>
                    <path d="M13.313535,13.9019487 C13.3080581,13.9262906 13.300147,13.9500239 13.2946701,13.9749744 C13.300147,13.9506325 13.3080581,13.9268991 13.313535,13.9019487 Z" id="XMLID_100_"></path>
                    <path d="M13.5038974,13.4204308 C13.5020718,13.4240821 13.4996376,13.4271248 13.497812,13.4301675 C13.5002462,13.4271248 13.5020718,13.4240821 13.5038974,13.4204308 Z" id="XMLID_99_"></path>
                    <path d="M14.123135,12.7694393 C14.1225265,12.7700479 14.1219179,12.7700479 14.1213094,12.7700479 C14.1219179,12.7700479 14.1225265,12.7700479 14.123135,12.7694393 Z" id="XMLID_98_"></path>
                    <path d="M13.3624239,13.7343077 C13.3563385,13.7519556 13.3490359,13.7683863 13.343559,13.7860342 C13.3490359,13.7683863 13.356947,13.751347 13.3624239,13.7343077 Z" id="XMLID_97_"></path>
                    <path d="M13.4259726,13.5744547 C13.4217128,13.5841915 13.4162359,13.5939282 13.4119761,13.603665 C13.4162359,13.5939282 13.4217128,13.5841915 13.4259726,13.5744547 Z" id="XMLID_96_"></path>
                    <path d="M15.4990598,12.5116444 C15.4941915,12.5104274 15.4887145,12.5104274 15.4838462,12.5092103 C15.4887145,12.5098188 15.4935829,12.5104274 15.4990598,12.5116444 Z" id="XMLID_95_"></path>
                    <path d="M15.8376889,12.6148171 C15.8346462,12.6136 15.8316034,12.6123829 15.8279521,12.6111658 C15.8309949,12.6123829 15.8346462,12.6136 15.8376889,12.6148171 Z" id="XMLID_94_"></path>
                    <path d="M14.4388889,12.607347 C14.4340205,12.6091726 14.4285436,12.6109983 14.4236752,12.6128239 C14.4285436,12.6109983 14.4340205,12.6097812 14.4388889,12.607347 Z" id="XMLID_93_"></path>
                    <path d="M14.7808684,12.5080513 C14.7735658,12.5092684 14.7662632,12.5098769 14.7589607,12.511094 C14.7662632,12.5098769 14.7735658,12.5092684 14.7808684,12.5080513 Z" id="XMLID_92_"></path>
                    <path d="M16.9834564,14.1209846 C16.9834564,14.1228103 16.984065,14.1240274 16.984065,14.125853 C16.984065,14.1240274 16.9834564,14.1222017 16.9834564,14.1209846 Z" id="XMLID_91_"></path>
                    <path d="M15.1388034,8.35912137 C15.1388034,8.30739487 15.1388034,8.25871111 15.1388034,8.21489573 C15.1388034,8.25931966 15.1388034,8.30678632 15.1388034,8.35912137 Z" id="XMLID_90_"></path>
                    <path d="M15.1388034,8.2166735 C15.1388034,8.18320342 15.1388034,8.15277607 15.1388034,8.12965128 C15.1388034,8.15277607 15.1388034,8.18137778 15.1388034,8.2166735 Z" id="XMLID_89_"></path>
                    <path d="M15.1388034,8.12618462 C15.1388034,8.11401368 15.1388034,8.10731966 15.1388034,8.10731966 C15.1388034,8.10731966 15.1388034,8.11401368 15.1388034,8.12618462 Z" id="XMLID_88_"></path>
                    <path d="M15.1388034,8.65196923 L15.1388034,8.60085128 L15.1388034,8.45358291 C15.1388034,8.40489915 15.1388034,8.35743248 15.1388034,8.31179145 C15.1388034,8.41950427 15.1388034,8.53512821 15.1388034,8.65196923 Z" id="XMLID_87_"></path>
                    <path d="M26.9339932,15.3039453 C26.8980889,15.3617573 26.8597504,15.4134838 26.8201949,15.4646017 C26.8597504,15.4134838 26.8980889,15.3617573 26.9339932,15.3039453 Z" id="XMLID_86_"></path>
                    <path d="M13.2782222,14.0872821 C13.2751795,14.1140581 13.269094,14.1396171 13.2660513,14.1663932 C13.269094,14.1396171 13.2751795,14.1140581 13.2782222,14.0872821 Z" id="XMLID_85_"></path>
                    <path d="M13.293959,14.7023658 C13.2945675,14.7066256 13.2951761,14.7108855 13.2957846,14.7157538 C13.2951761,14.711494 13.2945675,14.7066256 13.293959,14.7023658 Z" id="XMLID_84_"></path>
                    <path d="M27.0326051,15.0936068 C26.9985265,15.1745436 26.9607966,15.2512205 26.921241,15.3248547 C26.9614051,15.2518291 26.9979179,15.1751521 27.0326051,15.0936068 Z" id="XMLID_83_"></path>
                    <path d="M19.9137675,26.2291214 C19.8072718,26.1068034 19.6971248,25.9753573 19.5833265,25.8262632 C19.6971248,25.9759658 19.8072718,26.1068034 19.9137675,26.2291214 L19.9137675,26.2291214 Z" id="XMLID_82_" fill="#525353" fill-rule="nonzero"></path>
                    <path d="M20.3111598,26.5991147 C20.3111598,26.5991147 20.312967,26.6053608 20.3165812,26.6160684 C20.312967,26.6053608 20.3111598,26.5991147 20.3111598,26.5991147 C20.3111598,26.5991147 20.0455135,26.3912094 19.7080342,26.0075214 L19.7080342,26.0075214 C20.0450617,26.3912094 20.3111598,26.5991147 20.3111598,26.5991147 Z" id="XMLID_81_" fill="#AA9678" fill-rule="nonzero"></path>
                    <circle id="XMLID_80_" fill="#FFFFFF" fill-rule="nonzero" transform="translate(26.239004, 8.524211) rotate(-4.571408) translate(-26.239004, -8.524211) " cx="26.2390045" cy="8.52421149" r="1"></circle>
                    <path d="M27.1595248,14.3554291 C27.1595248,14.3517778 27.1601333,14.348735 27.1601333,14.3450838 L27.1601333,14.3450838 C27.1601333,14.348735 27.1595248,14.3523863 27.1595248,14.3554291 Z" id="XMLID_79_" fill="#FFFFFF" fill-rule="nonzero"></path>
                    <path d="M27.2386325,9.61777778 L27.2386325,9.61777778 L27.2386325,9.61777778 C27.2352137,9.61333333 27.2317949,9.60923077 27.2287179,9.60478632 L27.2290598,9.60478632 C27.0642735,9.3757265 26.8940171,9.16683761 26.7196581,8.97709402 C26.7193162,8.97641026 26.7186325,8.9757265 26.7179487,8.97538462 C26.7182906,8.97606838 26.7189744,8.97675214 26.7196581,8.97709402 C26.7179487,8.97538462 26.7165812,8.97333333 26.7152137,8.97162393 L26.7152137,8.97162393 C26.6358974,8.88581197 26.5558974,8.8034188 26.4748718,8.72581197 C26.4441026,8.69641026 26.4126496,8.67076923 26.3818803,8.64273504 C26.3309402,8.5965812 26.28,8.54871795 26.2283761,8.50598291 L26.2283761,8.50700855 L26.2283761,10.3521368 L26.9350427,13.5887179 L26.9350427,13.5887179 C26.9425641,13.6140171 26.9521368,13.637265 26.9586325,13.6635897 L27.4482051,14.2123077 L27.4529915,14.2068376 L27.9654701,14.2068376 C27.9661538,14.1593162 27.9688889,14.1124786 27.9688889,14.0649573 L27.9688889,14.0642735 C27.9688889,12.5377778 27.7179487,11.0707692 27.2635897,9.69675214 L27.2635897,9.69675214 C27.2550427,9.67076923 27.2475214,9.64410256 27.2386325,9.61777778 Z" id="XMLID_78_" fill="#BBBCBD" fill-rule="nonzero"></path>
                    <path d="M27.1601333,14.3494838 C27.1601333,14.346441 27.1595248,14.3433983 27.1595248,14.339747 C27.1595248,14.3433983 27.1601333,14.346441 27.1601333,14.3494838 L27.1601333,14.3494838 Z" id="XMLID_77_" fill="#BBBCBD" fill-rule="nonzero"></path>
                    <path d="M27.0155775,13.9049573 C27.0164274,13.9100855 27.0181273,13.9148718 27.0189772,13.9203419 C27.0194022,13.9234188 27.0206771,13.9264957 27.021102,13.9295726 C27.021102,13.9299145 27.021102,13.9302564 27.021102,13.9309402 C27.032576,14.0068376 27.0372506,14.085812 27.0393754,14.165812 C27.0398004,14.1805128 27.0427752,14.194188 27.0427752,14.2088889 C27.0427752,14.2105983 27.0432001,14.2123077 27.0432001,14.214359 C27.0432001,14.2164103 27.0427752,14.2181197 27.0427752,14.2201709 C27.0427752,14.2358974 27.0398004,14.2505983 27.0393754,14.2663248 C27.0372506,14.3446154 27.033001,14.4222222 27.021527,14.4967521 C27.021527,14.497094 27.021527,14.4974359 27.021527,14.4977778 C27.021102,14.5015385 27.0198271,14.5049573 27.0189772,14.5090598 C27.0181273,14.5152137 27.0160025,14.5206838 27.0147276,14.5264957 C27.0011288,14.6075214 26.9832803,14.6864957 26.9594824,14.7613675 C26.9594824,14.7617094 26.9594824,14.7620513 26.9590574,14.7623932 L26.9590574,14.7623932 L26.9624571,14.7593162 C26.9628821,14.7579487 26.9633071,14.7569231 26.963732,14.7555556 L26.963732,14.7555556 L27.5671795,14.2126496 L26.9586325,13.6639316 C26.9586325,13.6642735 26.9586325,13.6646154 26.9590574,13.6649573 C26.9832803,13.7415385 27.0015537,13.8218803 27.0155775,13.9049573 Z" id="XMLID_76_" fill="#676A6A" fill-rule="nonzero"></path>
                    <path d="M31.428248,16.591889 C31.4334603,16.5690284 31.4438851,16.548454 31.4490975,16.5255935 C31.4842812,16.3594737 31.4973122,16.1864958 31.5038277,16.0119938 C31.5051308,15.9723689 31.5155556,15.9357921 31.5155556,15.8961672 C31.5155556,15.8588283 31.5064339,15.8245376 31.5051308,15.7879607 C31.4986153,15.6096487 31.4842812,15.4336227 31.4490975,15.2644548 C31.4451882,15.2446424 31.4360665,15.226354 31.4308542,15.2065415 C31.3878519,15.0221333 31.3318187,14.8430593 31.257542,14.6723674 C31.2314801,14.6129301 31.1949933,14.5603509 31.1650221,14.5024376 C30.9864976,14.1564817 30.741515,13.8501508 30.4522272,13.596399 C30.4131342,13.5628702 30.3740413,13.5293415 30.3336452,13.4980988 C30.2541562,13.4356133 30.1746672,13.374652 30.0899658,13.3205487 C29.9648683,13.2412989 29.8358616,13.1681453 29.6990362,13.1079459 C29.6469123,13.0850854 29.5921821,13.069083 29.5387551,13.0485086 C29.4214762,13.0043116 29.3002881,12.9654487 29.1751906,12.93573 C29.1217636,12.9227757 29.0683365,12.9105834 29.0136064,12.9006772 C28.8376881,12.8686725 28.6578605,12.845812 28.4715174,12.845812 C28.2851743,12.845812 28.1066498,12.8686725 27.9294284,12.9006772 C27.8746983,12.9105834 27.8212713,12.9227757 27.7678442,12.93573 C27.6427468,12.9654487 27.5228617,13.0043116 27.4042797,13.0485086 C27.3521558,13.069083 27.2961225,13.0843234 27.2453017,13.1079459 C27.1084764,13.1681453 26.9794696,13.2412989 26.8543722,13.3205487 C26.7696707,13.374652 26.6901817,13.4356133 26.6106927,13.4980988 C26.5702967,13.5301035 26.5299006,13.5636323 26.4908077,13.597161 C26.2015198,13.8516748 25.9565373,14.1572437 25.7780128,14.5031996 C25.7701942,14.5169159 25.7623756,14.5306322 25.7558601,14.5443485 C25.6776742,14.7028481 25.6151255,14.8704919 25.5630015,15.0427078 C25.5473643,15.095287 25.5265148,15.1455801 25.5147869,15.1996834 C25.4678753,15.3917117 25.4431165,15.5921223 25.4379041,15.7971049 C25.436601,15.8252996 25.4300855,15.8527322 25.4300855,15.8809268 L25.4418134,15.8809268 C25.4418134,17.5657471 26.8048544,18.9312821 28.4858515,18.9312821 C28.7751394,18.9312821 29.0540025,18.887085 29.3185315,18.8108833 C29.3615337,18.798691 29.4032329,18.7857367 29.444932,18.7712584 C29.5556954,18.7346816 29.6625495,18.6935327 29.7667973,18.6455256 C29.8241337,18.618855 29.8775607,18.5860882 29.9322909,18.5556075 C30.06651,18.4824539 30.1942137,18.399394 30.3154018,18.3071899 C30.3988001,18.2431804 30.4821984,18.178409 30.5590812,18.1060173 C30.608599,18.0602963 30.6529043,18.0100031 30.6985128,17.961234 C30.7832142,17.869792 30.8640063,17.7737778 30.9369798,17.6716675 C30.9630418,17.6350906 30.99171,17.6000378 31.0164688,17.561937 C31.1089888,17.4202018 31.191084,17.2716084 31.2588451,17.1146328 C31.3318187,16.9485131 31.3865488,16.7724871 31.428248,16.591889 Z M28.5809777,15.4892499 C27.950278,15.4892499 27.4394634,14.9771743 27.4394634,14.345462 C27.4394634,13.7137497 27.950278,13.201674 28.5809777,13.201674 C29.2116774,13.201674 29.722492,13.7137497 29.722492,14.345462 C29.722492,14.9771743 29.2116774,15.4892499 28.5809777,15.4892499 Z" id="XMLID_219_" fill="#000000" fill-rule="nonzero"></path>
                    <ellipse id="XMLID_73_" fill="#FFFFFF" fill-rule="nonzero" cx="26.2615385" cy="13.5186325" rx="1" ry="1"></ellipse>
                    <path d="M25.5213675,13.5894017 L25.5213675,13.5894017 C25.5682051,13.4338462 25.6324786,13.2967521 25.7083761,13.182906 C25.7186325,13.1675214 25.7292308,13.1528205 25.7398291,13.1384615 C25.7603419,13.1104274 25.7815385,13.0834188 25.8037607,13.0588034 C25.8365812,13.022906 25.8707692,12.9907692 25.9063248,12.9634188 C25.92,12.9531624 25.934359,12.9459829 25.9480342,12.9367521 C25.9788034,12.9165812 26.0105983,12.8994872 26.0434188,12.8861538 C26.0574359,12.8803419 26.071453,12.8748718 26.085812,12.8704274 C26.1319658,12.8560684 26.1791453,12.845812 26.2280342,12.845812 C26.2769231,12.845812 26.3241026,12.8557265 26.3702564,12.8704274 C26.3846154,12.8748718 26.3986325,12.8803419 26.4126496,12.8861538 C26.4451282,12.8994872 26.4769231,12.9165812 26.5080342,12.9367521 C26.5220513,12.9459829 26.5364103,12.9531624 26.5500855,12.9634188 C26.5859829,12.9907692 26.6198291,13.022906 26.6526496,13.0588034 C26.6748718,13.0830769 26.6960684,13.1104274 26.7165812,13.1384615 C26.7271795,13.1528205 26.7374359,13.1675214 26.7476923,13.1825641 C26.8235897,13.2967521 26.8875214,13.4338462 26.9347009,13.5890598 L26.9347009,13.5894017 L26.9347009,13.5894017 L26.2280342,10.3528205 L25.5213675,13.5894017 L25.5213675,13.5894017 Z" id="XMLID_72_" fill="#909393" fill-rule="nonzero"></path>
                    <path d="M19.2089291,15.3404081 C19.2072598,15.2346996 19.2005829,15.1301039 19.1883418,15.0266208 C19.1883418,15.0249518 19.1877854,15.023839 19.1877854,15.02217 C19.1755444,14.9209124 19.158852,14.8207675 19.137152,14.7222917 C19.1365956,14.7195099 19.1360392,14.7172845 19.1354828,14.7145027 C19.1137827,14.6171396 19.0876314,14.522002 19.0564724,14.4285334 C19.055916,14.426308 19.0548031,14.4240825 19.0542467,14.4218571 C19.0230877,14.3283885 18.9874774,14.2365891 18.9479722,14.1475714 C18.9474158,14.1459023 18.9463029,14.1436769 18.9451901,14.1420078 C18.9051285,14.0524338 18.8606156,13.9645288 18.8122078,13.8799621 L18.8122078,13.8799621 C18.6642024,13.6212545 18.4794739,13.385914 18.2652555,13.1817297 C17.9931704,12.9224658 17.6726775,12.7127179 17.3199128,12.5675079 C17.3171307,12.5663951 17.3143487,12.5652824 17.3110102,12.5641697 C17.1368535,12.4929556 16.954907,12.4378759 16.7662836,12.4000434 C16.7618323,12.3989307 16.7568246,12.3989307 16.7523733,12.3978179 C16.5637499,12.3610982 16.3684495,12.3405128 16.1686979,12.3405128 C15.9722847,12.3405128 15.7808792,12.3605418 15.5950378,12.3961489 C15.5883609,12.3972616 15.581684,12.3978179 15.575007,12.3989307 C15.3902785,12.4356504 15.2116705,12.4896174 15.0408522,12.5586061 C15.0364009,12.5602752 15.0313932,12.5619443 15.0269419,12.5636133 C14.8533416,12.6342711 14.6875311,12.720507 14.5317359,12.8206518 C14.5311795,12.8212082 14.5306231,12.8212082 14.5300667,12.8212082 C14.3726023,12.9224658 14.2251533,13.0376324 14.0893889,13.1650389 L14.0860505,13.1756098 L14.0749222,13.1783916 C13.8579219,13.3842449 13.6715241,13.6218108 13.5224059,13.8833002 C13.5207366,13.8866384 13.518511,13.8894202 13.5168417,13.892202 C13.471216,13.9723179 13.430598,14.0557719 13.3922056,14.1403387 C13.3883107,14.1492405 13.383303,14.1581423 13.3794082,14.167044 C13.3449107,14.2454908 13.3154209,14.3267195 13.2876003,14.4085044 C13.2820362,14.4246389 13.2753592,14.4396606 13.2703515,14.4557951 C13.2458695,14.5320164 13.2263951,14.6104633 13.2080335,14.6894664 C13.2030258,14.7117209 13.1957924,14.7334189 13.1907847,14.7562297 C13.1746488,14.8341201 13.1635206,14.9131233 13.1529488,14.9932392 C13.1501667,15.0177191 13.1446026,15.0410862 13.1418205,15.0655661 C13.1306923,15.1696055 13.1251282,15.2758703 13.1251282,15.3826915 C13.1251282,15.584094 13.1457154,15.7804892 13.182995,15.9707644 C13.1835514,15.974659 13.1841078,15.9785535 13.1846642,15.9830044 C13.2230566,16.1727233 13.2786977,16.3563222 13.3510312,16.5315757 C13.352144,16.5338012 13.3527004,16.536583 13.3538132,16.5388084 C13.5001494,16.8937664 13.7121421,17.2147863 13.9736554,17.4874029 C14.1806404,17.7027144 14.4187844,17.8879824 14.6802977,18.0359743 C14.6814105,18.0365306 14.6830798,18.0376433 14.6841926,18.0381997 C14.765985,18.0838213 14.8505596,18.1255483 14.9362469,18.1639372 C14.9434802,18.1672753 14.9501572,18.1711698 14.9573905,18.1739516 C15.0369573,18.2090023 15.1193062,18.2384895 15.2027679,18.2668638 C15.2166782,18.2718711 15.2305885,18.2774347 15.2444987,18.2824419 C15.3212835,18.3069218 15.4002939,18.3263944 15.4798607,18.3447543 C15.5015607,18.3497615 15.522148,18.3564379 15.543848,18.3608887 C15.6211892,18.3770232 15.7001996,18.387594 15.7797664,18.3981649 C15.8036921,18.401503 15.8276178,18.4065103 15.8515434,18.4092921 C15.9555923,18.4198629 16.0607541,18.4259829 16.167585,18.4259829 C16.5876756,18.4259829 16.9877353,18.3408598 17.3521846,18.1867479 C17.5341311,18.1099702 17.707175,18.0153889 17.8690907,17.9063423 C18.1929221,17.6876927 18.4722405,17.4083997 18.6909102,17.084598 C18.7999668,16.9226971 18.8945567,16.749669 18.9713414,16.5677392 C19.1254674,16.2038795 19.2105983,15.8033 19.2105983,15.3832479 C19.2105983,15.3760152 19.2094855,15.3693389 19.2094855,15.3621062 L19.2094855,15.3621062 C19.2100419,15.3554298 19.2089291,15.3481972 19.2089291,15.3404081 L19.2089291,15.3404081 Z M16.1681415,14.9837811 C15.5366147,14.9837811 15.0252727,14.4719295 15.0252727,13.8410168 C15.0252727,13.2095478 15.5371711,12.6982526 16.1681415,12.6982526 C16.7996682,12.6982526 17.3110107,13.2101041 17.3110107,13.8410168 C17.3115666,14.4719295 16.7996682,14.9837811 16.1681415,14.9837811 Z" id="XMLID_214_" fill="#000000" fill-rule="nonzero"></path>
                    <circle id="XMLID_69_" fill="#FFFFFF" fill-rule="nonzero" cx="14.9948718" cy="13.2622222" r="1"></circle>
                    <path d="M13.7087179,12.8564103 L13.7087179,12.8564103 L13.7155556,12.8547009 L13.7176068,12.8482051 L13.7176068,12.8482051 L15.0051282,8.91042735 C15.0051282,8.91042735 15.0051282,8.67726496 15.0051282,8.44444444 C15.0051282,8.37880342 15.0051282,8.31384615 15.0051282,8.25333333 C15.0051282,8.23316239 15.0051282,8.21333333 15.0051282,8.19452991 C15.0051282,8.16512821 15.0051282,8.13846154 15.0051282,8.11350427 C15.0051282,8.09606838 15.0051282,8.07897436 15.0051282,8.06461538 C15.0051282,8.04512821 15.0051282,8.02905983 15.0051282,8.0157265 C15.0051282,8.00478632 15.0051282,7.99521368 15.0051282,7.98905983 C15.0051282,7.98222222 15.0051282,7.97846154 15.0051282,7.97846154 C14.2882051,7.83145299 13.5507692,7.75076923 12.7958974,7.75076923 C12.5439316,7.75076923 12.2940171,7.76136752 12.045812,7.77846154 C12.0095726,7.7808547 11.9733333,7.78324786 11.937094,7.78598291 C10.6444444,7.88410256 9.37196581,8.22119658 8.19350427,8.75897436 C7.18290598,9.22051282 6.24376068,9.82837607 5.39965812,10.5490598 L5.39965812,10.5490598 C5.39931624,10.5494017 5.39863248,10.5500855 5.3982906,10.5504274 C5.17162393,10.742906 4.95452991,10.9463248 4.74222222,11.1545299 C4.7025641,11.1935043 4.66222222,11.2317949 4.62324786,11.2711111 C4.42358974,11.4724786 4.23042735,11.6803419 4.04376068,11.894359 C4.00307692,11.9408547 3.9634188,11.9883761 3.9234188,12.0355556 C3.73606838,12.2567521 3.55350427,12.4820513 3.38051282,12.7152137 C3.36615385,12.7347009 3.35247863,12.7552137 3.33811966,12.7747009 C3.17299145,12.9993162 3.01606838,13.2297436 2.86461538,13.4642735 C2.83521368,13.5100855 2.80478632,13.5552137 2.7757265,13.6013675 C2.65333333,13.7955556 2.5391453,13.9952137 2.42632479,14.1952137 L8.2817094,14.1952137 L8.29196581,14.1952137 L13.7087179,12.8564103 Z" id="XMLID_68_" fill="#BBBCBD" fill-rule="nonzero"></path>
                    <path d="M18.6608547,12.4129915 C18.6728205,12.2594872 18.682735,12.105641 18.6905983,11.9521368 C18.7011966,11.7439316 18.7083761,11.5357265 18.7124786,11.3275214 C18.7155556,11.165812 18.7152137,11.0041026 18.7145299,10.8423932 C18.714188,10.7955556 18.7155556,10.7490598 18.7148718,10.7022222 C18.7104274,10.2854701 18.694359,9.86803419 18.6687179,9.45059829 L18.6687179,9.45059829 L18.6687179,9.45059829 C18.6676923,9.44991453 18.6663248,9.44888889 18.6652991,9.44820513 C18.6646154,9.44717949 18.6642735,9.44615385 18.6635897,9.44512821 C18.6618803,9.44410256 18.6560684,9.44068376 18.6505983,9.43760684 C18.6454701,9.43487179 18.6413675,9.43213675 18.6317949,9.42700855 C18.5552137,9.38290598 18.3668376,9.27521368 18.1979487,9.1791453 C18.1945299,9.17709402 18.1907692,9.17504274 18.1873504,9.17299145 C18.1446154,9.14871795 18.1032479,9.12547009 18.0659829,9.1042735 C18.0652991,9.10393162 18.0642735,9.10324786 18.0639316,9.10290598 C18.0317949,9.08478632 18.0047863,9.06974359 17.9798291,9.0557265 C17.9747009,9.05299145 17.9678632,9.04888889 17.9634188,9.04649573 C17.9360684,9.03111111 17.9145299,9.01948718 17.9022222,9.01333333 C17.6324786,8.87350427 17.357265,8.74393162 17.0776068,8.62564103 C16.4105983,8.34393162 15.5121368,8.09709402 15.005812,7.97777778 L15.005812,8.33230769 L15.005812,8.41504274 L15.005812,8.44376068 C15.005812,8.67692308 15.005812,8.90974359 15.005812,8.90974359 L16.2820513,12.8540171 L16.2834188,12.8574359 C16.4150427,12.982906 16.528547,13.1275214 16.6194872,13.2864957 L16.6194872,13.2864957 C16.6492308,13.3388034 16.6765812,13.3924786 16.7011966,13.4475214 C16.7018803,13.448547 16.7022222,13.4495726 16.702906,13.4509402 C16.7275214,13.505641 16.7490598,13.5620513 16.7682051,13.6194872 C16.768547,13.6208547 16.7692308,13.6222222 16.7695726,13.6235897 C16.7883761,13.6810256 16.8047863,13.7394872 16.8181197,13.7993162 C16.8184615,13.8010256 16.8188034,13.8023932 16.8191453,13.8041026 C16.8324786,13.8642735 16.8430769,13.925812 16.8502564,13.9883761 C16.8502564,13.9894017 16.8505983,13.9900855 16.8505983,13.9911111 C16.8581197,14.054359 16.8622222,14.1186325 16.8632479,14.1839316 L16.8632479,14.1839316 L16.8680342,14.1945299 L18.4307692,14.1945299 C18.5364103,13.6225641 18.6099145,13.0430769 18.6567521,12.4611966 C18.6577778,12.4451282 18.6594872,12.4290598 18.6608547,12.4129915 Z" id="XMLID_67_" fill="#E2DDDB" fill-rule="nonzero"></path>
                    <path d="M20.8390154,11.1496615 C20.8371897,11.1527043 20.8359726,11.1563556 20.834147,11.1593983 C20.8359726,11.1563556 20.8377983,11.1533128 20.8390154,11.1496615 L20.8390154,11.1496615 Z" id="XMLID_66_" fill="#FBB040" fill-rule="nonzero"></path>
                    <path d="M16.8765812,19.8150427 C17.2311111,19.4622222 17.565812,19.1244444 17.8851282,18.7931624 C18.0748718,18.5965812 18.2601709,18.4017094 18.437265,18.2095726 C19.7432479,16.7917949 20.7022222,15.4649573 21.2789744,13.7582906 C21.2926496,13.7176068 21.3063248,13.6642735 21.3193162,13.6044444 C21.3213675,13.5952137 21.3234188,13.5863248 21.3254701,13.5767521 C21.3391453,13.5131624 21.3521368,13.4423932 21.3651282,13.3623932 C21.3702564,13.3073504 21.3757265,13.2540171 21.3805128,13.2023932 C21.2355556,12.4591453 20.954188,11.737094 20.7059829,11.0235897 C20.7070085,11.0259829 20.7076923,11.0283761 20.7087179,11.0307692 C20.7073504,11.0294017 20.7025641,11.0249573 20.7015385,11.0239316 C20.6540171,10.9788034 20.6041026,10.9367521 20.5558974,10.8923077 C20.4088889,10.7569231 20.2594872,10.6246154 20.1073504,10.4964103 C19.6509402,10.111453 19.1716239,9.76068376 18.6683761,9.45059829 L18.6683761,9.45059829 C18.6940171,9.86803419 18.7100855,10.2854701 18.7145299,10.7022222 C18.7152137,10.7490598 18.7138462,10.7955556 18.714188,10.8423932 C18.7148718,11.0041026 18.7152137,11.165812 18.7121368,11.3275214 C18.7080342,11.5357265 18.7008547,11.7439316 18.6902564,11.9521368 C18.6823932,12.1059829 18.6724786,12.2594872 18.6605128,12.4129915 C18.6591453,12.4290598 18.6574359,12.4447863 18.6564103,12.4608547 C18.6099145,13.0430769 18.5360684,13.6222222 18.4304274,14.194188 L18.2468376,15.0622222 C17.8635897,16.6164103 17.0847863,18.0263248 16.4444444,19.4820513 C16.2745299,19.8680342 16.1135043,20.2584615 15.9723077,20.6560684 C15.9593162,20.6926496 15.945641,20.7309402 15.9323077,20.768547 C16.1323077,20.5582906 16.3094017,20.3767521 16.4441026,20.2434188 C16.5911111,20.0981197 16.7353846,19.9555556 16.8765812,19.8150427 Z" id="XMLID_65_" fill="#FBB040" fill-rule="nonzero"></path>
                    <path d="M13.7176068,12.8482051 L13.7176068,12.8482051 C13.8010256,12.7699145 13.8916239,12.6991453 13.9883761,12.6369231 C13.9887179,12.6365812 13.9890598,12.6365812 13.9894017,12.6365812 C14.0851282,12.5750427 14.1870085,12.5220513 14.2936752,12.4786325 C14.2964103,12.4776068 14.2994872,12.4765812 14.3022222,12.4755556 C14.4071795,12.4331624 14.5169231,12.4 14.6304274,12.3774359 C14.6345299,12.3767521 14.6386325,12.3764103 14.642735,12.3757265 C14.7569231,12.3538462 14.8745299,12.3415385 14.9952137,12.3415385 C15.1179487,12.3415385 15.2376068,12.354188 15.3538462,12.3767521 C15.3569231,12.3774359 15.3596581,12.3774359 15.3623932,12.3781197 C15.4782906,12.4013675 15.5900855,12.4355556 15.697094,12.4789744 C15.6988034,12.4796581 15.7005128,12.4803419 15.7025641,12.4810256 C15.9196581,12.5702564 16.1162393,12.6991453 16.2834188,12.8584615 L16.2820513,12.8550427 L15.005812,8.91076923 L13.7176068,12.8482051 Z" id="XMLID_64_" fill="#909393" fill-rule="nonzero"></path>
                    <path d="M13.2642735,14.9165812 C13.2201709,14.8088889 13.185641,14.6960684 13.1620513,14.5794872 C13.1617094,14.577094 13.1613675,14.5747009 13.1610256,14.5719658 C13.1381197,14.4550427 13.1254701,14.334359 13.1254701,14.2105983 C13.1254701,14.1446154 13.1288889,14.0796581 13.1357265,14.0157265 C13.1374359,14.0006838 13.1405128,13.9863248 13.1425641,13.9712821 C13.1490598,13.9223932 13.1555556,13.8735043 13.165812,13.825641 C13.1688889,13.8116239 13.1729915,13.7982906 13.1764103,13.7846154 C13.1876923,13.7360684 13.1996581,13.6878632 13.2147009,13.6410256 C13.2177778,13.6311111 13.2218803,13.6218803 13.2252991,13.6119658 C13.2423932,13.5617094 13.2605128,13.5117949 13.2817094,13.4635897 C13.2841026,13.4581197 13.2871795,13.4526496 13.2895726,13.4471795 C13.3131624,13.3952137 13.3381197,13.3439316 13.3661538,13.2947009 C13.3671795,13.2926496 13.368547,13.2909402 13.3695726,13.2892308 C13.4611966,13.128547 13.5757265,12.9825641 13.7090598,12.8560684 L13.7090598,12.8560684 L8.29196581,14.194188 L8.2817094,14.194188 L13.6471795,15.5035897 C13.4864957,15.3360684 13.3562393,15.1388034 13.2663248,14.9206838 C13.2652991,14.9196581 13.2649573,14.9179487 13.2642735,14.9165812 Z" id="XMLID_63_" fill="#676A6A" fill-rule="nonzero"></path>
                    <path d="M25.4523077,13.9015385 C25.4557265,13.877265 25.4608547,13.8547009 25.4649573,13.8311111 C25.4786325,13.754188 25.4947009,13.6789744 25.5155556,13.6075214 C25.5179487,13.5996581 25.5189744,13.5904274 25.5210256,13.5825641 L26.2276923,10.3459829 L26.2276923,8.50051282 C25.6502564,8.02358974 25.0317949,7.76273504 24.3876923,7.76273504 C23.574359,7.76273504 22.8157265,8.21196581 22.248547,8.76683761 C21.6276923,9.37401709 21.1483761,10.1381197 20.7603419,10.9090598 C20.7425641,10.9446154 20.7244444,10.9784615 20.7066667,11.014359 C20.8263248,11.1179487 20.9446154,11.222906 21.0611966,11.3295726 C21.3254701,11.5712821 21.5839316,11.8191453 21.8386325,12.0707692 C21.9576068,12.1880342 22.0738462,12.3076923 22.1907692,12.4270085 C22.3148718,12.5531624 22.4389744,12.6793162 22.5610256,12.8075214 C22.7179487,12.9726496 22.8738462,13.1391453 23.0280342,13.3073504 C23.0929915,13.3781197 23.1576068,13.4492308 23.2218803,13.5203419 C23.4075214,13.7261538 23.5924786,13.9326496 23.774359,14.1422222 L23.7747009,14.1425641 C23.8051282,14.1747009 23.8266667,14.197265 23.8348718,14.2068376 L25.4287179,14.2068376 C25.4287179,14.1938462 25.431453,14.1822222 25.431453,14.1692308 C25.4338462,14.0776068 25.44,13.9876923 25.4523077,13.9015385 Z" id="XMLID_62_" fill="#E2DDDB" fill-rule="nonzero"></path>
                    <path d="M20.8403248,11.1555145 C20.8391077,11.1524718 20.8384991,11.1494291 20.8372821,11.1469949 L20.8372821,11.1469949 C20.8354564,11.1500376 20.8342393,11.1530803 20.8324137,11.1567316 C20.8342393,11.1585573 20.842759,11.1664684 20.8451932,11.1689026 C20.8439761,11.1646427 20.8421504,11.1603829 20.8403248,11.1555145 Z" id="XMLID_61_" fill="#E2DDDB" fill-rule="nonzero"></path>
                    <path d="M1.46495726,16.2311111 C1.46940171,16.2191453 1.47452991,16.2075214 1.47897436,16.1955556 C1.58153846,15.9271795 1.69401709,15.6622222 1.81230769,15.4 C1.84512821,15.3268376 1.87931624,15.2547009 1.91316239,15.1818803 C2.00991453,14.9760684 2.11213675,14.7729915 2.21811966,14.5716239 C2.26119658,14.4895726 2.30324786,14.4075214 2.34803419,14.3264957 C2.37264957,14.2817094 2.40068376,14.2389744 2.42564103,14.194188 C2.53880342,13.994188 2.65264957,13.7945299 2.77504274,13.6003419 C2.80410256,13.554188 2.83452991,13.5090598 2.86393162,13.4632479 C3.01538462,13.2290598 3.17264957,12.9982906 3.3374359,12.7736752 C3.35179487,12.754188 3.36512821,12.7336752 3.37982906,12.714188 C3.55282051,12.4813675 3.73538462,12.2557265 3.92273504,12.0345299 C3.96273504,11.9873504 4.00239316,11.9398291 4.04307692,11.8933333 C4.22974359,11.6793162 4.4225641,11.471453 4.6225641,11.2700855 C4.66188034,11.2307692 4.70188034,11.1924786 4.74153846,11.1535043 C4.95384615,10.9452991 5.17094017,10.7422222 5.39760684,10.5494017 C5.39794872,10.5490598 5.39863248,10.5483761 5.39897436,10.5480342 C6.29025641,7.56136752 9.01811966,5.38735043 12.245812,5.38735043 C13.5452991,5.38735043 14.8369231,5.7617094 15.9442735,6.43897436 C17.08,7.13367521 18.0054701,8.15145299 18.6068376,9.33777778 C18.6099145,9.34358974 18.6129915,9.34974359 18.6157265,9.35555556 C18.6307692,9.38564103 18.6478632,9.41435897 18.662906,9.44478632 L18.662906,9.44478632 L18.662906,9.44478632 C18.6632479,9.44581197 18.6639316,9.44683761 18.6646154,9.44786325 C18.665641,9.44854701 18.6670085,9.44957265 18.6680342,9.45025641 C19.1709402,9.76 19.6505983,10.1111111 20.1070085,10.4960684 C20.2591453,10.6242735 20.408547,10.7565812 20.5555556,10.8919658 C20.6037607,10.9364103 20.6536752,10.9784615 20.7011966,11.0235897 C20.7022222,11.0218803 20.702906,11.0198291 20.7039316,11.0181197 C20.7046154,11.017094 20.7052991,11.0157265 20.705641,11.0147009 C20.7220513,10.9808547 20.7381197,10.9466667 20.7548718,10.9138462 C21.2095726,8.04307692 22.4758974,5.97504274 23.9695726,5.97504274 C25.0953846,5.97504274 26.0926496,7.14905983 26.7107692,8.95589744 L26.7169231,8.97538462 C26.7176068,8.97606838 26.7179487,8.97675214 26.7186325,8.9774359 C26.8929915,9.16717949 27.0632479,9.37606838 27.2280342,9.60512821 L27.2276923,9.60512821 C27.2311111,9.60957265 27.234188,9.61367521 27.2376068,9.61811966 L27.2376068,9.61777778 L27.2376068,9.61811966 C27.2464957,9.64444444 27.2540171,9.67111111 27.2625641,9.6974359 L27.2625641,9.6974359 L27.2389744,9.6034188 C25.3808547,4.1025641 20.1781197,0.142222222 14.0502564,0.142222222 C6.36376068,0.142222222 0.132991453,6.37333333 0.132991453,14.0594872 C0.132991453,15.5747009 0.375042735,17.0335043 0.824615385,18.3911111 C0.825299145,18.3883761 0.825982906,18.3859829 0.826324786,18.3832479 C0.914871795,17.9736752 1.02051282,17.5668376 1.14393162,17.1641026 C1.24136752,16.8499145 1.34837607,16.5388034 1.46495726,16.2311111 Z" id="XMLID_60_" fill="#525353" fill-rule="nonzero"></path>
                    <path d="M27.4482051,14.2129915 L26.962735,14.7558974 L26.962735,14.7558974 C26.9623932,14.757265 26.9620513,14.7582906 26.9617094,14.7596581 C26.9432479,14.8307692 26.9206838,14.8977778 26.8957265,14.9620513 C26.8892308,14.9791453 26.8820513,14.9948718 26.8748718,15.0112821 C26.8553846,15.0567521 26.8348718,15.1001709 26.8123077,15.1411966 C26.8003419,15.1630769 26.7883761,15.185641 26.7757265,15.2061538 C26.7555556,15.2386325 26.7340171,15.2676923 26.7117949,15.2964103 C26.68,15.3377778 26.6464957,15.3750427 26.6112821,15.4078632 C26.5969231,15.4215385 26.582906,15.4362393 26.5678632,15.4482051 C26.5405128,15.4700855 26.5121368,15.4882051 26.4834188,15.5046154 C26.4724786,15.5107692 26.4615385,15.5169231 26.4502564,15.5223932 C26.3808547,15.5562393 26.3076923,15.5764103 26.2317949,15.5764103 C25.7907692,15.5764103 25.4331624,14.9637607 25.4331624,14.2078632 L25.4300855,14.2078632 L25.4294017,14.2078632 L23.8355556,14.2078632 L23.8307692,14.2078632 C23.8311111,14.2082051 23.831453,14.208547 23.8317949,14.2088889 C24.1292308,14.5524786 24.4218803,14.9008547 24.7100855,15.2523077 C24.7135043,15.2564103 24.7169231,15.2608547 24.7206838,15.2649573 C25.0010256,15.6071795 25.2776068,15.9528205 25.5507692,16.3001709 C25.5641026,16.317265 25.5777778,16.3340171 25.5911111,16.3511111 C25.8502564,16.6817094 26.1066667,17.014359 26.3606838,17.3476923 C26.3852991,17.3801709 26.4102564,17.4123077 26.4348718,17.4444444 C26.7035897,17.7979487 26.9699145,18.1524786 27.2338462,18.5073504 C27.2355556,18.5097436 27.2376068,18.5124786 27.2393162,18.5148718 C27.697094,17.16 27.9531624,15.7128205 27.9692308,14.2075214 L27.965812,14.2075214 L27.4533333,14.2075214 L27.4482051,14.2129915 Z" id="XMLID_59_" fill="#FFFFFF" fill-rule="nonzero"></path>
                    <path d="M11.937094,7.78529915 C11.9733333,7.7825641 12.0095726,7.78017094 12.045812,7.77777778 C12.2940171,7.76102564 12.5439316,7.75008547 12.7958974,7.75008547 C13.5504274,7.75008547 14.2878632,7.83111111 15.0051282,7.97777778 C15.0051282,7.97777778 15.0051282,7.98153846 15.0051282,7.98837607 C15.0051282,7.99452991 15.0051282,8.00410256 15.0051282,8.01504274 C15.0051282,8.02837607 15.0051282,8.04512821 15.0051282,8.06393162 C15.0051282,8.07863248 15.0051282,8.09538462 15.0051282,8.11282051 C15.0051282,8.1374359 15.0051282,8.16512821 15.0051282,8.19384615 C15.0051282,8.21264957 15.0051282,8.23247863 15.0051282,8.25264957 C15.0051282,8.2782906 15.0051282,8.30495726 15.0051282,8.33230769 L15.0051282,7.97777778 C15.511453,8.09709402 16.4099145,8.34393162 17.0769231,8.62564103 C17.3569231,8.74393162 17.6321368,8.87316239 17.9015385,9.01333333 C17.9138462,9.01982906 17.9353846,9.03145299 17.962735,9.04649573 C17.9675214,9.04923077 17.974359,9.05299145 17.9791453,9.0557265 C18.0041026,9.06974359 18.031453,9.08478632 18.0632479,9.10290598 C18.0639316,9.10324786 18.0649573,9.10393162 18.0652991,9.1042735 C18.102906,9.12547009 18.1435897,9.14871795 18.1866667,9.17299145 C18.1900855,9.17504274 18.1938462,9.17709402 18.197265,9.1791453 C18.3688889,9.2765812 18.5586325,9.38529915 18.6311111,9.42700855 C18.6403419,9.43247863 18.6447863,9.43487179 18.6499145,9.43760684 C18.6533333,9.43965812 18.6618803,9.44444444 18.662906,9.44512821 L18.662906,9.44512821 C18.6478632,9.41504274 18.6307692,9.38598291 18.6157265,9.35589744 C18.6126496,9.35008547 18.6099145,9.34393162 18.6068376,9.33811966 C18.005812,8.15179487 17.08,7.13401709 15.9442735,6.43931624 C14.8369231,5.76205128 13.5449573,5.38769231 12.245812,5.38769231 C9.01811966,5.38769231 6.29025641,7.5617094 5.39897436,10.5483761 C6.24307692,9.82769231 7.18188034,9.21982906 8.19282051,8.7582906 C9.37196581,8.22017094 10.6447863,7.8834188 11.937094,7.78529915 Z" id="XMLID_58_" fill="#000000" fill-rule="nonzero"></path>
                    <line x1="15.1388034" y1="8.43358291" x2="15.1388034" y2="8.58145983" id="XMLID_57_"></line>
                    <path d="M22.248547,8.76752137 C22.8157265,8.21264957 23.574359,7.7634188 24.3876923,7.7634188 C25.0317949,7.7634188 25.6502564,8.0242735 26.2276923,8.50119658 C26.2276923,8.50119658 26.2276923,8.50529915 26.2276923,8.50666667 L26.2276923,8.50769231 L26.2276923,8.50666667 C26.2793162,8.54905983 26.3299145,8.59692308 26.3811966,8.6434188 C26.4119658,8.67145299 26.4437607,8.69709402 26.474188,8.72649573 C26.5552137,8.80410256 26.6352137,8.88615385 26.7145299,8.97230769 L26.7145299,8.97230769 C26.7162393,8.97401709 26.7176068,8.97606838 26.7189744,8.97777778 C26.7186325,8.97709402 26.7179487,8.97641026 26.717265,8.97606838 L26.717265,8.97606838 L26.7107692,8.9565812 C26.0926496,7.14974359 25.0953846,5.9757265 23.9695726,5.9757265 C22.4758974,5.9757265 21.2095726,8.04376068 20.7548718,10.9145299 L20.7596581,10.9104274 C21.1483761,10.1388034 21.6280342,9.37470085 22.248547,8.76752137 Z" id="XMLID_56_" fill="#000000" fill-rule="nonzero"></path>
                    <path d="M9.06837607,27.0413675 C9.19555556,27.0902564 9.32478632,27.134359 9.45367521,27.1794872 C10.8933333,27.6837607 12.4393162,27.9617094 14.0516239,27.9617094 C15.8899145,27.9617094 17.6430769,27.6020513 19.2495726,26.9545299 C19.3347009,26.9203419 19.4177778,26.882735 19.5018803,26.8468376 C19.6382906,26.7887179 19.7736752,26.7288889 19.9076923,26.6666667 C20.0276923,26.6109402 20.1476923,26.5555556 20.265641,26.4967521 C20.237265,26.5001709 20.208547,26.505641 20.1801709,26.5090598 L20.1801709,26.5090598 C19.6806838,26.5651282 19.1852991,26.568547 18.7008547,26.4991453 C15.837265,26.0875214 15.202735,24.7066667 15.2936752,23.2687179 C15.0875214,23.1497436 14.8776068,23.0160684 14.6642735,22.8611966 C12.4618803,21.2635897 11.1548718,19.5613675 11.1548718,19.5613675 C11.1548718,19.5613675 12.8536752,20.8728205 15.391453,21.854359 C15.445812,21.8755556 15.4967521,21.8936752 15.5504274,21.9138462 C15.6690598,21.5039316 15.8092308,21.114188 15.9326496,20.7688889 L15.9326496,20.7688889 C15.9459829,20.7312821 15.9596581,20.6929915 15.9726496,20.6564103 C16.1138462,20.2588034 16.2748718,19.8687179 16.4447863,19.4823932 C17.0851282,18.0266667 17.8635897,16.6167521 18.2471795,15.0625641 L18.4307692,14.1945299 L16.8680342,14.1945299 L16.8646154,14.1945299 L16.8646154,14.1945299 C16.8646154,14.1955556 16.8646154,14.1965812 16.8646154,14.1976068 L16.8639316,14.1979487 L16.8639316,14.1979487 C16.8639316,14.2023932 16.8646154,14.2064957 16.8646154,14.2109402 C16.8646154,14.4690598 16.8123077,14.7148718 16.7176068,14.9388034 C16.6700855,15.0505983 16.6123077,15.1569231 16.5452991,15.2564103 C16.4109402,15.4553846 16.2393162,15.6270085 16.0403419,15.7613675 C15.9408547,15.8287179 15.8345299,15.8864957 15.722735,15.9336752 C15.4991453,16.0283761 15.2529915,16.0806838 14.9948718,16.0806838 C14.9292308,16.0806838 14.8646154,16.077265 14.8006838,16.0704274 C14.785641,16.0687179 14.7712821,16.065641 14.7565812,16.0635897 C14.7076923,16.0574359 14.6591453,16.0505983 14.6116239,16.0406838 C14.5982906,16.0379487 14.585641,16.0338462 14.5723077,16.0307692 C14.5234188,16.0194872 14.4748718,16.0075214 14.4276923,15.9924786 C14.4191453,15.9897436 14.4105983,15.9859829 14.4020513,15.982906 C14.3511111,15.965812 14.3001709,15.9473504 14.2512821,15.925812 C14.2468376,15.9237607 14.242735,15.9217094 14.2382906,15.9196581 C14.1852991,15.8960684 14.1333333,15.8707692 14.0834188,15.8423932 C14.082735,15.8420513 14.0817094,15.8413675 14.0810256,15.8410256 C13.92,15.7504274 13.7736752,15.6365812 13.6468376,15.5039316 L8.28136752,14.1945299 L2.42598291,14.1945299 C2.40068376,14.2389744 2.37299145,14.2820513 2.34837607,14.3268376 C2.30358974,14.4078632 2.26153846,14.4902564 2.21846154,14.5719658 C2.11247863,14.7729915 2.00991453,14.9760684 1.91350427,15.1822222 C1.87931624,15.2547009 1.84547009,15.3271795 1.81264957,15.4003419 C1.69470085,15.6625641 1.58222222,15.9275214 1.47931624,16.1958974 C1.47487179,16.2078632 1.46974359,16.2194872 1.46529915,16.231453 C1.34871795,16.5391453 1.2417094,16.8502564 1.14564103,17.1641026 C1.0225641,17.5668376 0.916581197,17.9736752 0.828034188,18.3832479 C1.75008547,21.1948718 3.54324786,23.6105983 5.88786325,25.3135043 C5.95589744,25.3630769 6.02803419,25.4071795 6.09709402,25.4553846 C6.49367521,25.7326496 6.90324786,25.9917949 7.32854701,26.2273504 C7.88649573,26.5360684 8.46666667,26.8102564 9.06837607,27.0413675 Z" id="XMLID_55_" fill="#FFFFFF" fill-rule="nonzero"></path>
                    <path d="M18.677265,22.7186325 C18.6560684,22.8676923 18.6413675,23.014359 18.637265,23.1558974 C18.6290598,23.4133333 18.6468376,23.6577778 18.6844444,23.8888889 C18.7094017,24.0430769 18.742906,24.1911111 18.7832479,24.3326496 C18.8437607,24.5452991 18.9196581,24.7439316 19.0047863,24.9275214 C19.0895726,25.1111111 19.1835897,25.2796581 19.28,25.4328205 C19.3121368,25.4837607 19.3446154,25.5329915 19.377094,25.5805128 C19.4259829,25.6516239 19.4748718,25.7186325 19.5230769,25.7815385 C19.5870085,25.8652991 19.6488889,25.9388034 19.7087179,26.0078632 C19.9641026,26.3015385 20.1651282,26.4611966 20.1651282,26.4611966 C20.1651282,26.4611966 20.1664957,26.4659829 20.1692308,26.474188 C20.1719658,26.4823932 20.1760684,26.4947009 20.1808547,26.5094017 L20.1808547,26.5094017 C20.2092308,26.5063248 20.2379487,26.5008547 20.2663248,26.497094 C20.8868376,26.4194872 21.5121368,26.2512821 22.1288889,26.0294017 C22.4434188,25.9162393 22.7565812,25.7935043 23.0649573,25.6529915 C23.1589744,25.6099145 23.2509402,25.5623932 23.3442735,25.517265 C26.5323077,23.9757265 29.2017094,21.2492308 29.2017094,21.2492308 C25.1955556,23.217094 21.2806838,23.1388034 18.677265,22.7186325 Z" id="XMLID_54_" fill="#9F2255" fill-rule="nonzero"></path>
                    <path d="M26.3603419,17.3480342 C26.1063248,17.014359 25.8502564,16.6817094 25.5907692,16.351453 C25.5774359,16.334359 25.5637607,16.3176068 25.5504274,16.3005128 C25.277265,15.9528205 25.0006838,15.6075214 24.7203419,15.2652991 C24.7169231,15.2611966 24.7135043,15.2567521 24.7097436,15.2526496 C24.4211966,14.9011966 24.1288889,14.5528205 23.831453,14.2092308 C23.8126496,14.1873504 23.7938462,14.1654701 23.7747009,14.1435897 C23.5928205,13.934359 23.4078632,13.7275214 23.2222222,13.5217094 C23.1576068,13.4505983 23.0933333,13.3794872 23.0283761,13.3087179 C22.874188,13.1405128 22.7186325,12.9740171 22.5613675,12.8088889 C22.4389744,12.6806838 22.3152137,12.5545299 22.1911111,12.4283761 C22.074188,12.3094017 21.9576068,12.1894017 21.8389744,12.0721368 C21.5835897,11.8208547 21.3254701,11.5726496 21.0615385,11.3309402 C20.9446154,11.2242735 20.8263248,11.1189744 20.7066667,11.0153846 C20.7059829,11.0167521 20.705641,11.0177778 20.7049573,11.0188034 C20.9565812,11.7415385 21.2434188,12.4735043 21.3870085,13.2270085 C21.4242735,13.422906 21.4553846,13.6140171 21.4803419,13.8003419 C21.8307692,16.4092308 20.9948718,18.1124786 19.6670085,20.3531624 C19.5719658,20.5138462 19.474188,20.6769231 19.374359,20.8437607 C19.0707692,21.3497436 18.8762393,21.8290598 18.7637607,22.2793162 C18.7261538,22.4294017 18.6977778,22.5760684 18.677265,22.7193162 C21.2806838,23.1394872 25.1955556,23.2177778 29.2010256,21.2495726 C29.2010256,21.2495726 28.4157265,20.0950427 27.2335043,18.5080342 C26.9692308,18.1531624 26.702906,17.7986325 26.4345299,17.4451282 C26.4099145,17.4123077 26.3849573,17.3801709 26.3603419,17.3480342 Z" id="XMLID_53_" fill="#E2066F" fill-rule="nonzero"></path>
                    <path d="M20.1644444,26.4608547 C20.1644444,26.4608547 19.9634188,26.3015385 19.7080342,26.0075214 C19.6482051,25.9384615 19.5866667,25.8649573 19.5223932,25.7811966 C19.474188,25.7182906 19.4252991,25.6512821 19.3764103,25.5801709 C19.3439316,25.5326496 19.311453,25.4834188 19.2793162,25.4324786 C19.182906,25.2796581 19.0888889,25.1111111 19.0041026,24.9271795 C18.9193162,24.7435897 18.8434188,24.5449573 18.7825641,24.3323077 C18.7422222,24.1904274 18.7087179,24.0423932 18.6837607,23.888547 C18.6464957,23.6574359 18.6287179,23.4129915 18.6365812,23.1555556 C18.6410256,23.0140171 18.6553846,22.8673504 18.6765812,22.7182906 C18.697094,22.5750427 18.7254701,22.4280342 18.7630769,22.2782906 C18.8755556,21.8283761 19.0700855,21.3490598 19.3736752,20.842735 C19.3747009,20.8413675 19.3753846,20.84 19.3760684,20.8386325 C19.4752137,20.6735043 19.5719658,20.511453 19.6663248,20.3524786 C20.9938462,18.1117949 21.8297436,16.408547 21.4796581,13.7996581 C21.4547009,13.6133333 21.4235897,13.4225641 21.3863248,13.2263248 C21.3664957,13.3617094 21.3459829,13.4782906 21.3251282,13.5764103 C21.3230769,13.5859829 21.3210256,13.5948718 21.3189744,13.6041026 C21.305641,13.6635897 21.2923077,13.7176068 21.2786325,13.7579487 C20.7018803,15.4646154 19.742906,16.791453 18.4369231,18.2092308 C18.2598291,18.4013675 18.0745299,18.5962393 17.8847863,18.7928205 C17.5654701,19.1237607 17.2307692,19.4618803 16.8762393,19.8147009 C16.7350427,19.9552137 16.5907692,20.0981197 16.4441026,20.2434188 C16.3094017,20.3767521 16.1323077,20.5586325 15.9323077,20.768547 L15.9323077,20.768547 C15.8088889,21.114188 15.6683761,21.5039316 15.5500855,21.9135043 C15.4967521,21.8933333 15.445812,21.8752137 15.3911111,21.8540171 C12.8536752,20.8724786 11.1545299,19.5610256 11.1545299,19.5610256 C11.1545299,19.5610256 12.4615385,21.2632479 14.6639316,22.8608547 C14.877265,23.0157265 15.0871795,23.1494017 15.2933333,23.2683761 C15.2023932,24.7063248 15.8369231,26.0871795 18.7005128,26.4988034 C19.1846154,26.568547 19.6803419,26.5651282 20.1798291,26.5087179 C20.1747009,26.4940171 20.1709402,26.4817094 20.1682051,26.4735043 C20.165812,26.465641 20.1644444,26.4608547 20.1644444,26.4608547 Z" id="XMLID_52_" fill="#000000" fill-rule="nonzero"></path>
                </g>
            </g>
        </g>
    </g>
</svg>