<?xml version="1.0" encoding="UTF-8"?>
<svg width="40px" height="40px" viewBox="0 0 40 40" version="1.1" xmlns="http://www.w3.org/2000/svg" xmlns:xlink="http://www.w3.org/1999/xlink">
    <!-- Generator: sketchtool 59.1 (101010) - https://sketch.com -->
    <title>5776747C-D614-4283-A079-3101B5600E9F</title>
    <desc>Created with sketchtool.</desc>
    <g id="Symbols" stroke="none" stroke-width="1" fill="none" fill-rule="evenodd">
        <g id="Glyphs/Competence/PHP" fill="#000000" fill-rule="nonzero">
            <g id="logo-php" transform="translate(0.000000, 10.000000)">
                <path d="M29.3383333,4.21791667 L35.2566667,4.21791667 C36.99375,4.2325 38.2525,4.73333333 39.0329167,5.71958333 C39.8133333,6.70583333 40.0708333,8.05291667 39.8058333,9.76083333 C39.7029167,10.54125 39.4745833,11.3066667 39.12125,12.0575 C38.7825,12.8083333 38.3116667,13.4854167 37.7079167,14.0891667 C36.9716667,14.8545833 36.1841667,15.3404167 35.345,15.5466667 C34.5058333,15.7529167 33.6370833,15.8558333 32.7391667,15.8558333 L30.0891667,15.8558333 L29.25,20.0516667 L26.1804167,20.0516667 L29.3383333,4.21791667 L29.3383333,4.21791667 M31.9220833,6.73541667 L30.5970833,13.3604167 C30.6854167,13.375 30.77375,13.3825 30.8620833,13.3825 C30.965,13.3825 31.0683333,13.3825 31.17125,13.3825 C32.5845833,13.3970833 33.7625,13.2575 34.7045833,12.9629167 C35.6466667,12.65375 36.28,11.5791667 36.60375,9.73875 C36.86875,8.19291667 36.60375,7.30208333 35.80875,7.06666667 C35.0283333,6.83125 34.0495833,6.72083333 32.8716667,6.73541667 C32.695,6.75 32.5258333,6.7575 32.36375,6.7575 C32.2166667,6.7575 32.0620833,6.7575 31.9,6.7575 L31.9220833,6.73541667" id="p"></path>
                <path d="M17.1220833,0 L20.1695833,0 L19.3083333,4.21791667 L22.0466667,4.21791667 C23.5483333,4.2475 24.6670833,4.55666667 25.4033333,5.14541667 C26.1541667,5.73416667 26.375,6.85333333 26.0658333,8.50208333 L24.58625,15.8558333 L21.4945833,15.8558333 L22.9079167,8.83333333 C23.055,8.09708333 23.0108333,7.57458333 22.7754167,7.26541667 C22.54,6.95625 22.0320833,6.80166667 21.2516667,6.80166667 L18.8004167,6.77958333 L16.9895833,15.8558333 L13.9420833,15.8558333 L17.1220833,0 L17.1220833,0" id="h"></path>
                <path d="M3.15791667,4.21791667 L9.07625,4.21791667 C10.8133333,4.2325 12.0720833,4.73333333 12.8525,5.71958333 C13.6329167,6.70583333 13.8904167,8.05291667 13.6254167,9.76083333 C13.5225,10.54125 13.2941667,11.3066667 12.9408333,12.0575 C12.6020833,12.8083333 12.13125,13.4854167 11.5275,14.0891667 C10.79125,14.8545833 10.00375,15.3404167 9.16458333,15.5466667 C8.32541667,15.7529167 7.45666667,15.8558333 6.55875,15.8558333 L3.90875,15.8558333 L3.06958333,20.0516667 L0,20.0516667 L3.15791667,4.21791667 L3.15791667,4.21791667 M5.74166667,6.73541667 L4.41666667,13.3604167 C4.505,13.375 4.59333333,13.3825 4.68166667,13.3825 C4.78458333,13.3825 4.88791667,13.3825 4.99083333,13.3825 C6.40416667,13.3970833 7.58208333,13.2575 8.52416667,12.9629167 C9.46625,12.65375 10.0995833,11.5791667 10.4233333,9.73875 C10.6883333,8.19291667 10.4233333,7.30208333 9.62833333,7.06666667 C8.84791667,6.83125 7.86916667,6.72083333 6.69125,6.73541667 C6.51458333,6.75 6.34541667,6.7575 6.18333333,6.7575 C6.03625,6.7575 5.88166667,6.7575 5.71958333,6.7575 L5.74166667,6.73541667" id="p"></path>
            </g>
        </g>
    </g>
</svg>