<?xml version="1.0" encoding="UTF-8"?>
<svg width="40px" height="40px" viewBox="0 0 40 40" version="1.1" xmlns="http://www.w3.org/2000/svg" xmlns:xlink="http://www.w3.org/1999/xlink">
    <!-- Generator: sketchtool 59.1 (101010) - https://sketch.com -->
    <title>D7CA4CA8-09F2-4E04-918E-7398796C285C</title>
    <desc>Created with sketchtool.</desc>
    <g id="Symbols" stroke="none" stroke-width="1" fill="none" fill-rule="evenodd">
        <g id="Glyphs/Competence/React" fill="#53C1DE" fill-rule="nonzero">
            <path d="M29.9605233,2.45292458 C32.1368762,3.70768214 32.7741684,7.5193977 31.7994654,12.2509384 C31.7385608,12.5448816 31.6722239,12.8376731 31.6004886,13.1291624 C32.0330564,13.2535734 32.4624207,13.3888639 32.8881729,13.5349051 C37.208306,15.0220973 40,17.3517544 40,19.760542 C40,22.2727125 37.0165873,24.7289429 32.4309158,26.2481768 C32.1885677,26.3285464 31.9402007,26.4057295 31.6870541,26.4804344 C31.7773372,26.8436909 31.8578838,27.2003975 31.9269238,27.5496691 C32.8322328,32.1224178 32.1351059,35.8808486 29.9895555,37.1228603 C27.9121599,38.3253953 24.5546921,37.1441034 21.1550921,34.2187551 C20.7855712,33.9000112 20.425007,33.5710289 20.0738197,33.2321913 C19.7950043,33.5018014 19.516543,33.7590196 19.2391439,34.0015447 C15.729434,37.0693986 12.1251925,38.3422128 9.97769477,37.1039186 C7.89852892,35.90457 7.24512737,32.4060128 8.08175043,27.9998452 C8.1731672,27.5209892 8.27794825,27.0447814 8.3959709,26.5717796 C8.03267559,26.4680771 7.67202143,26.3553357 7.31434439,26.2336607 C2.9032201,24.7261105 6.25277607e-13,22.2396087 6.25277607e-13,19.760542 C6.25277607e-13,17.3604287 2.70459736,15.0463498 6.93940413,13.5699562 C7.41277063,13.4049683 7.90755722,13.2498939 8.41986936,13.1043788 C8.31011936,12.6653343 8.21154329,12.2235718 8.12423658,11.7795191 C7.2467206,7.29546029 7.86418595,3.71193076 9.9488396,2.50514713 C12.1228912,1.24667203 15.7435961,2.59808558 19.3558038,5.80543569 C19.5804928,6.00537705 19.8014587,6.20946359 20.0185877,6.41759027 C20.3428192,6.10458993 20.6749072,5.7998316 21.0145338,5.50360701 C24.4612225,2.50426201 27.8739224,1.24950444 29.9605233,2.45292458 Z M30.0341659,26.9139701 C28.3773832,27.2968765 26.5504789,27.5774621 24.616651,27.7489999 C23.517322,29.3404602 22.390908,30.7736596 21.2637859,32.006466 C21.6004886,32.3304229 21.9363062,32.6366772 22.2696454,32.9234587 C25.1767601,35.4251847 27.8726832,36.3736879 29.1332826,35.6439883 C29.7256103,35.3010897 30.2046416,34.4449938 30.4429181,33.16085 C30.7081025,31.7317222 30.6509232,29.9035787 30.2506683,27.8815921 C30.1881782,27.5659554 30.1155977,27.2432377 30.0341659,26.9139701 Z M10.0527536,26.9904452 C9.9431308,27.4303418 9.84572926,27.8731941 9.76066137,28.3184913 C9.04530086,32.0864816 9.56965073,34.8958781 10.8314893,35.6234534 C11.4243481,35.9652898 12.405247,35.952898 13.6368142,35.5179461 C15.0075236,35.033781 16.5626936,34.0714698 18.1146772,32.7147455 C18.3744294,32.4871254 18.6285382,32.2531447 18.8767725,32.0130159 C17.7087575,30.7594975 16.5497708,29.3280684 15.4431836,27.7707741 C13.5047531,27.6135753 11.6911257,27.3528166 10.0527536,26.9904452 Z M22.4146294,27.894869 C21.6213776,27.9302742 20.81538,27.9485078 20,27.9485078 C19.2063942,27.9485078 18.4255342,27.9332836 17.6597214,27.9031892 C18.4487245,28.9428607 19.2564924,29.9094205 20.0663846,30.783396 C20.8491919,29.9214583 21.6357167,28.9534822 22.4146294,27.894869 Z M20.000177,13.3525688 C18.7671936,13.3525688 17.5474871,13.3996576 16.357875,13.4895866 C15.8438583,14.2428123 15.3514369,15.0104765 14.8812011,15.7916395 L14.4183823,16.5772674 C13.8110186,17.6300995 13.2434863,18.7057595 12.7169891,19.8016119 C13.2448289,20.8971362 13.8140814,21.9722203 14.4235161,23.0245403 C15.0358127,24.0824733 15.6879103,25.1168654 16.37841,26.125498 C17.5444777,26.2010879 18.7553329,26.2398565 20,26.2398565 C21.2498008,26.2398565 22.4762343,26.1961312 23.663014,26.111336 C24.1677968,25.3530961 24.6539872,24.5826958 25.1211575,23.8008257 L25.5819717,23.0151579 C26.1933184,21.956638 26.7665957,20.8766874 27.3008904,19.7773594 C26.7610425,18.6891189 26.1859362,17.6187281 25.5764839,16.567885 C24.9704554,15.5197884 24.3276294,14.4934043 23.649206,13.4906487 C22.459948,13.4000116 21.2386482,13.3525688 20.000177,13.3525688 Z M11.810618,21.8108527 C11.3023775,23.0163971 10.8672485,24.2017606 10.5140824,25.3421597 C11.6550125,25.5905266 12.8904743,25.7886183 14.2004638,25.9348414 C13.7655915,25.2601839 13.346866,24.5752542 12.9446441,23.8806362 C12.5504628,23.1996933 12.1723495,22.5095747 11.810618,21.8108527 Z M28.2223088,21.7494248 C27.8513976,22.4643941 27.4646189,23.1710194 27.0622599,23.8687755 C26.6664558,24.5553319 26.2570326,25.2339464 25.8342332,25.904216 C27.1536051,25.7459551 28.4057073,25.5328162 29.5655791,25.2681629 C29.2076333,24.1470597 28.7569261,22.9680691 28.2223088,21.7494248 Z M8.87871975,14.750363 C8.41568153,14.8812914 7.95657547,15.0257471 7.50199154,15.1835447 C3.88022447,16.4462684 1.70865124,18.3041523 1.70865124,19.760542 C1.70865124,20.4451 2.20963373,21.2886271 3.20168528,22.1383501 C4.30579405,23.0836668 5.91655012,23.9500302 7.86701836,24.6167087 C8.19358571,24.7278129 8.52283478,24.8308729 8.85446724,24.9257954 C9.35969835,23.278572 10.0256687,21.5492088 10.8283029,19.802143 C10.0359362,18.0807459 9.37934819,16.3784676 8.87871975,14.750363 Z M31.1428774,14.7755007 C30.6507462,16.3678461 29.9939811,18.0501205 29.1961267,19.7690392 C30.0320416,21.529559 30.7153605,23.2337846 31.2216538,24.8363975 C31.4503709,24.7685967 31.6748393,24.6986715 31.893466,24.6262681 C35.8528209,23.3143312 38.2913488,21.3068607 38.2913488,19.760542 C38.2913488,18.3089319 36.0335641,16.4248483 32.3319584,15.150795 C31.9492291,15.0189109 31.5519836,14.8941078 31.1428774,14.7755007 Z M20,16.1886961 C21.9727735,16.1886961 23.5718458,17.7879456 23.5718458,19.760542 C23.5718458,21.7333155 21.9727735,23.3325649 20,23.3325649 C18.0274036,23.3325649 16.4281542,21.7333155 16.4281542,19.760542 C16.4281542,17.7879456 18.0274036,16.1886961 20,16.1886961 Z M25.8390129,13.7113997 C26.2587782,14.3693843 26.66432,15.0363355 27.0553559,15.7117891 C27.4527286,16.3978829 27.8363606,17.0918436 28.2060224,17.7932563 C28.7119616,16.608955 29.1416028,15.4536858 29.4862717,14.3488689 C28.3380835,14.086694 27.1153676,13.872493 25.8390129,13.7113997 Z M14.1639965,13.7082132 C12.895962,13.8666511 11.6789109,14.0753643 10.5376268,14.3308123 C10.8853051,15.4513845 11.3110517,16.6117874 11.8086707,17.7920171 C12.1688837,17.0938127 12.5453426,16.4041101 12.9377401,15.7234728 C13.330662,15.0422141 13.7395269,14.3702757 14.1639965,13.7082132 Z M22.1363451,6.79270754 C21.822797,7.06628133 21.516094,7.34760282 21.21652,7.63641163 C22.3597515,8.86815586 23.4985572,10.2912648 24.5977093,11.8563483 C26.4844483,12.0333739 28.2865691,12.3183851 29.9460072,12.7012915 C30.0107417,12.4373294 30.0707041,12.1722199 30.1258652,11.9060925 C30.967445,7.82087232 30.4464586,4.70575256 29.1070828,3.93321278 C27.8494928,3.20793883 25.0894864,4.22264966 22.1363451,6.79270754 Z M10.8049355,3.98401913 C9.54858468,4.71124036 9.04937244,7.60932671 9.80120023,11.4513136 C9.88247133,11.8641986 9.9741407,12.2751465 10.076121,12.683589 C11.7316646,12.3084717 13.5325462,12.0284172 15.4137974,11.8540469 C16.5108251,10.3057809 17.6591903,8.88515032 18.8211864,7.63729676 C18.6206164,7.44557801 18.4204004,7.2602322 18.2210696,7.08320658 C15.1022323,4.31399487 12.1432491,3.20935503 10.8049355,3.98401913 Z M20.0191188,8.85841945 C19.2186089,9.72212743 18.4225247,10.6741712 17.6453823,11.6989725 C19.2204106,11.6252551 20.7980334,11.6256096 22.3730284,11.7000346 C21.596594,10.665674 20.8072368,9.712214 20.0191188,8.85841945 Z" id="Shape"></path>
        </g>
    </g>
</svg>