<?xml version="1.0" encoding="UTF-8"?>
<svg width="40px" height="40px" viewBox="0 0 40 40" version="1.1" xmlns="http://www.w3.org/2000/svg" xmlns:xlink="http://www.w3.org/1999/xlink">
    <!-- Generator: sketchtool 60.1 (101010) - https://sketch.com -->
    <title>771F7FDB-DC5B-49D9-B028-4E760204BA8D</title>
    <desc>Created with sketchtool.</desc>
    <g id="Symbols" stroke="none" stroke-width="1" fill="none" fill-rule="evenodd">
        <g id="Glyphs/Competence/Ruby" fill-rule="nonzero">
            <g id="Symbol" transform="translate(1.000000, 1.000000)">
                <path d="M38.6645176,5.09636474 L38.7351827,5.46373391 L38.7351827,5.46373391 C38.910538,6.49639211 38.9218844,7.65009802 38.7735936,8.89247315 L38.7176302,9.31096842 L36.0994217,36.7297776 L8.41676289,38.0841049 C8.08024957,38.1129897 7.75008989,38.1292123 7.4271373,38.132433 C6.78498894,38.1416958 6.17376986,38.1032931 5.59676984,38.0174226 C3.4059511,36.2640088 1.51687465,34.1080882 0.0570841563,31.6193986 L0.0328410999,30.969196 C0.0267708018,30.7752327 0.0209372516,30.5591979 0.0158892208,30.3244394 L0.0111233547,30.0835636 C-0.0353667526,27.544397 0.0292762129,23.1510611 0.890675315,20.6038349 L2.44393273,25.4801502 L12.320725,23.3475067 L23.666862,13.3346857 L26.9501755,3.38135329 L23.2854601,0.0812613069 L24.1611011,0.0487081064 C28.009093,-0.0779424164 30.6192214,0.0586656288 32.3736512,0.273596837 L32.5650858,0.297791004 C32.7987242,0.32764533 33.0161063,0.359379657 33.2181953,0.391875423 L33.4152221,0.424583573 C35.3268653,0.753727882 35.7905496,1.15441293 35.7905496,1.15441293 C36.477924,1.46204855 37.0498262,1.89027794 37.4818027,2.4440211 C38.0526154,3.17453379 38.4449845,4.07040077 38.6645176,5.09636474 L38.6645176,5.09636474 Z" id="Path" fill="#86291A"></path>
                <path d="M24.7419668,2.09063417 C22.1931001,-0.650729528 15.113373,1.78837599 8.9289538,7.53852882 C2.74453461,13.2886817 -0.202662993,20.1724159 2.34620372,22.9137796 C4.89507044,25.6551433 11.9747975,23.2160378 18.1592167,17.465885 C24.3436359,11.7157321 27.2908335,4.83199787 24.7419668,2.09063417 Z" id="Oval" fill="#A7331F"></path>
                <path d="M27.0549294,28.5603066 L36.0991711,36.7302298 L17.9508389,35.0049813 C20.9806537,33.4167459 24.1016988,31.2499736 27.0549294,28.5603066 Z" id="Path" fill="#C3412D"></path>
                <path d="M0.890612644,20.6039479 L2.44424672,25.4802504 L0.0110102944,30.0835009 L0.00171747767,29.3478475 C-0.0167178516,26.760966 0.107465579,22.9197109 0.890612644,20.6039479 Z" id="Path" fill="#C84C32"></path>
                <path d="M2.44384487,25.4801754 L1.6678263,34.0110777 C1.20217808,33.4045728 0.764317104,32.7729381 0.356853604,32.1164478 L0.0567443411,31.6185451 L0.0567443411,31.6185451 L0.0328654228,30.9683688 C0.0246965035,30.7099035 0.0168732808,30.4123522 0.0110606843,30.0836767 L2.44384487,25.4801754 Z" id="Path" fill="#950C10"></path>
                <path d="M26.9506775,3.38111426 L38.7352453,5.46362085 C38.9104088,6.49650523 38.9220306,7.6499182 38.7734771,8.89280943 L38.71753,9.31128241 C38.5651142,10.3618936 38.3015753,11.4723253 37.9306487,12.6227736 L26.9506775,3.38111426 Z" id="Path" fill="#950C10"></path>
                <path d="M38.7174674,9.31139547 L36.0992337,36.7301168 L34.0979648,20.3899553 C35.8499596,17.7378821 37.1372352,15.0877459 37.9306487,12.6227736 C38.3015501,11.4722374 38.5649132,10.3618561 38.7174674,9.31139547 Z" id="Path" fill="#B03726"></path>
                <polygon id="Path" fill="#C24C32" points="26.9506775 3.38111426 37.9306487 12.6227736 23.6672012 13.3348738"></polygon>
                <path d="M32.5651608,0.297389153 L26.9505897,3.38113945 L23.2850453,0.0808096999 C27.7670251,-0.103521872 30.6855771,0.0525252796 32.5651608,0.297389153 Z" id="Path" fill="#D28073"></path>
                <path d="M23.6672012,13.3348738 L34.0979273,20.3901563 C32.3347248,23.0601821 30.1013037,25.7322005 27.425147,28.2205126 L27.055005,28.5605702 L27.055005,28.5605702 L23.6672012,13.3348738 Z" id="Path" fill="#950C10"></path>
                <polygon id="Path" fill="#C2533A" points="23.6672012 13.3348738 27.0549294 28.5603066 12.3208755 23.3473685"></polygon>
                <path d="M12.3208755,23.3473685 L27.0548415,28.5603318 C24.101611,31.2499988 20.9805407,33.4166832 17.950751,35.0050065 L12.3208755,23.3473685 Z" id="Path" fill="#950C10"></path>
                <polygon id="Path" fill="#D87B5A" points="12.3208755 23.3473685 7.42726328 38.1328723 2.44424672 25.4802504"></polygon>
            </g>
        </g>
    </g>
</svg>