<?xml version="1.0" encoding="UTF-8"?>
<svg width="240px" height="144px" viewBox="0 0 240 144" version="1.1" xmlns="http://www.w3.org/2000/svg" xmlns:xlink="http://www.w3.org/1999/xlink">
    <!-- Generator: sketchtool 59 (101010) - https://sketch.com -->
    <title>A2C56C69-972D-4DE3-90FD-A67A50DD06B6</title>
    <desc>Created with sketchtool.</desc>
    <defs>
        <polygon id="path-1" points="0 0.105415874 186.09072 0.105415874 186.09072 21.8799948 0 21.8799948"></polygon>
        <polygon id="path-3" points="0.281263496 0.000153160215 35.6493842 0.000153160215 35.6493842 35.2268493 0.281263496 35.2268493"></polygon>
        <polygon id="path-5" points="0.136076287 0.130138046 7.04536987 0.130138046 7.04536987 7.03057459 0.136076287 7.03057459"></polygon>
    </defs>
    <g id="Symbols" stroke="none" stroke-width="1" fill="none" fill-rule="evenodd">
        <g id="Logo/Starlife">
            <g id="Group-10" transform="translate(23.000000, 54.000000)">
                <g id="Group-3" transform="translate(0.000000, 7.587321)">
                    <mask id="mask-2" fill="white">
                        <use xlink:href="#path-1"></use>
                    </mask>
                    <g id="Clip-2"></g>
                    <path d="M43.2416538,0.446983976 L43.2416538,6.2536417 L48.0370536,6.2536417 L48.0370536,10.5229846 L43.2416538,10.5229846 L43.2416538,15.9033281 C43.2416538,16.5864643 43.3264877,17.0132953 43.5784494,17.183821 C43.8304111,17.5259058 44.3353504,17.6964315 45.0084335,17.6964315 C45.6810087,17.6964315 46.6065615,17.6106519 47.700258,17.3543466 L48.3738492,21.3673843 C46.185948,21.7094691 44.1666986,21.7952487 42.316101,21.7952487 C40.2135418,21.7952487 38.5305799,21.624723 37.5207013,21.2826382 C36.5118386,20.9415868 35.7539216,20.34268 35.2499982,19.5747977 C34.7445509,18.8069154 34.4925892,17.6106519 34.4925892,15.9033281 L34.4925892,10.5229846 L31.2953174,10.5229846 L31.2953174,6.2536417 L34.4925892,6.2536417 L34.4925892,3.43531731 L43.2416538,0.446983976 Z M63.7684032,12.1455623 L63.7684032,15.048116 C62.0864573,15.3902009 61.0770867,15.6470229 60.5721473,15.9880742 C60.067208,16.2443795 59.8990642,16.5864643 59.8990642,17.0132953 C59.8990642,17.5259058 60.067208,17.8669572 60.5721473,18.1237792 C61.0770867,18.4648305 61.7496618,18.5506101 62.6752146,18.5506101 L63.7684032,18.5506101 L63.7684032,21.4531638 C62.5065628,21.7094691 60.9927608,21.7952487 59.3941248,21.7952487 C56.7023003,21.7952487 54.683051,21.4531638 53.2530668,20.599502 C51.8230827,19.7463568 51.1494916,18.7211358 51.1494916,17.4401262 C51.1494916,16.3301591 51.6544309,15.3054548 52.6638016,14.6223186 C53.6736803,13.8534028 55.5247859,13.2560462 58.2166104,12.9134446 C60.7402911,12.5723932 62.5913967,12.3160879 63.7684032,12.1455623 L63.7684032,12.1455623 Z M63.7684032,5.9120736 L63.7684032,9.41250071 C62.7595405,9.41250071 62.0026394,9.58302639 61.4977001,9.83933165 C60.9084349,10.0956369 60.4883294,10.5229846 60.1515339,11.2061208 L51.8230827,10.6087642 C52.1588623,9.58302639 52.5799837,8.81514409 53.1687409,8.30253357 C53.7574982,7.70517695 54.5992331,7.27834601 55.6929296,6.85151507 C56.5341566,6.50943022 57.6273451,6.33890454 59.0578373,6.16786212 C60.4040035,5.99733644 61.9183136,5.9120736 63.6002594,5.9120736 L63.7684032,5.9120736 Z M-0.000253993632,14.536539 L9.25425797,14.109708 C9.42240176,15.1338956 9.84250722,15.9033281 10.4317725,16.4159387 C11.4411431,17.268567 12.8711273,17.6964315 14.7217249,17.6964315 C16.0683991,17.6964315 17.1620957,17.5259058 17.9189967,17.0980414 C18.6764057,16.5864643 19.0126933,16.1585999 19.0126933,15.5612433 C19.0126933,14.9633699 18.6764057,14.536539 18.0028146,14.109708 C17.2459136,13.6828771 15.6477857,13.2560462 13.0392711,12.8286985 C8.74931863,12.2303084 5.72069857,11.3766465 3.95391887,10.2661626 C2.10332126,9.24197503 1.17776847,7.87570263 1.17776847,6.2536417 C1.17776847,5.14315781 1.68219982,4.11845351 2.60775262,3.17901204 C3.53330541,2.23957058 4.87896367,1.47117154 6.81439515,0.873814916 C8.66550074,0.361204392 11.2729994,0.105415874 14.4697632,0.105415874 C18.508262,0.105415874 21.536374,0.617509654 23.6399493,1.55643438 C25.7430166,2.58113868 27.0048569,4.20423309 27.4254704,6.33890454 L18.2557923,6.68047264 C18.0871405,5.74103118 17.5827092,5.05789497 16.7409743,4.63106403 C15.9835653,4.20423309 14.8903767,4.03319067 13.5447184,4.03319067 C12.4505138,4.03319067 11.6092869,4.11845351 11.0205297,4.46002161 C10.4317725,4.80158971 10.1793028,5.22842065 10.1793028,5.65576834 C10.1793028,5.99733644 10.3474466,6.2536417 10.8518779,6.59469306 C11.2729994,6.85151507 12.3666959,7.10730358 14.1334756,7.3630921 C18.3396102,7.96148221 21.3682302,8.55935557 23.2193358,9.15671219 C25.0704414,9.83933165 26.3317738,10.6087642 27.1735087,11.5482056 C28.0147356,12.4866136 28.4353491,13.5123514 28.4353491,14.6223186 C28.4353491,15.9880742 27.9304097,17.268567 26.7528952,18.3790509 C25.6591987,19.4890181 24.1448886,20.34268 22.1256393,20.9415868 C20.1068979,21.5389434 17.5827092,21.8799948 14.5540891,21.8799948 C9.25425797,21.8799948 5.55255478,21.1968586 3.53330541,19.7463568 C1.42973015,18.3790509 0.252215676,16.6712104 -0.000253993632,14.536539 L-0.000253993632,14.536539 Z M130.398045,21.4531638 L139.148125,21.4531638 L139.148125,6.2536417 L130.398045,6.2536417 L130.398045,21.4531638 Z M130.398045,4.46002161 L139.148125,4.46002161 L139.148125,0.446983976 L130.398045,0.446983976 L130.398045,4.46002161 Z M81.5205261,6.2536417 L89.6803255,6.2536417 L89.6803255,8.72988125 C90.4377345,7.61991411 91.2784534,6.93677791 92.1201883,6.50943022 C92.9614152,6.08259928 93.9707859,5.9120736 95.1488084,5.9120736 C96.4949746,5.9120736 97.8411409,6.16786212 99.3549429,6.68047264 L96.6631184,10.8650694 C95.6532397,10.6087642 94.8963387,10.4377218 94.2232556,10.4377218 C93.129559,10.4377218 92.2040062,10.7792899 91.615249,11.3766465 C90.6896962,12.2303084 90.2695907,13.9391824 90.2695907,16.4159387 L90.2695907,21.4531638 L81.5205261,21.4531638 L81.5205261,6.2536417 Z M63.7684032,21.4531638 L63.7684032,18.5506101 C64.3581764,18.4648305 64.8626077,18.2943048 65.3675471,18.1237792 C66.208774,17.7811776 66.7975312,17.4401262 67.1343268,16.9275157 C67.5549402,16.5006847 67.723084,15.9033281 67.723084,15.2196752 L67.723084,14.2802337 C66.4607357,14.536539 65.1988953,14.7928442 63.9370549,15.048116 L63.7684032,15.048116 L63.7684032,12.1455623 C64.1051987,12.0597827 64.3581764,12.0597827 64.6101381,11.9750366 C65.5356909,11.8034774 66.6293874,11.6329517 67.723084,11.2919004 C67.723084,10.6087642 67.4701064,10.0956369 67.0500009,9.83933165 C66.5450616,9.49828029 65.7876525,9.32775462 64.693956,9.32775462 C64.3581764,9.32775462 64.0213808,9.41250071 63.7684032,9.41250071 L63.7684032,5.9120736 C66.2925919,5.9120736 68.3118413,5.99733644 69.8261513,6.16786212 C71.4242792,6.42365064 72.7704455,6.76573548 73.7803242,7.44887169 C74.5372252,7.87570263 75.1264904,8.47305925 75.5465959,9.24197503 C75.9672093,10.0108908 76.220187,10.7792899 76.220187,11.5482056 L76.220187,18.2085253 C76.220187,18.9764076 76.3040049,19.4890181 76.3883308,19.915849 C76.5569825,20.34268 76.8089442,20.8558072 77.3138836,21.4531638 L69.1535762,21.4531638 C68.8167806,21.1121125 68.5643109,20.7700276 68.480493,20.599502 C68.3956592,20.4284595 68.3118413,20.0863747 68.1436975,19.6595438 C67.0500009,20.34268 65.8719784,20.8558072 64.7782819,21.1968586 C64.4419943,21.2826382 64.1051987,21.3673843 63.7684032,21.4531638 L63.7684032,21.4531638 Z M160.095488,12.0597827 C159.927852,12.6581728 159.927852,13.2560462 159.927852,13.8534028 C159.927852,14.536539 159.927852,15.1338956 160.095488,15.7328025 L160.095488,12.0597827 Z M160.095488,0.446983976 L160.095488,1.38642544 L159.422405,3.94741109 C158.412526,3.86214825 157.571807,3.77688541 156.898724,3.77688541 C156.141823,3.77688541 155.552558,3.86214825 155.215762,4.03319067 C154.879475,4.20423309 154.627513,4.54528445 154.459369,4.88685255 C154.375043,5.14315781 154.375043,5.5705055 154.375043,6.2536417 L158.496852,6.2536417 L158.496852,10.5229846 L154.375043,10.5229846 L154.375043,21.4531638 L145.625471,21.4531638 L145.625471,10.5229846 L142.428199,10.5229846 L142.428199,6.2536417 L145.625471,6.2536417 L145.625471,5.5705055 C145.625471,4.88685255 145.709289,4.20423309 145.961758,3.52058015 C146.13041,2.7521811 146.551024,2.15482448 147.055963,1.64221396 C147.64472,1.21538302 148.401621,0.788035333 149.4115,0.532246815 C150.337053,0.190161969 151.851363,0.105415874 153.702468,0.105415874 C155.215762,0.105415874 157.31883,0.190161969 160.095488,0.446983976 L160.095488,0.446983976 Z M160.095488,1.38642544 L160.095488,0.446983976 L160.347958,0.446983976 L160.095488,1.38642544 Z M172.967377,5.9120736 L172.967377,9.32775462 C171.620703,9.32775462 170.527514,9.75458556 169.686796,10.4377218 C169.182364,10.9498155 168.845569,11.6329517 168.676917,12.4866136 L172.967377,12.4866136 L172.967377,15.3054548 L168.676917,15.3054548 C168.845569,16.2443795 169.182364,16.9275157 169.771629,17.4401262 C170.61184,18.0379996 171.705029,18.3790509 172.967377,18.3790509 L172.967377,21.7952487 L172.883051,21.7952487 C169.854431,21.7952487 167.499402,21.5389434 165.815933,20.9415868 C164.049661,20.4284595 162.703495,19.4890181 161.609798,18.2943048 C160.852897,17.5259058 160.431776,16.6712104 160.095488,15.7328025 L160.095488,12.0597827 C160.600427,10.5229846 161.609798,9.15671219 163.29276,8.13252463 C165.480661,6.59469306 168.592083,5.9120736 172.630074,5.9120736 L172.967377,5.9120736 Z M172.967377,15.3054548 L172.967377,12.4866136 L177.257838,12.4866136 C177.089694,11.3766465 176.66908,10.6087642 175.911163,10.0956369 C175.154262,9.58302639 174.229218,9.32775462 172.967377,9.32775462 L172.967377,5.9120736 C176.080323,5.9120736 178.519678,6.2536417 180.370784,6.85151507 C182.220873,7.53413452 183.650857,8.47305925 184.66226,9.75458556 C185.586797,11.0355951 186.09072,12.6581728 186.09072,14.6223186 L186.09072,15.3054548 L172.967377,15.3054548 Z M172.967377,21.7952487 L172.967377,18.3790509 L173.051703,18.3790509 C173.976748,18.3790509 174.733649,18.2943048 175.491058,17.9527367 C175.996505,17.7811776 176.499921,17.4401262 177.005368,17.0132953 L185.586797,17.5259058 C184.323941,19.0632206 182.725305,20.1721543 180.875723,20.8558072 C179.024617,21.5389434 176.416611,21.7952487 172.967377,21.7952487 L172.967377,21.7952487 Z" id="Fill-1" fill="#6699FF" mask="url(#mask-2)"></path>
                </g>
                <g id="Group-6" transform="translate(102.428839, 0.000000)">
                    <mask id="mask-4" fill="white">
                        <use xlink:href="#path-3"></use>
                    </mask>
                    <g id="Clip-5"></g>
                    <path d="M21.2631725,0.000153160215 C6.03077312,23.3698492 11.1932331,33.5779775 35.6493842,33.9996786 C-6.40859385,39.3153592 -10.639532,27.2509291 21.2631725,0.000153160215" id="Fill-4" fill="#FF6600" mask="url(#mask-4)"></path>
                </g>
                <g id="Group-9" transform="translate(185.889374, 9.213176)">
                    <mask id="mask-6" fill="white">
                        <use xlink:href="#path-5"></use>
                    </mask>
                    <g id="Clip-8"></g>
                    <path d="M2.67492564,3.40069939 L3.40764411,3.40069939 C3.75890612,3.40069939 3.99895194,3.34886559 4.12526535,3.24570125 C4.25308849,3.14102718 4.31800654,3.00414571 4.31800654,2.83354711 C4.31800654,2.72384064 4.28579914,2.6257087 4.22440377,2.53864806 C4.16351165,2.45158742 4.07745749,2.38666937 3.96926074,2.34389391 C3.85955426,2.30162169 3.6572515,2.27998234 3.36235245,2.27998234 L2.67492564,2.27998234 L2.67492564,3.40069939 Z M2.07707569,5.48965155 L2.07707569,1.77472867 L3.35732004,1.77472867 C3.79664917,1.77472867 4.11268434,1.80894904 4.30844497,1.87738977 C4.50521209,1.94633375 4.66071346,2.0656018 4.77645883,2.2362004 C4.89421715,2.40679899 4.95158659,2.58846889 4.95158659,2.7802036 C4.95158659,3.0509471 4.85295141,3.28797347 4.6587005,3.48876651 C4.46344311,3.69006279 4.20326766,3.80278871 3.88119361,3.82694426 C4.0120362,3.8817975 4.11821998,3.94772203 4.19722877,4.02421462 C4.34669126,4.17065767 4.53087736,4.41623913 4.74777411,4.76146225 L5.20169722,5.48965155 L4.46897875,5.48965155 L4.13885285,4.90387937 C3.87918065,4.44240765 3.67033576,4.15455396 3.51030521,4.03780212 C3.40059874,3.9522512 3.23905847,3.91048222 3.02870386,3.91249518 L2.67492564,3.91249518 L2.67492564,5.48965155 L2.07707569,5.48965155 Z M3.59233345,0.702825968 C3.10821589,0.702825968 2.63567287,0.826623182 2.17671734,1.07522409 C1.71776182,1.32332176 1.35844796,1.67860969 1.09877575,2.14008142 C0.840110033,2.60205639 0.710777171,3.08265126 0.710777171,3.58287252 C0.710777171,4.07906786 0.837090588,4.5556368 1.09122714,5.01157288 C1.34687342,5.46650248 1.7026646,5.82179042 2.16111688,6.07592697 C2.61856268,6.33107001 3.09563487,6.45788667 3.59233345,6.45788667 C4.09054174,6.45788667 4.56761393,6.33107001 5.02505973,6.07592697 C5.48250553,5.82179042 5.83779347,5.46650248 6.09193003,5.01157288 C6.34455686,4.5556368 6.47087028,4.07906786 6.47087028,3.58287252 C6.47087028,3.08265126 6.34304714,2.60205639 6.08387818,2.14008142 C5.82672218,1.67860969 5.46690507,1.32332176 5.00744631,1.07522409 C4.54597458,0.826623182 4.07544452,0.702825968 3.59233345,0.702825968 L3.59233345,0.702825968 Z M3.59233345,0.130138046 C4.17307322,0.130138046 4.73821253,0.278594054 5.29177731,0.576512551 C5.84332912,0.873424567 6.27510964,1.29866296 6.58309296,1.8517245 C6.89057303,2.40478603 7.04557116,2.98200312 7.04557116,3.58287252 C7.04557116,4.17719979 6.89409571,4.74888124 6.58913184,5.2974136 C6.2856777,5.84594597 5.8604393,6.27269409 5.31190694,6.57514175 C4.76387781,6.87909914 4.19068665,7.03057459 3.59233345,7.03057459 C2.99498673,7.03057459 2.42129233,6.87909914 1.87376644,6.57514175 C1.32523407,6.27269409 0.899492436,5.84594597 0.594025328,5.2974136 C0.289061461,4.74888124 0.136076287,4.17719979 0.136076287,3.58287252 C0.136076287,2.98200312 0.291074424,2.40478603 0.601070698,1.8517245 C0.910563731,1.29866296 1.3428475,0.873424567 1.89490255,0.576512551 C2.4469576,0.278594054 3.01260016,0.130138046 3.59233345,0.130138046 L3.59233345,0.130138046 Z" id="Fill-7" fill="#6699FF" mask="url(#mask-6)"></path>
                </g>
            </g>
        </g>
    </g>
</svg>