<?xml version="1.0" encoding="UTF-8"?>
<svg width="240px" height="144px" viewBox="0 0 240 144" version="1.1" xmlns="http://www.w3.org/2000/svg" xmlns:xlink="http://www.w3.org/1999/xlink">
    <!-- Generator: sketchtool 59 (101010) - https://sketch.com -->
    <title>16274901-D0C8-4C12-A076-2CC3E8576D7F</title>
    <desc>Created with sketchtool.</desc>
    <g id="Symbols" stroke="none" stroke-width="1" fill="none" fill-rule="evenodd">
        <g id="Logo/STO" fill-rule="nonzero">
            <g id="logo-en" transform="translate(12.000000, 41.000000)">
                <g id="Ebene_1_1_">
                    <g id="Group">
                        <path d="M68.6312768,17.1979715 C67.327819,15.0749551 65.4894337,13.3296202 63.2918936,12.1342696 C61.0578293,10.9150736 58.5719002,10.2835531 56.0250973,10.2835531 L37.33231,10.2835531 C37.2935031,10.2835531 37.2531742,10.2658613 37.2273029,10.2374006 C37.1991488,10.2135551 37.1854523,10.1766331 37.1854523,10.1420187 L37.1854523,0.0615367082 L37.0264198,0.0615367082 C35.134009,0.0615367082 33.3184513,0.802284833 31.9807521,2.13070852 C30.6384873,3.45759379 29.8866973,5.25369646 29.8866973,7.13210448 L29.8866973,10.1420187 C29.8866973,10.1766331 29.8722398,10.2135551 29.8478903,10.2374006 C29.8182144,10.2650921 29.7794074,10.2835531 29.7413613,10.2835531 L8.78635571,10.2835531 C5.72060468,10.2835531 2.81236431,11.9004302 1.27682557,14.5311244 C0.510578045,15.8441639 0.126312899,17.3156605 0.126312899,18.783311 C0.126312899,20.2524999 0.510578045,21.7209196 1.27682557,23.0370359 C2.81312523,25.6677302 5.64603442,27.2869148 8.71178545,27.2869148 L18.57941,27.2846072 C19.1569491,27.2846072 19.6911157,27.59306 19.9688519,28.0930457 C20.1035349,28.3253468 20.1689742,28.5899546 20.1689742,28.8553317 C20.1689742,29.1422466 20.0921211,29.4276231 19.9368932,29.6822312 C19.6431777,30.1414489 19.1310778,30.4260562 18.57941,30.4260562 L0.273170668,30.4260562 L0.311977643,30.6198968 C1.15279544,34.5497848 4.65683701,37.3573971 8.71178545,37.3573971 L18.57941,37.3573971 C21.645161,37.3573971 24.4788312,35.7389817 26.0120871,33.1090566 C26.7790956,31.7921711 27.1656435,30.3245206 27.1656435,28.8561009 C27.1656435,27.3884504 26.7790956,25.9200307 26.0120871,24.606222 C24.4795921,21.9755277 21.645922,20.3563431 18.57941,20.3563431 L8.71178545,20.3563431 C8.13120266,20.3563431 7.60160159,20.0478903 7.32310448,19.5509814 C7.18461684,19.310219 7.11917763,19.0502264 7.11917763,18.7848494 C7.11917763,18.5010113 7.19831342,18.212558 7.35506316,17.9617959 C7.64573501,17.4956553 8.1578349,17.2148941 8.70874176,17.2148941 C8.72624295,17.2148941 8.75135334,17.2148941 8.77722466,17.217971 L29.7398395,17.217971 C29.7778856,17.217971 29.8174534,17.2325859 29.8402811,17.2602774 C29.8737616,17.2871997 29.8851754,17.3210449 29.8851754,17.3610438 L29.8851754,31.0375772 C29.8851754,33.6490412 31.3385347,36.0497421 33.6608658,37.2766302 C34.7116978,37.8312298 35.8721025,38.1089142 37.0248979,38.1089142 C38.4112961,38.1089142 39.7969334,37.7089256 40.9923404,36.9197173 C41.0760418,36.8627958 41.1331108,36.7681831 41.1331108,36.6612631 L41.1331108,30.4875929 L40.8774414,30.6845103 C40.4642612,31.0068088 39.9628142,31.1775732 39.4545189,31.1775732 C39.1204746,31.1775732 38.7841475,31.1044984 38.4698871,30.9560411 C37.6838556,30.5814363 37.1831695,29.7945357 37.1831695,28.9345602 L37.1831695,17.3587362 C37.1831695,17.3187373 37.1945833,17.2848921 37.2250202,17.2610466 C37.2516524,17.2302783 37.2912203,17.2156633 37.3300273,17.2156633 L43.3725016,17.2156633 C42.0971978,19.3048346 41.4253045,21.689382 41.4253045,24.1323893 C41.430631,26.5761658 42.1086117,28.9637901 43.38772,31.0529614 C44.6911778,33.172901 46.5318459,34.9174666 48.7301469,36.1105096 C50.9649721,37.3304748 53.472968,37.9596877 56.0258582,37.9596877 C58.5726611,37.9596877 61.0639167,37.3243211 63.297981,36.1058943 C65.4970429,34.9082361 67.3354282,33.1613628 68.6343205,31.0398848 C69.9126679,28.948406 70.5906486,26.5815503 70.5906486,24.1362354 C70.5898877,21.6924588 69.9096242,19.2863736 68.6312768,17.1979715 M59.5641412,30.0237599 C58.4706976,30.6222044 57.2669205,30.9314264 56.0250973,30.9314264 C54.7847959,30.9314264 53.5566693,30.6229736 52.4624648,30.0237599 C51.399458,29.4414688 50.5038539,28.5891854 49.8692458,27.5438306 C49.2490951,26.5300133 48.9234209,25.3608159 48.9203772,24.1646961 C48.9234209,22.9693455 49.2490951,21.8016865 49.8692458,20.783254 C50.503093,19.7425144 51.3986971,18.890231 52.4624648,18.3079399 C53.5566693,17.707957 54.784035,17.4002734 56.0250973,17.4002734 C57.2669205,17.4002734 58.4706976,17.7071878 59.5641412,18.3079399 C60.6256261,18.890231 61.5212303,19.7425144 62.1573603,20.7878692 C62.77675,21.8016865 63.1039461,22.9701147 63.1069898,24.1654653 C63.104707,25.3615851 62.777511,26.5300133 62.1573603,27.5469074 C61.5212303,28.5891854 60.6256261,29.4414688 59.5641412,30.0237599 Z" id="Shape" fill="#000000"></path>
                        <rect id="Rectangle" fill="#FFD700" x="83.8961146" y="10.3073986" width="131.923931" height="27.0907666"></rect>
                    </g>
                </g>
                <g id="englisch" transform="translate(84.106192, 48.424777)" fill="#000000">
                    <g id="Group">
                        <path d="M0.203475684,8.94986264 L0.203475684,0.752527578 L2.42044955,0.752527578 C3.78555881,0.752527578 5.10055837,1.23310212 5.10055837,2.78137173 C5.10055837,3.80138188 4.48709437,4.42873656 3.49780775,4.66120052 C4.5501111,4.82139204 5.33895899,5.53368547 5.33895899,6.615537 C5.33895899,8.49536579 3.69824648,8.94986264 2.09549585,8.94986264 L0.203475684,8.94986264 L0.203475684,8.94986264 Z M1.17985527,4.32964134 L2.11903222,4.32964134 C3.13337368,4.32964134 4.08545767,3.99882724 4.08545767,2.84246803 C4.08545767,1.81053665 3.20853821,1.51623131 2.31947095,1.51623131 L1.17985527,1.51623131 L1.17985527,4.32964134 Z M1.17985527,8.18839414 L2.06892253,8.18839414 C3.12046664,8.18839414 4.31095124,7.91793126 4.31095124,6.65130068 C4.31095124,5.27439874 3.04606136,5.05311093 1.93150052,5.05311093 L1.17985527,5.05311093 L1.17985527,8.18839414 L1.17985527,8.18839414 Z" id="Shape"></path>
                        <path d="M7.81938832,6.45534548 C7.81938832,7.42618056 8.00767925,8.31058674 9.19664537,8.31058674 C10.4994971,8.31058674 10.9003746,7.20489275 10.9003746,6.12229615 L10.9003746,2.82831157 L11.8023489,2.82831157 L11.8023489,7.51037424 C11.8023489,7.99020371 11.8152559,8.4692881 11.8653656,8.94837249 L11.026408,8.94837249 L11.0013532,7.89185357 C10.5632731,8.67865468 9.89894017,9.08472154 8.98481807,9.08472154 C7.39421524,9.08472154 6.90602545,8.04012386 6.90602545,6.615537 L6.90602545,2.82980172 L7.82014755,2.82980172 L7.81938832,6.45534548 L7.81938832,6.45534548 Z" id="Path"></path>
                        <path d="M13.6328708,1.46556609 L13.6328708,0.395635786 L14.9390655,0.395635786 L14.9390655,1.46556609 L13.6328708,1.46556609 L13.6328708,1.46556609 Z M13.6328708,8.94986264 L13.6328708,2.82980172 L14.9390655,2.82980172 L14.9390655,8.94986264 L13.6328708,8.94986264 Z" id="Shape"></path>
                        <polygon id="Path" points="16.3630893 8.94986264 16.3630893 0.0886641404 17.2772114 0.0886641404 17.2772114 8.94986264"></polygon>
                        <path d="M23.2896142,8.94986264 L23.2144497,7.92985249 C22.8135722,8.71814375 22.1249437,9.08546662 21.2609313,9.08546662 C19.4076322,9.08546662 18.7190037,7.43959195 18.7190037,5.8667348 C18.7190037,4.24395751 19.41978,2.7083542 21.2859861,2.7083542 C22.074834,2.7083542 22.8515341,3.13826352 23.16434,3.86471341 L23.16434,0.0916444476 L24.0784621,0.0916444476 L24.0784621,7.01117278 C24.0784621,7.68621237 24.1035169,8.31356705 24.1414788,8.95209787 L23.2896142,8.95209787 L23.2896142,8.94986264 L23.2896142,8.94986264 Z M21.4355559,8.32325304 C22.7634625,8.32325304 23.1886356,6.94709618 23.1886356,5.87791095 C23.1886356,4.80872573 22.7255006,3.47056778 21.4226489,3.47056778 C20.0074299,3.47056778 19.694624,4.74837451 19.694624,5.87791095 C19.694624,6.43075795 19.7819364,7.04470124 20.0446326,7.52527578 C20.3088473,7.97902756 20.7347796,8.32325304 21.4355559,8.32325304 Z" id="Shape"></path>
                        <path d="M25.8953177,1.46556609 L25.8953177,0.395635786 L27.2015124,0.395635786 L27.2015124,1.46556609 L25.8953177,1.46556609 L25.8953177,1.46556609 Z M25.8953177,8.94986264 L25.8953177,2.82980172 L27.2015124,2.82980172 L27.2015124,8.94986264 L25.8953177,8.94986264 Z" id="Shape"></path>
                        <path d="M28.6270547,8.94986264 L28.6270547,4.26854504 C28.6270547,3.7879705 28.6133884,3.30963119 28.5647972,2.82980172 L29.4029956,2.82980172 L29.4417167,3.88706572 C29.8790376,3.09951953 30.5562775,2.70686405 31.4582518,2.70686405 C33.0602432,2.70686405 33.5491922,3.74028559 33.5491922,5.15295122 L33.5491922,8.94986264 L32.6472179,8.94986264 L32.6472179,5.32506396 C32.6472179,4.35422888 32.4467792,3.47056778 31.2441468,3.47056778 C29.9420543,3.47056778 29.5411768,4.57551669 29.5411768,5.65811329 L29.5411768,8.95209787 L28.6270547,8.95209787 L28.6270547,8.94986264 L28.6270547,8.94986264 Z" id="Path"></path>
                        <path d="M35.5786344,10.5473073 C36.1306002,10.8304365 36.7440642,10.9898829 37.3818238,10.9898829 C38.884355,10.9898829 39.4492278,9.9825391 39.4492278,8.65481222 L39.4492278,7.86801111 C39.0604982,8.55646209 38.3096122,8.94837249 37.5207643,8.94837249 C35.6682245,8.94837249 35.0038915,7.37626042 35.0038915,5.86375449 C35.0038915,4.2409772 35.7054271,2.7053739 37.5465783,2.7053739 C38.4364048,2.7053739 39.0999785,3.07418692 39.5000968,3.86173311 L39.5000968,2.82831157 L40.3648684,2.82831157 L40.3648684,8.642891 C40.3648684,10.5487975 39.487949,11.7394302 37.446359,11.7394302 C36.7956923,11.7394302 36.1442664,11.6172376 35.5049884,11.4205373 L35.5786344,10.5473073 Z M37.708296,8.18839414 C39.0491096,8.18839414 39.4742827,6.90909726 39.4742827,5.87716588 C39.4742827,4.8064905 39.0111477,3.46907763 37.7196845,3.46907763 C36.3173726,3.46907763 35.9802711,4.74688436 35.9802711,5.87716588 C35.9802711,6.40542534 36.0668242,6.98211479 36.3173726,7.42469041 C36.5815873,7.86875619 37.0067604,8.18839414 37.708296,8.18839414 Z" id="Shape"></path>
                        <polygon id="Path" points="46.8039627 8.94986264 44.8253895 2.82980172 45.8025283 2.82980172 47.3923719 8.11463154 49.0087888 2.82980172 50.0982948 2.82980172 51.7147117 8.11463154 53.2924075 2.82980172 54.1685677 2.82980172 52.2264379 8.94986264 51.111877 8.94986264 49.520515 3.67769913 47.9056165 8.94986264"></polygon>
                        <path d="M55.2345373,1.46556609 L55.2345373,0.395635786 L56.540732,0.395635786 L56.540732,1.46556609 L55.2345373,1.46556609 L55.2345373,1.46556609 Z M55.2345373,8.94986264 L55.2345373,2.82980172 L56.540732,2.82980172 L56.540732,8.94986264 L55.2345373,8.94986264 Z" id="Shape"></path>
                        <path d="M60.8961723,8.89994249 C60.5833664,9.03554647 60.2196916,9.08472154 59.8818308,9.08472154 C58.6032747,9.08472154 58.4423163,8.17498276 58.4423163,7.05736754 L58.4423163,3.53017393 L57.2647387,3.53017393 L57.2647387,2.82980172 L58.4423163,2.82980172 L58.4423163,1.45289978 L59.3442906,1.14592813 L59.3442906,2.82980172 L60.7579911,2.82980172 L60.7579911,3.53017393 L59.3442906,3.53017393 L59.3442906,7.29057659 C59.3442906,7.83224743 59.4931012,8.31058674 60.1452863,8.31058674 C60.3958347,8.31058674 60.6091805,8.24949044 60.8475811,8.15039522 L60.8961723,8.89994249 Z" id="Path"></path>
                        <path d="M62.0745091,8.94986264 L62.0745091,0.0886641404 L62.9886312,0.0886641404 L62.9886312,3.86173311 C63.3887494,3.0875983 64.0280275,2.7053739 64.9170948,2.7053739 C66.4454401,2.7053739 66.9958874,3.73805036 66.9958874,5.15146106 L66.9958874,8.94837249 L66.0939131,8.94837249 L66.0939131,5.31239765 C66.0939131,4.34081749 65.8927151,3.46907763 64.690842,3.46907763 C63.4016565,3.46907763 62.987872,4.56210531 62.987872,5.64395684 L62.987872,8.94986264 L62.0745091,8.94986264 L62.0745091,8.94986264 Z" id="Path"></path>
                        <path d="M76.4415627,8.85225758 C75.9032632,9.03554647 75.37863,9.08546662 74.8266643,9.08546662 C72.911867,9.08546662 71.8458974,7.64746838 71.8458974,5.8667348 C71.8458974,4.04800231 73.0098086,2.7083542 74.9139766,2.7083542 C75.4272212,2.7083542 75.9533729,2.80670434 76.4415627,2.96689586 L76.3671574,3.76487312 C75.9670392,3.5823293 75.5145336,3.45864655 75.0635464,3.45864655 C73.5610152,3.45864655 72.8230362,4.49057793 72.8230362,5.8667348 C72.8230362,7.15571768 73.5617744,8.33591935 75.0012889,8.33591935 C75.4909972,8.33591935 75.9397066,8.23831429 76.378546,8.05353524 L76.4415627,8.85225758 Z" id="Path"></path>
                        <path d="M77.3951652,5.86524465 C77.3951652,4.10835353 78.4588571,2.70686405 80.3136746,2.70686405 C82.2679523,2.70686405 83.232184,4.05843338 83.232184,5.86524465 C83.232184,7.63480207 82.2428974,9.08472154 80.3136746,9.08472154 C79.8254848,9.08472154 79.4003117,8.99903771 79.0366369,8.8388462 C77.9463717,8.32325304 77.3951652,7.20489275 77.3951652,5.86524465 Z M80.3129154,8.33591935 C81.6787839,8.33591935 82.254286,7.04619139 82.254286,5.8667348 C82.254286,4.63884822 81.7159865,3.45864655 80.3129154,3.45864655 C78.9356583,3.45864655 78.3715448,4.68727821 78.3715448,5.8667348 C78.3715448,6.45683563 78.509726,7.07077893 78.8225319,7.55060839 C79.1353378,8.00361509 79.6250461,8.33591935 80.3129154,8.33591935 Z" id="Shape"></path>
                        <path d="M84.6724578,8.94986264 L84.6724578,4.26854504 C84.6724578,3.7879705 84.6595508,3.30963119 84.6102003,2.82980172 L85.4483987,2.82980172 L85.4863606,3.88706572 C85.9244407,3.09951953 86.6016806,2.70686405 87.5021365,2.70686405 C89.1041278,2.70686405 89.5938361,3.74028559 89.5938361,5.15295122 L89.5938361,8.94986264 L88.6918618,8.94986264 L88.6918618,5.32506396 C88.6918618,4.35422888 88.4899046,3.47056778 87.2887907,3.47056778 C85.9851797,3.47056778 85.5850614,4.57551669 85.5850614,5.65811329 L85.5850614,8.95209787 L84.6716986,8.95209787 L84.6716986,8.94986264 L84.6724578,8.94986264 Z" id="Path"></path>
                        <path d="M91.1502733,7.96561618 C91.6513701,8.2249029 92.1152643,8.34784058 92.6778594,8.34784058 C93.3801542,8.34784058 93.8675847,8.0162814 93.8675847,7.32783043 C93.8675847,5.84065711 91.1753281,6.27056643 91.1753281,4.40265887 C91.1753281,3.17402721 92.2147244,2.70686405 93.191104,2.70686405 C93.7051079,2.70686405 94.1674836,2.80595927 94.6063229,2.96615078 L94.4802895,3.74028559 C94.0915598,3.55550654 93.6420911,3.43182379 93.2024926,3.43182379 C92.7143028,3.43182379 92.0871725,3.61660284 92.0871725,4.35422888 C92.0871725,5.58211546 94.8052432,5.20287136 94.8052432,7.2548129 C94.8052432,8.43501457 93.7909017,9.08546662 92.6892479,9.08546662 C92.0871725,9.08546662 91.535966,9.01244909 91.0348691,8.80308251 L91.1502733,7.96561618 Z" id="Path"></path>
                        <path d="M100.519266,8.85225758 C99.9809661,9.03554647 99.4555736,9.08546662 98.9043671,9.08546662 C96.9888106,9.08546662 95.9236002,7.64746838 95.9236002,5.8667348 C95.9236002,4.04800231 97.0875115,2.7083542 98.9916795,2.7083542 C99.5049241,2.7083542 100.031076,2.80670434 100.519266,2.96689586 L100.444101,3.76487312 C100.043224,3.5823293 99.5922364,3.45864655 99.1412493,3.45864655 C97.638718,3.45864655 96.8999798,4.49057793 96.8999798,5.8667348 C96.8999798,7.15571768 97.6394772,8.33591935 99.0789918,8.33591935 C99.5671816,8.33591935 100.017409,8.23831429 100.456249,8.05353524 L100.519266,8.85225758 Z" id="Path"></path>
                        <path d="M101.848691,1.46556609 L101.848691,0.395635786 L103.154885,0.395635786 L103.154885,1.46556609 L101.848691,1.46556609 L101.848691,1.46556609 Z M101.848691,8.94986264 L101.848691,2.82980172 L103.154885,2.82980172 L103.154885,8.94986264 L101.848691,8.94986264 Z" id="Shape"></path>
                        <path d="M105.130116,6.0015937 C105.130116,7.18030522 105.768635,8.36050688 107.334182,8.36050688 C107.934739,8.36050688 108.585406,8.18988429 109.05006,7.89334372 L109.087262,8.69206606 C108.548963,8.94986264 107.923351,9.08472154 107.334182,9.08472154 C105.180225,9.08472154 104.178791,7.69664345 104.178791,5.86524465 C104.178791,4.30430873 105.092154,2.70686405 106.95836,2.70686405 C108.90049,2.70686405 109.450178,4.23054613 109.450178,5.85332342 L109.450178,6.0015937 L105.130116,6.0015937 Z M108.560351,5.33624011 C108.498094,4.50100901 108.185288,3.41990256 106.970508,3.41990256 C105.781542,3.41990256 105.167318,4.46450025 105.128597,5.33624011 L108.560351,5.33624011 Z" id="Shape"></path>
                        <path d="M110.730252,8.94986264 L110.730252,4.26854504 C110.730252,3.7879705 110.717345,3.30963119 110.667995,2.82980172 L111.506193,2.82980172 L111.544155,3.88706572 C111.982235,3.09951953 112.658716,2.70686405 113.56069,2.70686405 C115.163441,2.70686405 115.651631,3.74028559 115.651631,5.15295122 L115.651631,8.94986264 L114.749656,8.94986264 L114.749656,5.32506396 C114.749656,4.35422888 114.548458,3.47056778 113.345826,3.47056778 C112.043733,3.47056778 111.642856,4.57551669 111.642856,5.65811329 L111.642856,8.95209787 L110.729493,8.95209787 L110.729493,8.94986264 L110.730252,8.94986264 Z" id="Path"></path>
                        <path d="M121.701995,8.85225758 C121.163696,9.03554647 120.637544,9.08546662 120.087097,9.08546662 C118.17154,9.08546662 117.10633,7.64746838 117.10633,5.8667348 C117.10633,4.04800231 118.270241,2.7083542 120.174409,2.7083542 C120.687654,2.7083542 121.213806,2.80670434 121.701995,2.96689586 L121.62759,3.76487312 C121.225953,3.5823293 120.774966,3.45864655 120.323979,3.45864655 C118.821448,3.45864655 118.083469,4.49057793 118.083469,5.8667348 C118.083469,7.15571768 118.822207,8.33591935 120.261722,8.33591935 C120.749911,8.33591935 121.200899,8.23831429 121.638219,8.05353524 L121.701995,8.85225758 Z" id="Path"></path>
                        <path d="M123.581868,6.0015937 C123.581868,7.18030522 124.221146,8.36050688 125.785935,8.36050688 C126.386491,8.36050688 127.037158,8.18988429 127.502571,7.89334372 L127.539773,8.69206606 C127.001474,8.94986264 126.375862,9.08472154 125.785935,9.08472154 C123.631218,9.08472154 122.631302,7.69664345 122.631302,5.86524465 C122.631302,4.30430873 123.544665,2.70686405 125.410112,2.70686405 C127.351483,2.70686405 127.90193,4.23054613 127.90193,5.85332342 L127.90193,6.0015937 L123.581868,6.0015937 Z M127.013622,5.33624011 C126.951364,4.50100901 126.638558,3.41990256 125.423778,3.41990256 C124.234812,3.41990256 123.620589,4.46450025 123.581868,5.33624011 L127.013622,5.33624011 Z" id="Shape"></path>
                        <polygon id="Path" points="129.434071 8.94986264 129.434071 7.85608988 130.51067 7.85608988 130.51067 8.94986264"></polygon>
                    </g>
                </g>
            </g>
        </g>
    </g>
</svg>