<?xml version="1.0" encoding="UTF-8"?>
<svg width="40px" height="40px" viewBox="0 0 40 40" version="1.1" xmlns="http://www.w3.org/2000/svg" xmlns:xlink="http://www.w3.org/1999/xlink">
    <!-- Generator: sketchtool 60 (101010) - https://sketch.com -->
    <title>86D92DCA-7EFB-40AA-B2D0-9EA780BCD36C</title>
    <desc>Created with sketchtool.</desc>
    <g id="Symbols" stroke="none" stroke-width="1" fill="none" fill-rule="evenodd">
        <g id="Glyphs/Competence/WordPress" fill="#464342" fill-rule="nonzero">
            <g id="Symbol">
                <path d="M2.83186992,19.9219512 C2.83186992,26.6868293 6.76325203,32.5330081 12.464065,35.3034146 L4.31154472,12.9665041 C3.36325203,15.0920325 2.83186992,17.4442276 2.83186992,19.9219512 Z" id="Path"></path>
                <path d="M31.4601626,19.0595122 C31.4601626,16.9473171 30.7014634,15.4845528 30.0507317,14.3460163 C29.1843902,12.9382114 28.3723577,11.7460163 28.3723577,10.3382114 C28.3723577,8.76715447 29.5639024,7.30471545 31.2422764,7.30471545 C31.3180488,7.30471545 31.3899187,7.31414634 31.4637398,7.31837398 C28.4230894,4.53268293 24.3720325,2.83186992 19.9226016,2.83186992 C13.9518699,2.83186992 8.69886179,5.89528455 5.64292683,10.5352846 C6.04390244,10.5473171 6.42178862,10.5557724 6.74276423,10.5557724 C8.5304065,10.5557724 11.297561,10.3388618 11.297561,10.3388618 C12.2188618,10.2845528 12.3274797,11.6377236 11.4071545,11.7466667 C11.4071545,11.7466667 10.4813008,11.8556098 9.45105691,11.9095935 L15.6747967,30.4217886 L19.4149593,19.2045528 L16.7521951,11.9089431 C15.8318699,11.8549593 14.96,11.7460163 14.96,11.7460163 C14.0390244,11.6920325 14.1469919,10.2839024 15.0679675,10.3382114 C15.0679675,10.3382114 17.8904065,10.555122 19.5697561,10.555122 C21.3570732,10.555122 24.1245528,10.3382114 24.1245528,10.3382114 C25.0465041,10.2839024 25.1547967,11.6370732 24.2341463,11.7460163 C24.2341463,11.7460163 23.3063415,11.8549593 22.2780488,11.9089431 L28.4543089,30.2809756 L30.1590244,24.5843902 C30.8978862,22.2204878 31.4601626,20.5226016 31.4601626,19.0595122 Z" id="Path"></path>
                <path d="M20.222439,21.4169106 L15.0946341,36.3173984 C16.6256911,36.7674797 18.244878,37.0136585 19.9226016,37.0136585 C21.9128455,37.0136585 23.8214634,36.6695935 25.5980488,36.044878 C25.5521951,35.9717073 25.5105691,35.8939837 25.4764228,35.8094309 L20.222439,21.4169106 Z" id="Path"></path>
                <path d="M34.9190244,11.7222764 C34.9925203,12.2666667 35.0341463,12.8510569 35.0341463,13.4796748 C35.0341463,15.2139837 34.7102439,17.1635772 33.7346341,19.6013008 L28.5141463,34.6949593 C33.595122,31.7320325 37.012683,26.2273171 37.012683,19.9222764 C37.0130081,16.9508943 36.2539837,14.156748 34.9190244,11.7222764 Z" id="Path"></path>
                <path d="M19.9226016,0 C8.93756098,0 0,8.93691057 0,19.9219512 C0,30.9082927 8.93756098,39.844878 19.9226016,39.844878 C30.9073171,39.844878 39.8461789,30.9082927 39.8461789,19.9219512 C39.8461789,8.93691057 30.9073171,0 19.9226016,0 Z M19.9226016,38.9317073 C9.44130081,38.9317073 0.913495935,30.4039024 0.913495935,19.9219512 C0.913495935,9.44065041 9.44097561,0.913495935 19.9226016,0.913495935 C30.4035772,0.913495935 38.9307317,9.44065041 38.9307317,19.9219512 C38.9307317,30.4039024 30.4035772,38.9317073 19.9226016,38.9317073 Z" id="Shape"></path>
            </g>
        </g>
    </g>
</svg>